<?xml version="1.0" encoding="utf-8"?>
<svg version="1.1" xmlns:xlink="http://www.w3.org/1999/xlink" width="16px" height="16px" xmlns="http://www.w3.org/2000/svg">
  <g transform="matrix(1 0 0 1 -597 -177 )">
    <path d="M 0.435483870967736 7.77915632754342  C 0.435483870967736 3.66997518610422  3.77047146401984 0.334987593052109  7.87965260545905 0.334987593052109  C 11.9888337468983 0.334987593052109  15.3238213399504 3.66997518610422  15.3238213399504 7.77915632754342  C 15.3238213399504 11.8883374689826  11.9888337468983 15.2233250620347  7.87965260545905 15.2233250620347  C 3.77047146401984 15.2233250620347  0.435483870967736 11.8883374689826  0.435483870967736 7.77915632754342  Z M 11.3039702233251 8.28535980148883  C 11.5818858560794 8.00744416873449  11.5818858560794 7.55086848635236  11.2940446650124 7.26302729528536  L 7.22456575682382 3.19354838709677  C 6.94665012406947 2.91563275434243  6.49007444168734 2.91563275434243  6.20223325062034 3.19354838709677  L 5.70595533498759 3.70967741935484  C 5.42803970223324 3.98759305210918  5.42803970223324 4.44416873449132  5.70595533498759 4.73200992555831  L 8.7531017369727 7.77915632754342  L 5.70595533498759 10.8263027295285  C 5.42803970223324 11.1042183622829  5.42803970223324 11.560794044665  5.70595533498759 11.848635235732  L 6.21215880893299 12.3548387096774  C 6.49007444168734 12.6327543424318  6.94665012406947 12.6327543424318  7.23449131513647 12.3548387096774  L 11.3039702233251 8.28535980148883  Z " fill-rule="nonzero" fill="#726254" stroke="none" transform="matrix(1 0 0 1 597 177 )" />
  </g>
</svg>