<?xml version="1.0" encoding="utf-8"?>
<svg version="1.1" xmlns:xlink="http://www.w3.org/1999/xlink" width="7px" height="15px" xmlns="http://www.w3.org/2000/svg">
  <g transform="matrix(1 0 0 1 -22 -27 )">
    <path d="M 6.87972508591065 0.901803607214428  C 6.95990836197022 1.00200400801603  7 1.11723446893787  7 1.24749498997996  C 7 1.37775551102204  6.95990836197022 1.49298597194389  6.87972508591065 1.59318637274549  L 2.15292096219931 7.5  L 6.87972508591065 13.4068136272545  C 6.95990836197022 13.5070140280561  7 13.622244488978  7 13.75250501002  C 7 13.8827655310621  6.95990836197022 13.997995991984  6.87972508591065 14.0981963927856  L 6.27835051546392 14.8496993987976  C 6.19816723940435 14.9498997995992  6.10595647193585 15  6.00171821305842 15  C 5.89747995418099 15  5.80526918671249 14.9498997995992  5.72508591065292 14.8496993987976  L 0.120274914089347 7.84569138276553  C 0.0400916380297824 7.74549098196393  0 7.63026052104208  0 7.5  C 0 7.36973947895792  0.0400916380297824 7.25450901803607  0.120274914089347 7.15430861723447  L 5.72508591065292 0.150300601202405  C 5.80526918671249 0.0501002004008011  5.89747995418099 0  6.00171821305842 0  C 6.10595647193585 0  6.19816723940435 0.0501002004008011  6.27835051546392 0.150300601202405  L 6.87972508591065 0.901803607214428  Z " fill-rule="nonzero" fill="#000000" stroke="none" transform="matrix(1 0 0 1 22 27 )" />
  </g>
</svg>