<?xml version="1.0" encoding="utf-8"?>
<svg version="1.1" xmlns:xlink="http://www.w3.org/1999/xlink" width="7px" height="15px" xmlns="http://www.w3.org/2000/svg">
  <g transform="matrix(1 0 0 1 -157 -27 )">
    <path d="M 6.87972508591065 7.15430861723447  C 6.95990836197022 7.25450901803607  7 7.36973947895792  7 7.5  C 7 7.63026052104208  6.95990836197022 7.74549098196393  6.87972508591065 7.84569138276553  L 1.27491408934708 14.8496993987976  C 1.19473081328751 14.9498997995992  1.10252004581901 15  0.998281786941581 15  C 0.894043528064147 15  0.801832760595647 14.9498997995992  0.721649484536082 14.8496993987976  L 0.120274914089347 14.0981963927856  C 0.0400916380297824 13.997995991984  0 13.8827655310621  0 13.75250501002  C 0 13.622244488978  0.0400916380297824 13.5070140280561  0.120274914089347 13.4068136272545  L 4.84707903780069 7.5  L 0.120274914089347 1.59318637274549  C 0.0400916380297824 1.49298597194389  0 1.37775551102204  0 1.24749498997996  C 0 1.11723446893787  0.0400916380297824 1.00200400801603  0.120274914089347 0.901803607214428  L 0.721649484536082 0.150300601202405  C 0.801832760595647 0.0501002004008011  0.894043528064147 0  0.998281786941581 0  C 1.10252004581901 0  1.19473081328751 0.0501002004008011  1.27491408934708 0.150300601202405  L 6.87972508591065 7.15430861723447  Z " fill-rule="nonzero" fill="#000000" stroke="none" transform="matrix(1 0 0 1 157 27 )" />
  </g>
</svg>