<?xml version="1.0" encoding="utf-8"?>
<svg version="1.1" xmlns:xlink="http://www.w3.org/1999/xlink" width="9px" height="9px" xmlns="http://www.w3.org/2000/svg">
  <g transform="matrix(1 0 0 1 -84 -84 )">
    <path d="M 5.83168316831683 3.02970297029703  L 6.58415841584158 2.27722772277228  C 6.01980198019802 1.74257425742574  5.27722772277228 1.45544554455446  4.49504950495049 1.45544554455446  C 3.08910891089109 1.45544554455446  1.87128712871287 2.41584158415842  1.54455445544554 3.76237623762376  C 1.52475247524752 3.86138613861386  1.43564356435644 3.93069306930693  1.33663366336634 3.93069306930693  L 0.297029702970297 3.93069306930693  C 0.158415841584158 3.93069306930693  0.0594059405940594 3.81188118811881  0.0792079207920792 3.67326732673267  C 0.475247524752475 1.57425742574257  2.2970297029703 0  4.5049504950495 0  C 5.71287128712871 0  6.8019801980198 0.475247524752475  7.61386138613861 1.24752475247525  L 8.25742574257426 0.594059405940594  C 8.53465346534653 0.316831683168317  9 0.514851485148515  9 0.900990099009901  L 9 3.33663366336634  C 9 3.57425742574257  8.8019801980198 3.77227722772277  8.56435643564356 3.77227722772277  L 6.13861386138614 3.77227722772277  C 5.75247524752475 3.77227722772277  5.55445544554455 3.30693069306931  5.83168316831683 3.02970297029703  Z M 0 5.66336633663366  C 0 5.42574257425743  0.198019801980198 5.22772277227723  0.435643564356436 5.22772277227723  L 2.87128712871287 5.22772277227723  C 3.25742574257426 5.22772277227723  3.45544554455446 5.69306930693069  3.17821782178218 5.97029702970297  L 2.41584158415842 6.73267326732673  C 2.98019801980198 7.26732673267327  3.72277227722772 7.55445544554455  4.5049504950495 7.55445544554455  C 5.91089108910891 7.55445544554455  7.12871287128713 6.59405940594059  7.45544554455445 5.24752475247525  C 7.47524752475247 5.14851485148515  7.56435643564356 5.07920792079208  7.66336633663366 5.07920792079208  L 8.71287128712871 5.07920792079208  C 8.85148514851485 5.07920792079208  8.95049504950495 5.1980198019802  8.93069306930693 5.33663366336634  C 8.53465346534654 7.42574257425743  6.7029702970297 9  4.50495049504951 9  C 3.2970297029703 9  2.20792079207921 8.52475247524752  1.3960396039604 7.75247524752475  L 0.742574257425743 8.40594059405941  C 0.465346534653465 8.68316831683168  0 8.48514851485148  0 8.0990099009901  L 0 5.66336633663366  Z " fill-rule="nonzero" fill="#ffffff" stroke="none" transform="matrix(1 0 0 1 84 84 )" />
  </g>
</svg>