<?xml version="1.0" encoding="utf-8"?>
<svg version="1.1" xmlns:xlink="http://www.w3.org/1999/xlink" width="11px" height="11px" xmlns="http://www.w3.org/2000/svg">
  <g transform="matrix(1 0 0 1 -15 -10 )">
    <path d="M 5.5 0  C 8.53656307129799 0  11 2.46343692870201  11 5.5  C 11 8.53656307129799  8.53656307129799 11  5.5 11  C 2.46343692870201 11  0 8.53656307129799  0 5.5  C 0 2.46343692870201  2.46343692870201 0  5.5 0  Z M 6.51553930530165 7.63162705667276  C 6.51553930530165 7.06855575868373  6.06307129798903 6.60603290676417  5.5 6.60603290676417  C 4.93692870201097 6.60603290676417  4.48446069469836 7.05850091407678  4.48446069469836 7.62157221206581  C 4.48446069469836 8.18464351005485  4.93692870201097 8.64716636197441  5.5 8.64716636197441  C 6.06307129798903 8.64716636197441  6.51553930530165 8.19469835466179  6.51553930530165 7.63162705667276  Z M 4.53473491773309 2.94606946983547  L 4.69561243144424 5.96252285191956  C 4.70566727605119 6.10329067641682  4.81627056672761 6.21389396709324  4.95703839122486 6.21389396709324  L 6.03290676416819 6.21389396709324  C 6.17367458866545 6.21389396709324  6.29433272394881 6.10329067641682  6.29433272394881 5.96252285191956  L 6.45521023765996 2.94606946983547  C 6.46526508226691 2.79524680073126  6.34460694698355 2.66453382084095  6.19378427787934 2.66453382084095  L 4.78610603290676 2.66453382084095  C 4.64533820840951 2.66453382084095  4.52468007312614 2.78519195612431  4.53473491773309 2.94606946983547  Z " fill-rule="nonzero" fill="#ffffff" stroke="none" transform="matrix(1 0 0 1 15 10 )" />
  </g>
</svg>