<?xml version="1.0" encoding="utf-8"?>
<svg version="1.1" xmlns:xlink="http://www.w3.org/1999/xlink" width="8px" height="12px" xmlns="http://www.w3.org/2000/svg">
  <g transform="matrix(1 0 0 1 -23 -960 )">
    <path d="M 1.19362113402062 10.1343427835052  C 0.634342783505154 9.21552835051546  0.344716494845361 7.91720360824742  0.344716494845361 6.25934278350515  C 0.344716494845361 4.39175257731959  0.644329896907216 2.98356958762887  1.25354381443299 2.01481958762887  C 1.86275773195876 1.05605670103093  2.74162371134021 0.576675257731958  3.89014175257732 0.576675257731958  C 6.08730670103093 0.576675257731958  7.18588917525773 2.38434278350515  7.18588917525773 5.99967783505155  C 7.18588917525773 7.75740979381443  6.88627577319588 9.11565721649484  6.27706185567011 10.0744201030928  C 5.67783505154639 11.0331829896907  4.79896907216495 11.5125644329897  3.65045103092784 11.5125644329897  C 2.57184278350516 11.5125644329897  1.75289948453608 11.0531572164948  1.19362113402062 10.1343427835052  Z M 3.84020618556701 1.55541237113402  C 2.28221649484536 1.55541237113402  1.5132087628866 3.10341494845361  1.5132087628866 6.19942010309278  C 1.5132087628866 9.09568298969072  2.2722293814433 10.5438144329897  3.78028350515464 10.5438144329897  C 5.27835051546392 10.5438144329897  6.02738402061856 9.0757087628866  6.02738402061856 6.13949742268041  C 6.02738402061856 3.08344072164948  5.29832474226804 1.55541237113402  3.84020618556701 1.55541237113402  Z " fill-rule="nonzero" fill="#ffffff" stroke="none" transform="matrix(1 0 0 1 23 960 )" />
  </g>
</svg>