<?xml version="1.0" encoding="utf-8"?>
<svg version="1.1" xmlns:xlink="http://www.w3.org/1999/xlink" width="8px" height="12px" xmlns="http://www.w3.org/2000/svg">
  <g transform="matrix(1 0 0 1 -63 -960 )">
    <path d="M 7.82345360824742 8.49645618556701  L 7.81346649484536 8.49645618556701  L 6.44523195876289 8.49645618556701  L 6.44523195876289 11.3327963917526  L 5.31668814432989 11.3327963917526  L 5.31668814432989 8.49645618556701  L 0.323131443298969 8.49645618556701  L 0.323131443298969 7.73743556701031  L 5.04703608247423 0.756443298969072  L 6.45521907216495 0.756443298969072  L 6.45521907216495 7.54768041237113  L 7.82345360824742 7.54768041237113  L 7.82345360824742 8.49645618556701  Z M 1.58150773195877 7.54768041237113  L 5.30670103092784 7.54768041237113  L 5.30670103092784 2.89368556701031  C 5.30670103092784 2.57409793814433  5.31668814432989 2.20457474226804  5.33666237113403 1.79510309278351  L 5.30670103092784 1.79510309278351  C 5.26675257731959 1.89497422680412  5.13692010309278 2.16462628865979  4.90721649484536 2.60405927835052  L 1.58150773195877 7.54768041237113  Z " fill-rule="nonzero" fill="#ffffff" stroke="none" transform="matrix(1 0 0 1 63 960 )" />
  </g>
</svg>