<?xml version="1.0" encoding="utf-8"?>
<svg version="1.1" xmlns:xlink="http://www.w3.org/1999/xlink" width="8px" height="12px" xmlns="http://www.w3.org/2000/svg">
  <g transform="matrix(1 0 0 1 -47 -960 )">
    <path d="M 7.03511597938144 11.3327963917526  L 7.04510309278351 11.3327963917526  L 0.713273195876297 11.3327963917526  L 0.713273195876297 10.3041237113402  L 3.78930412371135 7.20811855670103  C 4.80798969072166 6.17944587628866  5.43717783505155 5.43041237113402  5.66688144329898 4.97100515463918  C 5.90657216494846 4.51159793814433  6.01643041237114 4.0222293814433  6.01643041237114 3.50289948453608  C 6.01643041237114 2.88369845360825  5.83666237113403 2.39432989690722  5.48711340206187 2.06475515463918  C 5.1375644329897 1.72519329896907  4.62822164948454 1.55541237113402  3.96907216494846 1.55541237113402  C 3.03028350515464 1.55541237113402  2.12145618556701 1.96488402061856  1.25257731958764 2.77384020618557  L 1.25257731958764 1.55541237113402  C 2.0715206185567 0.90625  3.02029639175259 0.576675257731959  4.11887886597938 0.576675257731959  C 5.02770618556701 0.576675257731959  5.75676546391753 0.826353092783505  6.30605670103093 1.33569587628866  C 6.85534793814433 1.84503865979381  7.125 2.52416237113402  7.125 3.3930412371134  C 7.125 4.06217783505155  6.94523195876289 4.71134020618557  6.58569587628866 5.36050257731959  C 6.22615979381443 5.99967783505155  5.53704896907217 6.82860824742268  4.53833762886598 7.83730670103093  L 2.0715206185567 10.274162371134  L 2.0715206185567 10.3041237113402  L 7.03511597938144 10.3041237113402  L 7.03511597938144 11.3327963917526  Z " fill-rule="nonzero" fill="#ffffff" stroke="none" transform="matrix(1 0 0 1 47 960 )" />
  </g>
</svg>