<?xml version="1.0" encoding="utf-8"?>
<svg version="1.1" xmlns:xlink="http://www.w3.org/1999/xlink" width="8px" height="12px" xmlns="http://www.w3.org/2000/svg">
  <g transform="matrix(1 0 0 1 -31 -960 )">
    <path d="M 1.30315721649485 10.1343427835052  C 0.743878865979383 9.21552835051546  0.45425257731959 7.91720360824742  0.45425257731959 6.25934278350515  C 0.45425257731959 4.39175257731959  0.753865979381445 2.98356958762887  1.36307989690722 2.01481958762887  C 1.97229381443299 1.05605670103093  2.85115979381443 0.576675257731958  3.99967783505155 0.576675257731958  C 6.19684278350515 0.576675257731958  7.29542525773196 2.38434278350515  7.29542525773196 5.99967783505155  C 7.29542525773196 7.75740979381443  6.99581185567011 9.11565721649484  6.38659793814433 10.0744201030928  C 5.78737113402062 11.0331829896907  4.90850515463918 11.5125644329897  3.75998711340207 11.5125644329897  C 2.68137886597939 11.5125644329897  1.86243556701031 11.0531572164948  1.30315721649485 10.1343427835052  Z M 3.93975515463917 1.55541237113402  C 2.38176546391752 1.55541237113402  1.61275773195876 3.10341494845361  1.61275773195876 6.19942010309278  C 1.61275773195876 9.09568298969072  2.37177835051546 10.5438144329897  3.8798324742268 10.5438144329897  C 5.37789948453608 10.5438144329897  6.12693298969072 9.0757087628866  6.12693298969072 6.13949742268041  C 6.12693298969072 3.08344072164948  5.3978737113402 1.55541237113402  3.93975515463917 1.55541237113402  Z " fill-rule="nonzero" fill="#ffffff" stroke="none" transform="matrix(1 0 0 1 31 960 )" />
  </g>
</svg>