<?xml version="1.0" encoding="utf-8"?>
<svg version="1.1" xmlns:xlink="http://www.w3.org/1999/xlink" width="303px" height="170px" xmlns="http://www.w3.org/2000/svg">
  <g transform="matrix(1 0 0 1 -287 -513 )">
    <path d="M 302.399965027104 163.475056830956  C 302.399965027104 166.528246164778  300.151707426744 169.026310165178  297.403837026305 169.026310165178  C 297.403837026305 169.026310165178  5.77824685868455 169.026310165178  5.77824685868455 169.026310165178  C 3.03037645824489 169.026310165178  0.782118857885171 166.528246164778  0.782118857885171 163.475056830956  C 0.782118857885171 163.475056830956  0.782118857885171 5.99532584469254  0.782118857885171 5.99532584469254  C 0.782118857885171 2.94213651087072  3.03037645824489 0.444072510471029  5.77824685868455 0.444072510471029  C 5.77824685868455 0.444072510471029  297.403837026305 0.444072510471029  297.403837026305 0.444072510471029  C 300.151707426744 0.444072510471029  302.399965027104 2.94213651087072  302.399965027104 5.99532584469254  C 302.399965027104 5.99532584469254  302.399965027104 163.475056830956  302.399965027104 163.475056830956  Z " fill-rule="nonzero" fill="#c4b09d" stroke="none" fill-opacity="0.101960784313725" transform="matrix(1 0 0 1 287 513 )" />
  </g>
</svg>