<?xml version="1.0" encoding="utf-8"?>
<svg version="1.1" xmlns:xlink="http://www.w3.org/1999/xlink" width="3px" height="4px" xmlns="http://www.w3.org/2000/svg">
  <g transform="matrix(1 0 0 1 -26 -50 )">
    <path d="M 27.5 50  C 28.34 50  29 50.88  29 52  C 29 53.12  28.34 54  27.5 54  C 26.66 54  26 53.12  26 52  C 26 50.88  26.66 50  27.5 50  Z " fill-rule="nonzero" fill="#ffffff" stroke="none" fill-opacity="0" />
    <path d="M 27.5 50.1278938178996  C 28.2683794619762 50.1278938178996  28.8721061821004 50.9516205380238  28.8721061821004 52  C 28.8721061821004 53.0483794619762  28.2683794619762 53.8721061821004  27.5 53.8721061821004  C 26.7316205380238 53.8721061821004  26.1278938178996 53.0483794619762  26.1278938178996 52  C 26.1278938178996 50.9516205380238  26.7316205380238 50.1278938178996  27.5 50.1278938178996  Z " stroke-width="0.255787635799276" stroke="#ff9f1c" fill="none" />
  </g>
</svg>