<?xml version="1.0" encoding="utf-8"?>
<svg version="1.1" xmlns:xlink="http://www.w3.org/1999/xlink" width="21px" height="23px" xmlns="http://www.w3.org/2000/svg">
  <g transform="matrix(1 0 0 1 -381 -28 )">
    <path d="M 20.1563607719575 17.1918077983458  L 20.1662071681764 17.1918077983458  C 18.9157148483655 17.1918077983458  18.7680189050808 15.7640803465931  16.8282788499409 15.7640803465931  C 14.8885387948011 15.7640803465931  14.7309964552974 17.1918077983458  13.4805041354864 17.1918077983458  C 12.2398582118945 17.1918077983458  12.0724694761717 15.7640803465931  10.1327294210319 15.7640803465931  C 8.21268215833007 15.7640803465931  8.01575423395036 17.1918077983458  6.79480110279639 17.1918077983458  C 5.53446238676645 17.1918077983458  5.39661283970071 15.7640803465931  3.44702638834187 15.7640803465931  C 1.49743993698308 15.7640803465931  1.35959038991729 17.1918077983458  0.0992516738873519 17.1918077983458  L 0.0992516738873519 13.6077195746357  C 0.0992516738873519 12.4261520283576  1.06419850334777 11.4612051988972  2.24576604962584 11.4612051988972  L 2.96455297361166 11.4612051988972  L 2.96455297361166 5.01181567546278  L 5.82985427333597 5.01181567546278  L 5.82985427333597 11.4612051988972  L 8.69515557306025 11.4612051988972  L 8.69515557306025 5.01181567546278  L 11.5604568727846 5.01181567546278  L 11.5604568727846 11.4612051988972  L 14.4257581725089 11.4612051988972  L 14.4257581725089 5.01181567546278  L 17.2910594722331 5.01181567546278  L 17.2910594722331 11.4612051988972  L 18.009846396219 11.4612051988972  C 19.191413942497 11.4612051988972  20.1563607719575 12.4261520283576  20.1563607719575 13.6077195746357  L 20.1563607719575 17.1918077983458  Z M 20.1760535643954 22.9224103977944  L 20.1662071681764 23  L 0.109098070106342 23  L 0.109098070106342 18.6293816463174  C 2.04883812524616 18.6293816463174  2.20638046474988 17.2016541945648  3.45687278456086 17.2016541945648  C 4.7073651043718 17.2016541945648  4.85506104765656 18.6293816463174  6.80464749901537 18.6293816463174  C 8.72469476171722 18.6293816463174  8.9216226860969 17.2016541945648  10.1425758172509 17.2016541945648  C 11.4029145332808 17.2016541945648  11.5407640803466 18.6293816463174  13.4903505317054 18.6293816463174  C 15.4300905868452 18.6293816463174  15.587632926349 17.2016541945648  16.8381252461599 17.2016541945648  C 18.0689247735329 17.2016541945648  18.2363135092556 18.6293816463174  20.1760535643954 18.6293816463174  L 20.1760535643954 22.9224103977944  Z M 5.83970066955493 2.51083103584088  C 5.83970066955493 3.70224497833793  5.19968491532097 4.29302875147696  4.41197321780228 4.29302875147696  C 3.61441512406458 4.29302875147696  2.98424576604964 3.65301299724301  2.98424576604964 2.8653012997243  C 2.98424576604964 1.47695943284758  4.41197321780228 1.831429696731  4.41197321780228 0  C 4.9535250098464 0  5.83970066955493 1.31941709334384  5.83970066955493 2.51083103584088  Z M 11.5604568727846 2.51083103584088  C 11.5604568727846 3.70224497833793  10.9302875147696 4.29302875147696  10.1327294210319 4.29302875147696  C 9.3351713272942 4.29302875147696  8.70500196927927 3.65301299724301  8.70500196927927 2.8653012997243  C 8.70500196927927 1.47695943284758  10.1327294210319 1.831429696731  10.1327294210319 0  C 10.674281213076 0  11.5604568727846 1.31941709334384  11.5604568727846 2.51083103584088  Z M 17.2910594722331 2.51083103584088  C 17.2910594722331 3.70224497833793  16.6608901142182 4.29302875147696  15.8633320204805 4.29302875147696  C 15.0657739267428 4.29302875147696  14.4356045687279 3.65301299724301  14.4356045687279 2.8653012997243  C 14.4356045687279 1.47695943284758  15.8633320204805 1.831429696731  15.8633320204805 0  C 16.4048838125246 0  17.2910594722331 1.31941709334384  17.2910594722331 2.51083103584088  Z " fill-rule="nonzero" fill="#c4b09d" stroke="none" transform="matrix(1 0 0 1 381 28 )" />
  </g>
</svg>