<?xml version="1.0" encoding="utf-8"?>
<svg version="1.1" xmlns:xlink="http://www.w3.org/1999/xlink" width="12px" height="12px" xmlns="http://www.w3.org/2000/svg">
  <g transform="matrix(1 0 0 1 -275 -284 )">
    <path d="M 0.263027295285358 1.51861042183623  C 0.263027295285358 0.843672456575683  0.808933002481388 0.297766749379653  1.48387096774193 0.297766749379653  L 10.4665012406948 0.297766749379653  C 11.1414392059553 0.297766749379653  11.6873449131514 0.843672456575683  11.6873449131514 1.51861042183623  L 11.6873449131514 10.5012406947891  C 11.6873449131514 11.1761786600496  11.1414392059553 11.7220843672457  10.4665012406948 11.7220843672457  L 1.48387096774193 11.7220843672457  C 0.808933002481388 11.7320099255583  0.263027295285358 11.1761786600496  0.263027295285358 10.5012406947891  L 0.263027295285358 1.51861042183623  Z M 5.07692307692307 9.3697270471464  L 8.21339950372208 6.23325062034739  C 8.33250620347394 6.11414392059553  8.33250620347394 5.91563275434243  8.21339950372208 5.79652605459057  L 5.07692307692307 2.66004962779156  C 4.87841191066997 2.46153846153846  4.55086848635236 2.60049627791563  4.55086848635236 2.87841191066997  L 4.55086848635236 9.16129032258065  C 4.55086848635236 9.42928039702233  4.87841191066997 9.55831265508685  5.07692307692307 9.3697270471464  Z " fill-rule="nonzero" fill="#726254" stroke="none" transform="matrix(1 0 0 1 275 284 )" />
  </g>
</svg>