<?xml version="1.0" encoding="utf-8"?>
<svg version="1.1" xmlns:xlink="http://www.w3.org/1999/xlink" width="14px" height="13px" xmlns="http://www.w3.org/2000/svg">
  <g transform="matrix(1 0 0 1 -430 -362 )">
    <path d="M 5.96462741375436 0.901326471984206  L 4.36586645349857 4.13881741650221  L 0.798631060927818 4.65841472858535  C 0.159126676825508 4.74834503259974  -0.100671979216088 5.53773325672604  0.368964052859042 5.99737703279958  L 2.95695835727312 8.51542554520248  L 2.3474307411756 12.0726686817716  C 2.23751592515799 12.712173065874  2.91698933326671 13.2017936099523  3.47655566935626 12.8920336739027  L 6.67407758986784 11.2133346656341  L 9.87159951037944 12.8920336739027  C 10.4411581024706 13.1918013539507  11.1106392545777 12.712173065874  11.0007244385601 12.0726686817716  L 10.3911968224625 8.51542554520248  L 12.9791911268766 5.99737703279958  C 13.4388349029502 5.54772551272764  13.1890285029102 4.75833728860133  12.5495241188079 4.65841472858535  L 8.98228872623713 4.13881741650221  L 7.38352776598134 0.901326471984206  C 7.08376008593342 0.321775623891483  6.25440283780071 0.321775623891483  5.96462741375436 0.901326471984206  Z " fill-rule="nonzero" fill="#ff9f1c" stroke="none" transform="matrix(1 0 0 1 430 362 )" />
  </g>
</svg>