<?xml version="1.0" encoding="utf-8"?>
<svg version="1.1" xmlns:xlink="http://www.w3.org/1999/xlink" width="14px" height="13px" xmlns="http://www.w3.org/2000/svg">
  <g transform="matrix(1 0 0 1 -446 -362 )">
    <path d="M 6.52179560840349 0.901326471984206  L 4.92303464814771 4.13881741650221  L 1.35579925557695 4.65841472858535  C 0.716294871474645 4.74834503259974  0.456496215433049 5.53773325672604  0.926132247508178 5.99737703279958  L 3.51412655192226 8.51542554520248  L 2.90459893582474 12.0726686817716  C 2.79468411980713 12.712173065874  3.47415752791585 13.2017936099523  4.0337238640054 12.8920336739027  L 7.23124578451697 11.2133346656341  L 10.4287677050286 12.8920336739027  C 10.9983262971197 13.1918013539507  11.6678074492268 12.712173065874  11.5578926332092 12.0726686817716  L 10.9483650171117 8.51542554520248  L 13.5363593215258 5.99737703279958  C 13.9960030975993 5.54772551272764  13.7461966975594 4.75833728860133  13.106692313457 4.65841472858535  L 9.53945692088627 4.13881741650221  L 7.94069596063048 0.901326471984206  C 7.64092828058256 0.321775623891483  6.81157103244988 0.321775623891483  6.52179560840349 0.901326471984206  Z " fill-rule="nonzero" fill="#ff9f1c" stroke="none" transform="matrix(1 0 0 1 446 362 )" />
  </g>
</svg>