<?xml version="1.0" encoding="utf-8"?>
<svg version="1.1" xmlns:xlink="http://www.w3.org/1999/xlink" width="14px" height="13px" xmlns="http://www.w3.org/2000/svg">
  <g transform="matrix(1 0 0 1 -463 -362 )">
    <path d="M 6.07896380305266 0.901326471984206  L 4.48020284279687 4.13881741650221  L 0.91296745022612 4.65841472858535  C 0.27346306612381 4.74834503259974  0.0136644100822139 5.53773325672604  0.483300442157372 5.99737703279958  L 3.07129474657145 8.51542554520248  L 2.4617671304739 12.0726686817716  C 2.35185231445629 12.712173065874  3.03132572256501 13.2017936099523  3.59089205865456 12.8920336739027  L 6.78841397916614 11.2133346656341  L 9.98593589967774 12.8920336739027  C 10.5554944917689 13.1918013539507  11.224975643876 12.712173065874  11.1150608278584 12.0726686817716  L 10.5055332117608 8.51542554520248  L 13.0935275161749 5.99737703279958  C 13.5531712922485 5.54772551272764  13.3033648922085 4.75833728860133  12.6638605081062 4.65841472858535  L 9.09662511553543 4.13881741650221  L 7.49786415527964 0.901326471984206  C 7.19809647523172 0.321775623891483  6.36873922709901 0.321775623891483  6.07896380305266 0.901326471984206  Z " fill-rule="nonzero" fill="#ff9f1c" stroke="none" transform="matrix(1 0 0 1 463 362 )" />
  </g>
</svg>