<?xml version="1.0" encoding="utf-8"?>
<svg version="1.1" xmlns:xlink="http://www.w3.org/1999/xlink" width="13px" height="17px" xmlns="http://www.w3.org/2000/svg">
  <g transform="matrix(1 0 0 1 -644 -341 )">
    <path d="M 5.60905298393749 16.3456321350953  C 1.13252229522124 9.8606579900577  0.303165047088555 9.19117683795059  0.303165047088555 6.81301990957009  C 0.303165047088555 3.54555219704729  2.95111288751218 0.897604356623617  6.21858060003501 0.897604356623617  C 9.48604831255778 0.897604356623617  12.1339961529815 3.54555219704729  12.1339961529815 6.81301990957009  C 12.1339961529815 9.20116909395219  11.3046389048488 9.8606579900577  6.82810821613253 16.3456321350953  C 6.5283405360845 16.7653068871624  5.89882840798379 16.7653068871624  5.60905298393749 16.3456321350953  Z M 3.75049336764005 6.80302765356848  C 3.75049336764005 8.17196672578751  4.84964152781595 9.27111488596337  6.21858060003495 9.27111488596337  C 7.57752741625239 9.27111488596337  8.68666783242986 8.17196672578751  8.68666783242986 6.80302765356848  C 8.68666783242986 5.43408858134946  7.58751967225402 4.33494042117359  6.21858060003495 4.33494042117359  C 4.85963378381751 4.33494042117359  3.75049336764005 5.43408858134946  3.75049336764005 6.80302765356848  Z " fill-rule="nonzero" fill="#726254" stroke="none" transform="matrix(1 0 0 1 644 341 )" />
  </g>
</svg>