<?xml version="1.0" encoding="utf-8"?>
<svg version="1.1" xmlns:xlink="http://www.w3.org/1999/xlink" width="13px" height="17px" xmlns="http://www.w3.org/2000/svg">
  <g transform="matrix(1 0 0 1 -644 -408 )">
    <path d="M 5.60905298393749 15.9640028977542  C 1.13252229522124 9.47902875271664  0.303165047088555 8.80954760060952  0.303165047088555 6.43139067222901  C 0.303165047088555 3.16392295970621  2.95111288751218 0.515975119282544  6.21858060003501 0.515975119282544  C 9.48604831255778 0.515975119282544  12.1339961529815 3.16392295970621  12.1339961529815 6.43139067222901  C 12.1339961529815 8.81953985661112  11.3046389048488 9.47902875271663  6.82810821613253 15.9640028977542  C 6.5283405360845 16.393669905823  5.89882840798379 16.393669905823  5.60905298393749 15.9640028977542  Z M 3.75049336764005 6.43139067222903  C 3.75049336764005 7.80032974444806  4.84964152781595 8.89947790462392  6.21858060003495 8.89947790462392  C 7.57752741625239 8.89947790462392  8.68666783242986 7.80032974444806  8.68666783242986 6.43139067222903  C 8.68666783242986 5.06245160000999  7.58751967225402 3.96330343983414  6.21858060003495 3.96330343983414  C 4.85963378381751 3.96330343983414  3.75049336764005 5.06245160000999  3.75049336764005 6.43139067222903  Z " fill-rule="nonzero" fill="#726254" stroke="none" transform="matrix(1 0 0 1 644 408 )" />
  </g>
</svg>