<?xml version="1.0" encoding="utf-8"?>
<svg version="1.1" xmlns:xlink="http://www.w3.org/1999/xlink" width="14px" height="11px" xmlns="http://www.w3.org/2000/svg">
  <g transform="matrix(1 0 0 1 -644 -631 )">
    <path d="M 13.0932527291349 2.04196747520672  C 13.0932527291349 1.38247857910119  12.5636631610502 0.852889011016487  11.9041742649446 1  L 1.59216607129474 1  C 0.932677175189212 0.852889011016487  0.40308760710451 1.38247857910119  0.40308760710451 2.04196747520672  L 0.40308760710451 9.18643051634979  C 0.40308760710451 9.84591941245537  0.932677175189212 10.3755089805401  1.59216607129474 10.3755089805401  L 11.9041742649446 10.3755089805401  C 12.5636631610502 10.3755089805401  13.0932527291349 9.84591941245537  13.0932527291349 9.18643051634979  L 13.0932527291349 2.04196747520672  Z M 1.5921660712948 2  L 11.9041742649446 2  L 11.9041742649446 3.05118533136817  C 11.3446079288551 3.50083685144011  10.4652894007144 4.21028702755365  8.56676076041072 5.68914091579023  C 8.14708600834354 6.01888536384297  7.31772876021085 6.80827358796932  6.74817016811971 6.7982813319677  C 6.16861932002701 6.80827358796932  5.34925432789595 6.01888536384303  4.92957957582877 5.68914091579023  C 3.031050935525 4.21028702755359  2.15173240738432 3.50083685144011  1.5921660712948 3.05118533136817  L 1.5921660712948 2  Z M 11.9041742649447 9  L 1.59216607129474 9  L 1.59216607129474 4.58000049961277  C 2.16172466338588 5.0296520196847  2.96110514351375 5.66915640378699  4.19015263171042 6.62841297994055  C 4.7297344557968 7.0580799880093  5.67899877594868 7.99735205215956  6.74817016811971 7.98735979615799  C 7.80734930428918 7.99735205215956  8.74662136843949 7.06807224401086  9.30618770452901 6.62841297994055  C 10.5352351927257 5.66915640378704  11.3446079288552 5.0296520196847  11.9041742649447 4.58000049961277  L 11.9041742649447 9  Z " fill-rule="nonzero" fill="#726254" stroke="none" transform="matrix(1 0 0 1 644 631 )" />
  </g>
</svg>