<?xml version="1.0" encoding="utf-8"?>
<svg version="1.1" xmlns:xlink="http://www.w3.org/1999/xlink" width="12px" height="14px" xmlns="http://www.w3.org/2000/svg">
  <g transform="matrix(1 0 0 1 -644 -563 )">
    <path d="M 3.99030751167845 4.85248932077639  C 3.81044690364968 4.85248932077639  3.68054757562891 4.71259773675399  3.68054757562891 4.54272938472684  L 3.68054757562891 3.52351927256376  C 3.68054757562891 3.35365092053658  3.8204391596513 3.21375933651419  3.99030751167845 3.21375933651419  L 5.00951762384153 3.21375933651419  C 5.17938597586874 3.21375933651419  5.31927755989108 3.35365092053655  5.31927755989108 3.52351927256376  L 5.31927755989108 4.54272938472684  C 5.31927755989108 4.71259773675399  5.17938597586874 4.85248932077639  5.00951762384153 4.85248932077639  L 3.99030751167845 4.85248932077639  Z M 6.94801528815168 4.54272938472684  C 6.94801528815168 4.71259773675399  7.08790687217407 4.85248932077639  7.25777522420128 4.85248932077639  L 8.27698533636431 4.85248932077639  C 8.44685368839151 4.85248932077639  8.58674527241385 4.71259773675402  8.58674527241385 4.54272938472684  L 8.58674527241385 3.52351927256376  C 8.58674527241385 3.35365092053658  8.44685368839151 3.21375933651419  8.27698533636431 3.21375933651419  L 7.25777522420128 3.21375933651419  C 7.08790687217407 3.21375933651419  6.94801528815168 3.35365092053655  6.94801528815168 3.52351927256376  L 6.94801528815168 4.54272938472684  Z M 3.67055531962728 7.00082436112012  C 3.68054757562891 7.17069271314728  3.81044690364968 7.31058429716967  3.98031525567683 7.31058429716967  L 4.99952536783991 7.31058429716967  C 5.16939371986706 7.31058429716967  5.30928530388945 7.17069271314728  5.30928530388945 7.00082436112012  L 5.30928530388945 5.98161424895704  C 5.30928530388945 5.81174589692986  5.16939371986706 5.6718543129075  4.99952536783991 5.6718543129075  L 3.98031525567683 5.6718543129075  C 3.81044690364962 5.6718543129075  3.67055531962728 5.81174589692986  3.67055531962728 5.98161424895704  L 3.67055531962728 7.00082436112012  Z M 6.94801528815168 7.00082436112012  C 6.94801528815168 7.17069271314728  7.08790687217407 7.31058429716967  7.25777522420128 7.31058429716967  L 8.27698533636431 7.31058429716967  C 8.44685368839151 7.31058429716967  8.58674527241385 7.17069271314728  8.58674527241385 7.00082436112012  L 8.58674527241385 5.98161424895704  C 8.58674527241385 5.81174589692986  8.44685368839151 5.6718543129075  8.27698533636431 5.6718543129075  L 7.25777522420128 5.6718543129075  C 7.08790687217407 5.6718543129075  6.94801528815168 5.81174589692986  6.94801528815168 5.98161424895704  L 6.94801528815168 7.00082436112012  Z M 4.99952536783996 9.76867927356301  C 5.17938597586874 9.76867927356301  5.30928530388951 9.62878768954056  5.30928530388951 9.45891933751346  L 5.30928530388951 8.43970922535038  C 5.30928530388951 8.26984087332318  5.16939371986712 8.12994928930084  4.99952536783996 8.12994928930084  L 3.98031525567689 8.12994928930084  C 3.81044690364968 8.12994928930084  3.67055531962734 8.26984087332318  3.67055531962734 8.43970922535038  L 3.67055531962734 9.45891933751346  C 3.67055531962734 9.62878768954062  3.81044690364968 9.76867927356301  3.98031525567689 9.76867927356301  L 4.99952536783996 9.76867927356301  Z M 6.94801528815168 9.45891933751346  C 6.94801528815168 9.62878768954056  7.08790687217407 9.76867927356301  7.25777522420128 9.76867927356301  L 8.27698533636431 9.76867927356301  C 8.44685368839151 9.76867927356301  8.58674527241385 9.62878768954062  8.58674527241385 9.45891933751346  L 8.58674527241385 8.43970922535038  C 8.58674527241385 8.26984087332318  8.44685368839151 8.12994928930084  8.27698533636431 8.12994928930084  L 7.25777522420128 8.12994928930084  C 7.08790687217407 8.12994928930084  6.94801528815168 8.26984087332318  6.94801528815168 8.43970922535038  L 6.94801528815168 9.45891933751346  Z M 11.5544453048888 12.6264644900202  C 11.7243136569159 12.6264644900202  11.8642052409383 12.7663560740426  11.8642052409383 12.9362244260698  L 11.8642052409383 13.8555119782169  L 0.40308760710451 13.8555119782169  L 0.40308760710451 12.9362244260698  C 0.40308760710451 12.7663560740426  0.542979191126847 12.6264644900202  0.712847543154055 12.6264644900202  L 1.212460343234 12.6264644900202  L 1.212460343234 1.37518423222002  C 1.212460343234 1.03544752816566  1.48225125527716 0.76565661612247  1.82198795933152 0.76565661612247  L 10.4453048887112 0.76565661612247  C 10.7850415927656 0.76565661612247  11.0548325048088 1.03544752816566  11 1.37518423222002  L 11 12.6264644900202  L 11.5544453048888 12.6264644900202  Z M 2.44150783143067 1.98471184831754  L 2.43151557542905 12.606479978017  L 5.30928530388951 12.606479978017  L 5.30928530388951 10.887811945742  C 5.30928530388951 10.7179435937148  5.4491768879119 10.5780520096924  5.61904523993906 10.5780520096924  L 6.63825535210214 10.5780520096924  C 6.80812370412934 10.5780520096924  6.94801528815168 10.7179435937148  6.94801528815168 10.887811945742  L 6.94801528815168 12.606479978017  L 9.82578501661214 12.606479978017  L 9.82578501661214 2.01468861632236  L 2.44150783143067 1.98471184831754  Z " fill-rule="nonzero" fill="#726254" stroke="none" transform="matrix(1 0 0 1 644 563 )" />
  </g>
</svg>