<?xml version="1.0" encoding="utf-8"?>
<svg version="1.1" xmlns:xlink="http://www.w3.org/1999/xlink" width="15px" height="15px" xmlns="http://www.w3.org/2000/svg">
  <g transform="matrix(1 0 0 1 -814 -501 )">
    <path d="M 14.0007993804801 2.07269366241158  C 13.9908071244785 1.78291823836526  13.7909620044466 1.53311183832528  13.5111788364018 1.47315830231571  L 10.8032774599685 0.843646174214996  C 10.5135020359221 0.773700382203799  10.2037420998726 0.933576478229384  10.0838350278533 1.20336739027255  L 8.83480302765349 4.12110614273936  C 8.72488821163586 4.38090479878093  8.79483400364711 4.68067247882891  9.01466363568227 4.85054083085609  L 10.5934400839349 6.1395418550623  C 9.65416801978449 8.13799305538205  8.01543803552238 9.79670755164744  5.97701781119622 10.755964127801  L 4.68801678699003 9.17718767954833  C 4.50815617896126 8.95735804751314  4.21838075491485 8.88741225550197  3.95858209887331 8.99732707151955  L 1.04084334640652 10.2463590717194  C 0.761060178361731 10.3662661437386  0.611176338337827 10.6660338237865  0.681122130348967 10.9658015038345  L 1.31063425844968 13.6737028802678  C 1.38058005046094 13.9534860483125  1.63038645050085 14.1533311683445  1.92016187454715 14.1533311683445  C 8.59498888361509 14.1533311683445  14.0007993804801 8.74752067147958  14.0007993804801 2.07269366241158  Z " fill-rule="nonzero" fill="#726254" stroke="none" transform="matrix(1 0 0 1 814 501 )" />
  </g>
</svg>