<?xml version="1.0" encoding="utf-8"?>
<svg version="1.1" xmlns:xlink="http://www.w3.org/1999/xlink" width="10px" height="9px" xmlns="http://www.w3.org/2000/svg">
  <g transform="matrix(1 0 0 1 -742 -505 )">
    <path d="M 9.72990932027693 8.98501161599754  L 8.77065274412331 8.98501161599759  L 8.77065274412331 3.09957283105592  C 8.77065274412331 2.64992131098398  8.80062951212807 2.09035497489447  8.86058304813764 1.42087382278731  L 8.83060628013288 1.42087382278731  C 8.73068372011687 1.83055631885287  8.64075341610248 2.11033948689763  8.57080762409134 2.24023881491843  L 5.5331617996053 8.98501161599759  L 5.10349479153655 8.98501161599759  L 2.07584122305212 2.28020783892481  C 1.99590317503936 2.10034723089601  1.91596512702654 1.81057180684965  1.82603482301215 1.41088156678572  L 1.79605805500739 1.41088156678572  C 1.82603482301215 1.72064150283526  1.8460193350154 2.27021558292321  1.8460193350154 3.07958831905268  L 1.8460193350154 8.98501161599756  L 0.916739526866706 8.98501161599756  L 0.916739526866706 0.271764382603436  L 2.16577152706657 0.271764382603436  L 4.89365741550301 6.40700956758505  C 5.1034947915366 6.88663785566177  5.243386375559 7.23636681571776  5.30333991156863 7.43621193574972  L 5.34330893557501 7.43621193574972  C 5.45322375159259 7.13644425570175  5.59311533561498 6.77672303964422  5.76298368764219 6.37703279958026  L 8.55082311208827 0.271764382603408  L 9.72990932027693 0.271764382603408  L 9.72990932027693 8.98501161599754  Z " fill-rule="nonzero" fill="#38b2c6" stroke="none" transform="matrix(1 0 0 1 742 505 )" />
  </g>
</svg>