<?xml version="1.0" encoding="utf-8"?>
<svg version="1.1" xmlns:xlink="http://www.w3.org/1999/xlink" width="14px" height="13px" xmlns="http://www.w3.org/2000/svg">
  <g transform="matrix(1 0 0 1 -725 -503 )">
    <path d="M 7.1450875571432 0.363243486298103  C 10.5524468536884 0.363243486298103  13.3203017661313 3.13109839874096  13.3203017661313 6.53845769528615  C 13.3203017661313 9.94581699183132  10.5524468536884 12.7136719042742  7.1450875571432 12.7136719042742  C 3.73772826059803 12.7136719042742  0.969873348155147 9.94581699183132  0.969873348155147 6.53845769528615  C 0.969873348155147 3.13109839874096  3.73772826059803 0.363243486298103  7.1450875571432 0.363243486298103  Z M 6.42564512502815 9.80592540780896  L 11.0020983737604 5.22947215907669  C 11.1619744697859 5.06959606305114  11.1619744697859 4.81978966301116  11.0020983737604 4.66990582298718  L 10.4425320376708 4.11033948689763  C 10.2826559416452 3.95046339087207  10.0328495416052 3.95046339087207  9.88296570158127 4.11033948689763  L 6.14586195698331 7.84744323149559  L 4.40720941270513 6.10879068721738  C 4.24733331667954 5.94891459119182  3.99752691663957 5.94891459119182  3.84764307661561 6.10879068721738  L 3.28807674052609 6.66835702330692  C 3.12820064450045 6.82823311933251  3.12820064450045 7.07803951937245  3.28807674052609 7.22792335939644  L 5.87607104494015 9.81591766381052  C 6.02595488496416 9.96580150383451  6.27576128500414 9.96580150383451  6.42564512502815 9.80592540780896  Z " fill-rule="nonzero" fill="#38b2c6" stroke="none" transform="matrix(1 0 0 1 725 503 )" />
  </g>
</svg>