<?xml version="1.0" encoding="utf-8"?>
<svg version="1.1" xmlns:xlink="http://www.w3.org/1999/xlink" width="14px" height="16px" xmlns="http://www.w3.org/2000/svg">
  <g transform="matrix(1 0 0 1 -1095 -328 )">
    <path d="M 2.98156428767697 3.99527865903924  C 2.98156428767697 6.14361369938298  4.72021683195521 7.88226624366116  6.86855187229889 7.88226624366116  C 9.01688691264258 7.88226624366116  10.7555394569208 6.14361369938298  10.7555394569208 3.99527865903924  C 10.7555394569208 1.84694361869551  9.01688691264258 0.108291074417323  6.86855187229889 0.108291074417323  C 4.72021683195521 0.108291074417323  2.98156428767697 1.84694361869551  2.98156428767697 3.99527865903924  Z M 9.77629836876406 8.87149958781944  L 8.32742124853223 14.6869925807499  L 7.3581724163771 10.550198596088  L 8.32742124853223 8.85151507581624  L 5.40968249606544 8.85151507581624  L 6.37893132822057 10.550198596088  L 5.40968249606544 14.6869925807499  L 3.9608053758335 8.87149958781944  C 1.79248582348669 8.97142214783543  0.0638255352100714 10.75004371612  0.0638255352100714 12.9383477804701  L 0.0638255352100714 14.2073642926732  C 0.0638255352100714 15.0167370288027  0.71332217531392 15.6662336689066  1.52269491144352 15.6662336689066  L 12.2244010891558 15.6662336689066  C 13.0337738252853 15.6662336689066  13.6832704653892 15.0167370288027  13.6832704653892 14.2073642926732  L 13.6832704653892 12.9383477804701  C 13.6732782093877 10.75004371612  11.9446179211111 8.97142214783543  9.77629836876406 8.87149958781944  Z " fill-rule="nonzero" fill="#726254" stroke="none" transform="matrix(1 0 0 1 1095 328 )" />
  </g>
</svg>