<?xml version="1.0" encoding="utf-8"?>
<svg version="1.1" xmlns:xlink="http://www.w3.org/1999/xlink" width="19px" height="19px" xmlns="http://www.w3.org/2000/svg">
  <g transform="matrix(1 0 0 1 -406 -342 )">
    <path d="M 19 2.03573287671233  C 19 0.911479452054795  18.0885205479452 0  16.9642671232877 0  L 2.03573287671233 0  C 0.911479452054795 0  0 0.911479452054795  0 2.03573287671233  L 0 16.9642671232877  C 0 18.0885205479452  0.911479452054795 19  2.03573287671233 19  L 16.9642671232877 19  C 18.0885205479452 19  19 18.0885205479452  19 16.9642671232877  L 19 2.03573287671233  Z M 16.2935410958904 12.8834315068493  C 16.2927602739726 12.9314520547945  16.2871643835616 12.9793424657534  16.2770136986301 13.0263219178082  L 15.640904109589 15.7830136986301  C 15.574404109589 16.0716575342466  15.3175136986301 16.276102739726  15.0213219178082 16.2762328767123  C 8.23558904109589 16.2762328767123  2.72220547945205 10.7750821917808  2.72220547945205 3.97711643835617  C 2.73261643835616 3.68456849315069  2.93276712328767 3.43314383561644  3.21542465753425 3.35753424657534  L 5.97211643835616 2.72142465753425  C 6.01909589041096 2.71153424657534  6.06698630136986 2.70593835616438  6.11500684931507 2.70489726027397  C 6.3655205479452 2.71752054794521  6.58948630136986 2.86509589041096  6.69984246575342 3.09036301369863  L 7.97219178082192 6.05917808219178  C 8.00329452054794 6.13921232876712  8.02073287671233 6.22393150684931  8.02346575342466 6.30982191780822  C 8.01305479452055 6.4981301369863  7.92937671232877 6.67485616438356  7.7902602739726 6.8022602739726  L 6.18332876712329 8.11690410958904  C 7.15701369863014 10.1806164383562  8.81795205479452 11.8415547945205  10.8815342465753 12.8151095890411  L 12.1963082191781 11.2081780821918  C 12.3235821917808 11.0690616438356  12.5004383561644 10.9852534246575  12.6887465753425 10.9749726027397  C 12.7746369863014 10.9777054794521  12.8593561643836 10.9951438356164  12.9393904109589 11.0262465753425  L 15.9080753424658 12.298595890411  C 16.1334726027397 12.4088219178082  16.2811780821918 12.6327876712329  16.2935410958904 12.8834315068493  Z " fill-rule="nonzero" fill="#2e3d47" stroke="none" fill-opacity="0.501960784313725" transform="matrix(1 0 0 1 406 342 )" />
  </g>
</svg>