<?xml version="1.0" encoding="utf-8"?>
<svg version="1.1" xmlns:xlink="http://www.w3.org/1999/xlink" width="19px" height="14px" xmlns="http://www.w3.org/2000/svg">
  <g transform="matrix(1 0 0 1 -511 -344 )">
    <path d="M 12.9251953125 8.76822916666667  C 16.7103515625 6.06666666666667  17.8087890625 5.25729166666667  18.6400390625 4.62291666666667  C 18.784765625 4.50989583333333  19 4.615625  19 4.79427083333333  L 19 12.25  C 19 13.2165104166667  18.20251953125 14  17.21875 14  L 1.78125 14  C 0.79748046875 14  0 13.2165104166667  0 12.25  L 0 4.79791666666667  C 0 4.615625  0.2115234375 4.51354166666667  0.3599609375 4.6265625  C 1.1912109375 5.2609375  2.293359375 6.06666666666667  6.078515625 8.76822916666667  C 6.8615234375 9.3296875  8.1826171875 10.5109375  9.5 10.5036458333333  C 10.8248046875 10.5145833333333  12.171875 9.3078125  12.9251953125 8.76822916666667  Z M 9.5 9.33333333333333  C 10.3609375 9.34791666666666  11.600390625 8.26875  12.223828125 7.82395833333333  C 17.1482421875 4.31302083333333  17.523046875 4.00677083333333  18.65859375 3.13177083333333  C 18.873828125 2.96770833333333  19 2.7125  19 2.44270833333333  L 19 1.75  C 19 0.783489583333333  18.20251953125 0  17.21875 0  L 1.78125 0  C 0.79748046875 0  0 0.783489583333333  0 1.75  L 0 2.44270833333333  C 0 2.7125  0.126171875 2.9640625  0.34140625 3.13177083333333  C 1.476953125 4.003125  1.8517578125 4.31302083333333  6.776171875 7.82395833333333  C 7.399609375 8.26875  8.6390625 9.34791666666666  9.5 9.33333333333333  Z " fill-rule="nonzero" fill="#2e3d47" stroke="none" fill-opacity="0.501960784313725" transform="matrix(1 0 0 1 511 344 )" />
  </g>
</svg>