<?xml version="1.0" encoding="utf-8"?>
<svg version="1.1" xmlns:xlink="http://www.w3.org/1999/xlink" width="180px" height="40px" xmlns="http://www.w3.org/2000/svg">
  <defs>
    <mask fill="white" id="clip3">
      <path d="M 0 35  L 0 5  C 0 2.20000000000005  2.20000000000005 0  5 0  L 175 0  C 177.8 0  180 2.20000000000005  180 5  L 180 35  C 180 37.8  177.8 40  175 40  L 5 40  C 2.20000000000005 40  0 37.8  0 35  Z " fill-rule="evenodd" />
    </mask>
  </defs>
  <g transform="matrix(1 0 0 1 -585 -470 )">
    <path d="M 0 35  L 0 5  C 0 2.20000000000005  2.20000000000005 0  5 0  L 175 0  C 177.8 0  180 2.20000000000005  180 5  L 180 35  C 180 37.8  177.8 40  175 40  L 5 40  C 2.20000000000005 40  0 37.8  0 35  Z " fill-rule="nonzero" fill="#ffffff" stroke="none" transform="matrix(1 0 0 1 585 470 )" />
    <path d="M 0 35  L 0 5  C 0 2.20000000000005  2.20000000000005 0  5 0  L 175 0  C 177.8 0  180 2.20000000000005  180 5  L 180 35  C 180 37.8  177.8 40  175 40  L 5 40  C 2.20000000000005 40  0 37.8  0 35  Z " stroke-width="2" stroke="#aaaaaa" fill="none" transform="matrix(1 0 0 1 585 470 )" mask="url(#clip3)" />
  </g>
</svg>