<?xml version="1.0" encoding="utf-8"?>
<svg version="1.1" xmlns:xlink="http://www.w3.org/1999/xlink" width="12px" height="11px" xmlns="http://www.w3.org/2000/svg">
  <g transform="matrix(1 0 0 1 -1119 -520 )">
    <path d="M 11.9990388466159 1.37472967561073  C 12 0.753824589507408  11.4963556267521 0.250180216259511  10.8754505406488 0.250180216259511  L 1.12454945935122 0.250180216259511  C 0.503644373247898 0.250180216259511  0 0.753824589507408  0 1.37472967561073  L 0 9.62430917100521  C 0 10.2452142571085  0.503644373247898 10.7488586303564  1.12454945935122 10.7488586303564  L 10.8744893872647 10.7488586303564  C 11.495394473368 10.7488586303564  11.9990388466159 10.2452142571085  11.9990388466159 9.62430917100521  L 11.9990388466159 1.37472967561073  Z M 10.8754505406488 9.48494193031638  C 10.8754505406488 9.56183420104125  10.8120144173008 9.62527032438927  10.7351221465759 9.62527032438927  L 1.26583900680817 9.62527032438927  C 1.1889467360833 9.62527032438927  1.12551061273528 9.56183420104125  1.12551061273528 9.48494193031638  L 1.12551061273528 1.51601922306768  C 1.12551061273528 1.43912695234281  1.1889467360833 1.37569082899479  1.26583900680817 1.37569082899479  L 10.7341609931918 1.37569082899479  C 10.8110532639167 1.37569082899479  10.8744893872647 1.43912695234281  10.8744893872647 1.51601922306768  L 10.8744893872647 9.48494193031638  Z M 8.35530636764117 4.06115338406087  L 6.91645975170204 5.5  L 8.35530636764117 6.93884661593913  C 8.46295554665599 7.04649579495394  8.46295554665599 7.22238686423708  8.35530636764117 7.33291950340409  L 7.83243892671205 7.8557869443332  C 7.72478974769724 7.96343612334802  7.5488986784141 7.96343612334802  7.4383660392471 7.8557869443332  L 6.00048057669203 6.41694032839407  L 4.56067280736884 7.8557869443332  C 4.45302362835403 7.96343612334802  4.27713255907089 7.96343612334802  4.16659991990389 7.8557869443332  L 3.64469363235883 7.33291950340409  C 3.53704445334401 7.22527032438927  3.53704445334401 7.04937925510613  3.64469363235883 6.93884661593913  L 5.08354024829796 5.5  L 3.64469363235883 4.06115338406087  C 3.53704445334401 3.95350420504605  3.53704445334401 3.77761313576292  3.64469363235883 3.66708049659591  L 4.16756107328795 3.1442130556668  C 4.27521025230276 3.03656387665198  4.4511013215859 3.03656387665198  4.5616339607529 3.1442130556668  L 6.00048057669203 4.58305967160593  L 7.43932719263116 3.14517420905086  C 7.54697637164598 3.03752503003604  7.72286744092912 3.03752503003604  7.83340008009612 3.14517420905086  L 8.35626752102523 3.66804164997998  C 8.46583900680817 3.77472967561073  8.46583900680817 3.95062074489387  8.35530636764117 4.06115338406087  Z " fill-rule="nonzero" fill="#ffffff" stroke="none" transform="matrix(1 0 0 1 1119 520 )" />
  </g>
</svg>