<?xml version="1.0" encoding="utf-8"?>
<svg version="1.1" xmlns:xlink="http://www.w3.org/1999/xlink" width="22px" height="17px" xmlns="http://www.w3.org/2000/svg">
  <g transform="matrix(1 0 0 1 -250 -36 )">
    <path d="M 21.3953272760986 12.2635824216577  C 21.3953272760986 14.4263860559985  19.643055813091 16.1886704987947  17.4702391989616 16.1886704987947  L 14.0357871314667 16.1886704987947  C 13.7654366771741 16.1886704987947  13.5451511218246 15.9683849434452  13.5451511218246 15.6980344891526  L 13.5451511218246 14.0659187836084  C 13.5451511218246 13.7955683293158  13.7654366771741 13.5752827739663  14.0357871314667 13.5752827739663  L 17.4702391989616 13.5752827739663  C 18.1911737437419 13.5752827739663  18.7819395512702 12.9945299462266  18.7819395512702 12.2635824216577  L 18.7819395512702 4.41340626738365  C 18.7819395512702 3.69247172260338  18.2011867235305 3.1017059150751  17.4702391989616 3.1017059150751  L 14.0357871314667 3.1017059150751  C 13.7654366771741 3.1017059150751  13.5451511218246 2.88142035972557  13.5451511218246 2.61106990543297  L 13.5451511218246 0.978954199888746  C 13.5451511218246 0.708603745596144  13.7654366771741 0.488318190246617  14.0357871314667 0.488318190246617  L 17.4702391989616 0.488318190246617  C 19.6330428333024 0.488318190246617  21.3953272760986 2.25060263304283  21.3953272760986 4.41340626738365  L 21.3953272760986 12.2635824216577  Z M 15.5377340997589 9.34980530317078  C 15.9282403115149 8.96931207120341  15.9282403115149 8.34850732430929  15.5477470795476 7.96801409234192  L 8.67884294455776 1.09910995735212  C 8.06805117745225 0.488318190246617  7.00667531985908 0.918876321157056  7.00667531985908 1.79000556276655  L 7.00667531985908 5.71509363990358  L 1.43945855738921 5.71509363990358  C 0.898757648804004 5.71509363990358  0.458186538104947 6.15566475060263  0.458186538104947 6.69636565918784  L 0.458186538104947 10.6214537363249  C 0.458186538104947 11.1621546449101  0.898757648804004 11.6027257556091  1.43945855738921 11.6027257556091  L 6.99666234007046 11.6027257556091  L 6.99666234007046 15.5278138327462  C 6.99666234007046 16.4089560541443  8.05803819766363 16.8395141850547  8.66882996476914 16.2187094381606  L 15.5377340997589 9.34980530317078  Z " fill-rule="nonzero" fill="#f7f7f7" stroke="none" transform="matrix(1 0 0 1 250 36 )" />
  </g>
</svg>