<?xml version="1.0" encoding="utf-8"?>
<svg version="1.1" xmlns:xlink="http://www.w3.org/1999/xlink" width="15px" height="20px" xmlns="http://www.w3.org/2000/svg">
  <g transform="matrix(1 0 0 1 -1728 -36 )">
    <path d="M 15 0.9375  C 15 0.4197265625  14.5802734375 0  14.0625 0  L 0.9375 0  C 0.4197265625 0  0 0.4197265625  0 0.9375  L 0 1.5625  C 0 2.0802734375  0.4197265625 2.5  0.9375 2.5  C 0.9375 6.0533203125  2.9303125 9.052109375  5.657890625 10  C 2.9303125 10.947890625  0.9375 13.9466796875  0.9375 17.5  C 0.4197265625 17.5  0 17.9197265625  0 18.4375  L 0 19.0625  C 0 19.5802734375  0.4197265625 20  0.9375 20  L 14.0625 20  C 14.5802734375 20  15 19.5802734375  15 19.0625  L 15 18.4375  C 15 17.9197265625  14.5802734375 17.5  14.0625 17.5  C 14.0625 13.9466796875  12.0696875 10.947890625  9.342109375 10  C 12.0696875 9.052109375  14.0625 6.0533203125  14.0625 2.5  C 14.5802734375 2.5  15 2.0802734375  15 1.5625  L 15 0.9375  Z M 7.5 11.875  C 9.0945703125 11.875  10.463359375 13.17171875  11.129765625 15  L 3.8703125 15  C 4.5366796875 13.1719921875  5.9053125 11.875  7.5 11.875  Z M 11.5625 2.5  C 11.5625 3.3908203125  11.4067578125 4.2416796875  11.1305078125 5  L 3.870234375 5  C 3.59328125 4.24015625  3.4375 3.38859375  3.4375 2.5  L 11.5625 2.5  Z " fill-rule="nonzero" fill="#ffffff" stroke="none" transform="matrix(1 0 0 1 1728 36 )" />
  </g>
</svg>