<?xml version="1.0" encoding="utf-8"?>
<svg version="1.1" xmlns:xlink="http://www.w3.org/1999/xlink" width="40px" height="15px" xmlns="http://www.w3.org/2000/svg">
  <g transform="matrix(1 0 0 1 -70 -32 )">
    <path d="M 39.2827571019599 7.01706672539088  C 39.2827571019599 5.88636864126844  38.8318652279234 4.81512882624973  37.8418850473464 4.05307201057036  C 35.3862585333627 2.13256991852015  29.7109667474125 0.692688835058357  23.3578506936798 0.270535124421933  C 22.2281435807091 0.181347720766351  21.0696983043383 0.125853336269544  19.9112530279674 0.125853336269544  C 18.839022241797 0.125853336269544  17.7945386478749 0.181347720766351  16.7500550539529 0.238824047566615  C 10.2839682889231 0.635212508258093  4.46696762827571 2.10482272627175  1.98260295089187 4.05307201057036  C 0.993613741466632 4.81512882624973  0.541730896278347 5.88636864126844  0.541730896278347 7.01706672539088  C 0.541730896278347 7.94758863686413  0.711186963223954 8.82459810614402  1.55945826910372 9.58566395067166  C 3.84661968729354 11.6756221096675  10.5168465095794 13.675401893856  16.7500550539529 14.3274609116935  C 17.823276811275 14.4434045364457  18.8964985685972 14.4988989209425  19.9112530279674 14.4988989209425  C 21.0132129486897 14.4988989209425  22.199405417309 14.4146663730456  23.3578506936798 14.3016956617485  C 29.5137634882185 13.6793657784629  36.0085884166483 11.6468839462673  38.2382735080379 9.58566395067166  C 39.0855538427659 8.82459810614402  39.2827571019599 7.9465976657124  39.2827571019599 7.01706672539088  Z M 33.069367980621 7.24300814798503  C 33.069367980621 7.94758863686413  32.8176613080819 8.93558687513764  32.2260515304999 9.61341114292006  C 30.7831975335829 11.2802246201277  27.5377670116714 12.7201057035895  23.3578506936798 13.2582030389782  C 22.2846289363576 13.3959480290685  21.1271746311385 13.4831534904206  19.9112530279674 13.4831534904206  C 18.8112750495486 13.4831534904206  17.7370623210746 13.4009028848271  16.7500550539529 13.2859502312266  C 12.4294208324158 12.7756000880863  9.07101959920722 11.3357190046245  7.57465316009689 9.61341114292006  C 7.00880863245981 8.93558687513764  6.75710195992072 7.94758863686413  6.75710195992072 7.24300814798503  C 6.75710195992072 6.4789693900022  7.06628495926007 5.26502972913455  8.25148645672759 4.36324598106144  C 9.83307641488659 3.14732437789033  12.9149966967628 1.9165382074433  16.7500550539529 1.36853116053733  C 17.7380532922264 1.22880422814358  18.8112750495486 1.17330984364677  19.9112530279674 1.14258973794319  C 21.0974454965867 1.17330984364677  22.2548998018058 1.267452103061  23.3578506936798 1.42798942964105  C 27.0551640607796 1.96311385157454  30.0221316890553 3.17606254129047  31.5749834838141 4.36324598106144  C 32.7601849812817 5.26502972913455  33.069367980621 6.4789693900022  33.069367980621 7.24300814798503  Z " fill-rule="nonzero" fill="#e62310" stroke="none" transform="matrix(1 0 0 1 70 32 )" />
  </g>
</svg>