<?xml version="1.0" encoding="utf-8"?>
<svg version="1.1" xmlns:xlink="http://www.w3.org/1999/xlink" width="10px" height="11px" xmlns="http://www.w3.org/2000/svg">
  <g transform="matrix(1 0 0 1 -85 -34 )">
    <path d="M 9.82646994054172 8.27736181457829  L 8.3578506936798 8.30411803567496  L 8.30136533803127 8.30411803567496  C 8.13190927108566 8.22087645892975  8.04767672318873 8.10691477648095  8.01992953094032 7.85421713279013  L 8.01992953094032 5.9604712618366  L 9.76899361374147 5.9604712618366  L 9.76899361374147 3.92997137194451  L 8.35785069367981 3.92997137194451  L 6.12717463113852 3.9022241796961  L 6.15591279453865 0.31490861043823  L 3.86875137634882 0.31490861043823  L 3.86875137634882 3.9022241796961  L 1.75005505395287 3.92997137194451  L 0.112970711297068 3.92997137194451  L 0.112970711297068 5.9604712618366  L 1.86302576524994 5.9604712618366  C 1.83527857300154 6.35983263598327  1.80753138075314 6.80973353886809  1.80753138075314 7.17639286500771  C 1.77780224620128 7.28936357630478  1.77780224620128 7.40233428760185  1.7510460251046 7.51629597005065  C 1.66582250605594 7.85520810394186  1.55384276591059 8.19412023783308  1.38438669896498 8.53303237172429  C 1.07322175732218 9.01068046685752  0.762056815679365 9.4348161197974  0.451882845188283 9.91642809953755  C 0.42413565293988 10.1701167143801  0.679806210085882 10.1701167143801  0.790794979079497 10.14137855098  C 1.18520149746752 9.94318432063422  1.4676282757102 9.77471922484034  1.7510460251046 9.57850693679806  C 2.03248183219555 9.38130367760405  2.31689055274169 9.18211847610658  2.65481171548117 8.92743889011231  C 3.10669456066946 8.5885267562211  3.55758643470601 7.99592600748734  3.81226602070029 7.57079938339573  C 4.06694560669456 7.17639286500771  4.2651398370403 6.92171327901343  4.46234309623431 6.35983263598327  L 4.54657564413125 5.988218454085  L 5.45034133450782 5.95948029068487  L 5.6743008147985 6.1021801365338  L 5.64853556485355 9.23761286060339  C 5.73177714159876 9.68850473463995  6.07068927548998 9.99867870513103  6.29762166923585 10.0561550319313  L 7.67903545474565 10.1106584452764  L 8.3578506936798 10.0858841664832  L 8.75324818321955 10.057146003083  C 9.48656683549878 9.60526315789474  9.68476106584453 9.18112750495486  9.82646994054172 8.27736181457829  Z M 0.42314468178815 1.75578066505175  C 0.593591719885483 2.2928870292887  1.21393966086764 2.65756441312486  1.75005505395287 2.88548777802246  C 1.97500550539529 2.99944946047126  2.23166703369302 3.08269103721647  2.40112310063862 3.16692358511341  C 2.56859722528078 3.22340894076195  2.93624752257212 3.30863245981061  3.02048007046906 3.16692358511341  C 3.16119797401453 2.88548777802246  3.07696542611759 2.51783748073112  3.02048007046906 2.20667253908831  C 2.93624752257212 1.78550979960361  2.71030609997798 1.41785950231227  2.45661748513543 1.05020920502092  C 2.2861704470381 0.825258753578507  2.03149086104382 0.571570138735961  1.75005505395287 0.456617485135432  C 1.72230786170447 0.456617485135432  1.69456066945607 0.4278793217353  1.66483153490421 0.4278793217353  C 1.41114292006166 0.345628716141818  1.07322175732218 0.345628716141818  0.874036555824707 0.512111869632239  C 0.562871614181896 0.793547676723188  0.253688614842545 1.27615062761506  0.42314468178815 1.75578066505175  Z M 6.97445496586655 3.33637965205902  C 7.2558907729575 3.36313587315569  7.56606474344858 3.33538868090729  7.82173530059458 3.28088526756221  C 8.01893855978859 3.25313807531381  8.18740365558247 3.22340894076195  8.3578506936798 3.13719445056155  C 8.61153930852235 3.05494384496807  8.86621889451663 2.91224399911914  9.14765470160757 2.74377890332526  C 9.34584893195331 2.57333186522792  9.51530499889892 2.40387579828232  9.68476106584453 2.17991631799163  C 9.76800264258974 1.78550979960361  9.76800264258974 1.50308302136093  9.68476106584453 1.16218894516626  C 9.48656683549879 0.992732878220656  9.34584893195332 0.853005945826911  9.0931512882625 0.739044263378111  C 8.83847170226822 0.683549878881303  8.61153930852235 0.653820744329443  8.3578506936798 0.739044263378111  C 8.2161418189826 0.794538647874917  8.0744329442854 0.908500330323717  7.93371504073992 1.07894736842105  C 7.34111429200616 1.78550979960361  6.97445496586655 2.34937238493724  6.97445496586655 3.33637965205902  Z " fill-rule="nonzero" fill="#e62310" stroke="none" transform="matrix(1 0 0 1 85 34 )" />
  </g>
</svg>