<?xml version="1.0" encoding="utf-8"?>
<svg version="1.1" xmlns:xlink="http://www.w3.org/1999/xlink" width="9px" height="9px" xmlns="http://www.w3.org/2000/svg">
  <g transform="matrix(1 0 0 1 -100 -48 )">
    <path d="M 3.82151508478309 3.39826029508919  L 3.82151508478308 2.41521691257432  C 3.82151508478308 2.33593922043603  3.91070248843867 2.22395948029068  3.99196212288042 2.22395948029068  L 6.98073111649416 2.22395948029068  C 7.06199075093591 2.22395948029068  7.15316009689494 2.33593922043602  7.15316009689494 2.41521691257432  L 7.15316009689494 3.39826029508919  L 8.07872715260955 3.39826029508919  L 8.07872715260955 2.25765249944946  C 8.07872715260955 1.90387579828232  7.86071349922923 1.47676723188725  7.27901343316449 1.47676723188725  L 6.0184981281656 1.47676723188725  C 5.90354547456506 1.24587095353446  5.77571019599207 0.940651838802026  5.7043602730676 0.686963223959481  L 4.592490640828 0.686963223959481  C 4.66384056375247 0.917859502312268  4.79861264038757 1.24190706892755  4.90266461131909 1.47676723188725  L 3.69268883505836 1.47676723188725  C 3.11297071129707 1.47676723188725  2.89396608676503 1.90288482713059  2.89396608676503 2.25765249944946  L 2.89396608676503 3.39826029508919  L 3.82151508478309 3.39826029508919  Z M 4.28231667033693 2.76602070028628  C 4.17925567055715 4.15536225500991  3.28143580709094 4.80543933054394  3.03369301915877 4.99372384937239  L 4.2951992953094 4.99372384937239  C 4.84320634221536 4.58247082140498  5.24256771636203 3.70050649636644  5.27031490861044 2.76602070028628  L 4.28231667033693 2.76602070028628  Z M 5.71526095573662 2.76602070028628  L 5.71526095573662 4.10482272627175  C 5.71526095573662 4.70535124421934  6.12453204140056 4.9699405417309  6.64082801145121 4.9699405417309  L 7.84485796080158 4.9699405417309  L 8.06980841224399 4.23364897599648  L 6.92127284739043 4.23364897599648  C 6.78451882845188 4.23364897599648  6.70821404976876 4.15635322616165  6.70821404976876 4.04040960140939  L 6.70821404976876 2.76502972913456  L 5.71526095573662 2.76502972913456  Z M 2.74730235630918 4.91543712838582  L 2.74730235630918 4.08004844747853  C 2.55802686632899 4.17022682228584  2.29641048227263 4.2931072451002  2.08632459810614 4.38031270645233  L 2.08632459810614 2.99493503633561  L 2.61649416428099 2.99493503633561  L 2.61649416428099 2.21900462453204  L 2.08632459810614 2.21900462453204  L 2.08632459810614 0.689936137414669  L 1.04283197533583 0.689936137414669  L 1.04283197533583 2.21801365338032  L 0.212398150187177 2.21801365338032  L 0.204470380973348 2.99394406518389  L 1.04283197533583 2.99394406518389  L 1.04283197533583 4.82327681127506  C 0.767341995155249 4.93228363796521  0.410592380532915 5.05020920502093  0.120237833076409 5.13642369522132  L 0.120237833076409 5.99163179916319  C 0.377890332525872 5.90541730896279  0.743558687513758 5.78055494384497  1.04283197533583 5.66461131909272  L 1.04283197533583 7.62673419951553  C 1.04283197533583 7.76051530499891  0.936798062100856 7.82790134331646  0.821845408500327 7.82790134331646  L 0.21239815018718 7.82790134331646  L 0.455186082360711 8.56716582250606  L 1.26679145562651 8.56716582250606  C 1.79398810834618 8.56716582250606  2.08632459810614 8.13906628495927  2.08632459810614 7.78826249724731  L 2.08632459810614 5.19687293547677  C 2.29046465536226 5.11660427218674  2.53424355868751 5.02048007046906  2.74730235630918 4.91543712838582  Z M 8.11539308522351 7.83087425677164  L 5.94318432063422 7.83087425677164  L 5.94318432063422 6.14622329883286  L 7.88053292226381 6.14622329883286  L 7.88053292226381 5.40002202158115  L 3.02378330764147 5.40002202158115  L 3.02378330764147 6.14622329883286  L 4.7996036115393 6.14622329883286  L 4.7996036115393 7.83087425677164  L 2.6789253468399 7.83087425677164  L 2.6789253468399 8.5721206782647  L 8.11539308522351 8.5721206782647  L 8.11539308522351 7.83087425677164  Z " fill-rule="nonzero" fill="#ffffff" stroke="none" transform="matrix(1 0 0 1 100 48 )" />
  </g>
</svg>