<?xml version="1.0" encoding="utf-8"?>
<svg version="1.1" xmlns:xlink="http://www.w3.org/1999/xlink" width="9px" height="9px" xmlns="http://www.w3.org/2000/svg">
  <g transform="matrix(1 0 0 1 -90 -48 )">
    <path d="M 5.72131689055274 7.47808852675622  L 6.88174410922704 7.47808852675622  C 7.11957718564192 6.91620788372605  7.32569918520149 6.35234529839243  7.4812816560229 5.75478969390002  L 6.41995155252147 5.75478969390002  C 6.24454965866549 6.35730015415107  6.04932834177493 6.93404536445717  5.72131689055274 7.47808852675622  Z M 3.63135873155693 7.47808852675622  C 3.33604932834177 6.91620788372605  3.08731556925787 6.3582911253028  2.90200396388461 5.75478969390002  L 1.80202598546575 5.75478969390002  C 1.99130147544593 6.3513543272407  2.20039638846069 6.91521691257432  2.45606694560669 7.47808852675622  L 3.63135873155693 7.47808852675622  Z M 5.27240695881964 5.39209425236732  L 8.30477868310944 5.39209425236732  L 8.30477868310944 4.61319092710857  L 5.27240695881964 4.61319092710857  L 5.27240695881964 3.56672539088306  L 6.61715481171548 3.56672539088306  L 6.61715481171548 2.8978198634662  C 6.97985025324818 3.33483814137855  7.15128826249725 3.52411363135873  7.30092490640828 3.66780444835939  L 8.74476987447699 3.66780444835939  C 8.0164060779564 2.95034133450782  7.28011451222197 2.14071790354548  6.74399911913676 1.34298612640388  C 6.65282977317771 1.21118696322396  6.4001321294869 0.815789473684212  5.89176392865008 0.815789473684212  L 3.39253468399031 0.815789473684212  C 2.88713939660868 0.815789473684212  2.63146883946267 1.21118696322396  2.54029949350364 1.34298612640388  C 2.00517507157014 2.14071790354548  1.26888350583572 2.94935036335609  0.54151068046686 3.66780444835939  L 1.98535564853557 3.66780444835939  C 2.13400132129487 3.52510460251046  2.31039418630258 3.33880202598547  2.66813477207664 2.90872054613522  L 2.66813477207664 3.56573441973134  L 4.01288262497248 3.56573441973134  L 4.01288262497248 4.61219995595684  L 0.978528958379215 4.61219995595684  L 0.978528958379215 5.3911032812156  L 4.01288262497248 5.3911032812156  L 4.01288262497248 7.78826249724731  L 0.719885487778026 7.78826249724731  L 0.719885487778026 8.56716582250607  L 8.5654040960141 8.56716582250607  L 8.5654040960141 7.78826249724731  L 5.27339792997137 7.78826249724731  L 5.27339792997137 5.39209425236732  Z M 6.52499449460471 2.78584012332086  L 2.76921382955296 2.78584012332086  C 2.98425456947809 2.52620568156794  3.25677163620348 2.18927548998018  3.61550319312926 1.74135652939881  C 3.69378991411583 1.64523232768113  3.75919401012992 1.58973794318432  3.91774939440651 1.58973794318432  L 5.38042281435807 1.58973794318432  C 5.53897819863466 1.58973794318432  5.60636423695221 1.64523232768113  5.68266901563532 1.74135652939881  C 6.04040960140938 2.18927548998019  6.31193569698304 2.52521471041621  6.52499449460471 2.78584012332086  Z " fill-rule="nonzero" fill="#ffffff" stroke="none" transform="matrix(1 0 0 1 90 48 )" />
  </g>
</svg>