<?xml version="1.0" encoding="utf-8"?>
<svg version="1.1" xmlns:xlink="http://www.w3.org/1999/xlink" width="9px" height="9px" xmlns="http://www.w3.org/2000/svg">
  <g transform="matrix(1 0 0 1 -71 -48 )">
    <path d="M 1.33340673860383 5.71614181898261  C 1.21647214269984 6.37414666373046  0.919180797181232 7.7327681127505  0.710085884166478 8.30554943844968  L 1.67727372825368 8.30554943844968  C 1.93393525655142 7.47115172869412  2.10636423695221 6.58423254789694  2.23023563091829 5.71614181898261  L 1.33340673860383 5.71614181898261  Z M 4.9623430962343 5.35741026205682  L 4.9623430962343 4.60328121559128  L 3.5254349262277 4.60328121559128  L 3.5254349262277 4.00473463994715  L 4.96630698084122 4.00473463994715  L 4.96630698084122 3.25060559348162  L 4.24983483814137 3.25060559348162  C 4.34794098216251 2.91070248843867  4.45199295309403 2.50143140277472  4.52433384717022 2.16152829773178  L 4.89099317330984 2.16152829773178  L 4.89099317330984 1.40839022241797  L 3.49768773397929 1.40839022241797  C 3.40651838802025 1.1883946267342  3.29652059017837 0.873265800484479  3.24300814798502 0.671107685531823  L 2.1856419290905 0.671107685531823  C 2.24609116934595 0.897049108125966  2.33924245760845 1.1814578286721  2.42644791896058 1.40839022241797  L 1.06485355648535 1.40839022241797  L 1.06485355648535 2.16152829773178  L 1.4394406518388 2.16152829773178  C 1.50979960361153 2.50143140277472  1.60592380532922 2.91070248843867  1.70006606474344 3.25060559348162  L 0.98953974895397 3.25060559348162  L 0.98953974895397 4.00473463994715  L 2.48491521691257 4.00473463994715  L 2.48491521691257 4.60328121559128  L 0.98953974895397 4.60328121559128  L 0.98953974895397 5.35741026205682  L 2.48491521691257 5.35741026205682  L 2.48491521691257 8.56121999559569  L 3.5254349262277 8.56121999559569  L 3.5254349262277 5.35741026205682  L 4.9623430962343 5.35741026205682  Z M 3.63444175291785 2.16053732658005  C 3.57300154151067 2.47170226822286  3.46795859942743 2.91367540189385  3.37480731116494 3.24961462232989  L 2.57509359171988 3.24961462232989  C 2.48491521691257 2.91367540189386  2.38879101519489 2.47170226822286  2.33032371724289 2.16053732658005  L 3.63444175291785 2.16053732658005  Z M 6.43591719885487 3.26844307421273  L 6.43591719885487 2.1208984805109  C 6.43591719885487 2.02477427879322  6.49834838141378 1.94549658665492  6.60240035234529 1.92964104822726  C 7.348601629597 1.83153490420612  7.93822946487557 1.70766351024003  8.65965646333406 1.50748733759084  L 8.65965646333406 0.760295089187402  C 7.80742127284739 0.944615723408941  6.80554943844968 1.12001761726492  5.92061219995595 1.25181678044483  C 5.76998458489319 1.26965426117595  5.6461131909271 1.34100418410042  5.54998898920942 1.44604712618366  C 5.44395507597445 1.57784628936357  5.38251486456727 1.73541070248844  5.38251486456727 1.91081259634442  L 5.38251486456727 5.57344197313367  C 5.38251486456727 6.63477207663511  5.19720325919401 7.81303677604052  4.69775379872275 8.56121999559569  L 5.83043382514864 8.56121999559569  C 6.32889231446818 7.61682448799824  6.43591719885487 6.22847390442634  6.43591719885487 5.02147104162079  L 6.43591719885487 4.02059017837481  L 7.22869412023783 4.02059017837481  L 7.22869412023783 8.56121999559569  L 8.27218674300814 8.56121999559569  L 8.27218674300814 4.02059017837481  L 8.76569037656903 4.02059017837481  L 8.76569037656903 3.267452103061  L 6.43591719885487 3.267452103061  Z M 4.93261396168244 7.7188945166263  C 4.78892314468178 7.15404096014094  4.685862144902 6.30378771195772  4.63829552961902 5.71614181898261  L 3.7741686853116 5.71614181898261  C 3.82074432944285 6.29189605813698  3.90695881964325 7.13719445056156  4.03281215591279 7.7188945166263  L 4.93261396168244 7.7188945166263  Z " fill-rule="nonzero" fill="#ffffff" stroke="none" transform="matrix(1 0 0 1 71 48 )" />
  </g>
</svg>