<?xml version="1.0" encoding="utf-8"?>
<svg version="1.1" xmlns:xlink="http://www.w3.org/1999/xlink" width="9px" height="9px" xmlns="http://www.w3.org/2000/svg">
  <g transform="matrix(1 0 0 1 -81 -48 )">
    <path d="M 6.68850473463995 3.46465536225501  C 7.13543272406959 2.72539088306541  7.42776921382955 1.91180356749615  7.64974675181678 1.10019819423035  L 6.53589517727373 1.10019819423035  C 6.27725170667254 1.92964104822726  5.99185201497468 2.74025545034134  5.46762827571019 3.46465536225501  L 6.68850473463995 3.46465536225501  Z M 1.82977317771416 3.46465536225501  L 3.01992953094032 3.46465536225501  C 2.546245320414 2.72539088306541  2.20039638846069 1.91180356749615  1.92193349482492 1.10019819423035  L 0.811054833737057 1.10019819423035  C 1.09348161197974 1.89594802906849  1.38780004404316 2.71746311385158  1.82977317771416 3.46465536225501  Z M 6.38427659105923 7.75258753578507  C 6.21085663950671 7.75258753578507  6.09094913014754 7.63069808412244  6.09094913014754 7.46322395948029  L 6.09094913014754 4.72219775379872  L 8.13334067386038 4.72219775379872  L 8.13334067386038 3.92446597665713  L 4.82052411363135 3.92446597665713  L 4.82052411363135 0.654261175952435  L 3.61946707773618 0.654261175952435  L 3.61946707773618 3.92446597665713  L 0.26205681567936 3.92446597665713  L 0.26205681567936 4.72219775379872  L 2.3183219555164 4.72219775379872  C 2.45705791675842 7.16097775820304  0.898260295089184 8.09348161197974  0.0787271526095541 8.55725611098877  L 1.83571900462453 8.55725611098877  C 2.43525655142039 8.13708434265581  3.55406298172208 7.2630477868311  3.50055053952873 4.72219775379872  L 4.90178374807311 4.72219775379872  L 4.90178374807311 7.59006826690156  C 4.90178374807311 8.29167584232548  5.29817220876459 8.5582470821405  5.73816340013213 8.5582470821405  L 8.04514424135653 8.5582470821405  L 8.39000220215811 7.7535785069368  L 6.38427659105923 7.7535785069368  Z " fill-rule="nonzero" fill="#ffffff" stroke="none" transform="matrix(1 0 0 1 81 48 )" />
  </g>
</svg>