<?xml version="1.0" encoding="utf-8"?>
<svg version="1.1" xmlns:xlink="http://www.w3.org/1999/xlink" width="65px" height="15px" xmlns="http://www.w3.org/2000/svg">
  <g transform="matrix(1 0 0 1 -125 -32 )">
    <path d="M 7.74895397489539 12.5447038097335  C 7.49625633120458 11.5527416868531  7.3139176392865 10.0524113631359  7.23265800484474 9.01882845188285  L 5.70656243118255 9.01882845188285  C 5.78980400792777 10.0345738824048  5.94142259414226 11.5200396388461  6.16340013212948 12.5447038097335  L 7.74895397489539 12.5447038097335  Z M 10.3988108346179 2.68553182118476  C 10.3988108346179 2.51508478308743  10.5078176613081 2.37634882184541  10.6931292666813 2.34463774499009  C 12.0101299273288 2.17518167804448  13.0476767231887 1.95617705351244  14.3171107685532 1.60140938119357  L 14.3171107685532 0.28837260515305  C 12.8147985025325 0.613411142920062  11.0518608236071 0.923585113411143  9.49108125963443 1.15745430521911  C 9.22451001981941 1.18718343977098  9.00946927989428 1.31105483373706  8.83803127064522 1.49636643911033  C 8.65371063642367 1.72726271746311  8.5437128385818 2.00671658225061  8.5437128385818 2.3139176392865  L 8.5437128385818 8.77009469279894  C 8.5437128385818 10.6420391984144  8.21768332966305 12.7151508478309  7.33472803347279 14.0321515084783  L 9.33252587535785 14.0321515084783  C 10.208544373486 12.3693019158776  10.3988108346179 9.92358511341114  10.3988108346179 7.79497907949791  L 10.3988108346179 6.03204140057256  L 11.7950891874036 6.03204140057256  L 11.7950891874036 14.0311605373266  L 13.6343316450121 14.0311605373266  L 13.6343316450121 6.03204140057256  L 14.5024223739264 6.03204140057256  L 14.5024223739264 4.70414005725611  L 10.3978198634662 4.70414005725611  L 10.3978198634662 2.68553182118476  Z M 7.80246641708875 8.38559788592821  L 7.80246641708874 7.0557146003083  L 5.27152609557366 7.0557146003083  L 5.27152609557366 6.0023122660207  L 7.80940321515084 6.0023122660207  L 7.80940321515084 4.67341995155252  L 6.54789693900022 4.67341995155252  C 6.72329883285619 4.07586434706012  6.90365558247082 3.3534463774499  7.02950891874035 2.75489980180577  L 7.67661308081919 2.75489980180577  L 7.67661308081919 1.42798942964105  L 5.21999559568376 1.42798942964105  C 5.06144021140717 1.04051970931513  4.86621889451662 0.483593922043603  4.77306760625412 0.126844307421273  L 2.90905086985245 0.126844307421273  C 3.01805769654261 0.526205681567937  3.1835498788813 1.02862805549438  3.33417749394407 1.42798942964105  L 0.937018277912358 1.42798942964105  L 0.937018277912358 2.75489980180577  L 1.59898700726713 2.75489980180577  C 1.72186743008148 3.3534463774499  1.89132349702709 4.07586434706012  2.05681567936578 4.67341995155252  L 0.805219114732445 4.67341995155252  L 0.805219114732445 6.00330323717243  L 3.44021140717904 6.00330323717243  L 3.44021140717904 7.0557146003083  L 0.806210085884175 7.0557146003083  L 0.806210085884175 8.38559788592821  L 3.44021140717904 8.38559788592821  L 3.44021140717904 14.0321515084783  L 5.27152609557367 14.0321515084783  L 5.27152609557367 8.38559788592821  L 7.80246641708875 8.38559788592821  Z M 5.4627835278573 2.75489980180577  C 5.35476767231886 3.30191587756001  5.16945606694561 4.08081920281876  5.00396388460691 4.67341995155252  L 3.59678484915217 4.67341995155252  C 3.4392204360273 4.08081920281876  3.2697643690817 3.30290684871174  3.16670336930191 2.75489980180577  L 5.4627835278573 2.75489980180577  Z M 28.4612420171768 5.05296190266461  C 29.2500550539529 3.74785289583792  29.7613961682449 2.31689055274169  30.1548117154812 0.885928209645453  L 28.1926888350584 0.885928209645453  C 27.7378330764149 2.34661968729355  27.233428760185 3.77659105923805  26.3118255890773 5.05296190266461  L 28.4612420171768 5.05296190266461  Z M 19.906188064303 5.05197093151288  L 21.999119136754 5.05197093151288  C 21.1647214269985 3.74686192468619  20.5552741686853 2.31689055274169  20.0657344197313 0.884937238493724  L 18.1085663950672 0.884937238493724  C 18.606033913235 2.28716141818983  19.1223298832856 3.73199735741026  19.906188064303 5.05197093151288  Z M 1.40872054613521 9.01981942303457  C 1.20061660427218 10.176282757102  0.679365778462895 12.5724510019819  0.309733538868088 13.5782867209866  L 2.01420391984144 13.5782867209866  C 2.46608676502973 12.1096674741246  2.7722968509139 10.5488879101519  2.98733759083902 9.01981942303457  L 1.40872054613521 9.01981942303457  Z M 27.9251266240916 12.6081259634442  C 27.6208984805109 12.6081259634442  27.4078396828892 12.3920942523673  27.4078396828892 12.0977758203039  L 27.4078396828892 7.26679145562651  L 31.0080378771196 7.26679145562651  L 31.0080378771196 5.86258533362696  L 25.1702268222858 5.86258533362696  L 25.1702268222858 0.0990971151728694  L 23.0554943844968 0.0990971151728694  L 23.0554943844968 5.86258533362695  L 17.1423695221317 5.86258533362695  L 17.1423695221317 7.26679145562651  L 20.7643690817001 7.26679145562651  C 21.0071570138736 11.5626513983704  18.2591940101299 13.2056815679366  16.8153490420612 14.0252147104162  L 19.9091609777582 14.0252147104162  C 20.9704910812596 13.2839682889231  22.9385597885928 11.7449900902885  22.8424355868751 7.26679145562651  L 25.3129266681348 7.26679145562651  L 25.3129266681348 12.3217353005946  C 25.3129266681348 13.5564853556485  26.0095793878 14.0252147104162  26.7845188284519 14.0252147104162  L 30.8524554062982 14.0252147104162  L 31.4589297511561 12.6081259634442  L 27.9251266240916 12.6081259634442  Z M 48.2400352345298 14.022241796961  C 45.5505395287382 11.6478749174191  43.5993173309844 8.97621669235851  42.464655362255 6.04888791015195  L 40.9236952213169 6.04888791015195  C 41.3260295089188 4.37414666373046  41.5351244219335 2.407068927549  41.4717022682229 0.0545034133450779  L 39.3886809072891 0.0545034133450779  C 39.5858841664831 7.99317330984365  36.3622550099097 11.1523893415547  33.2040299493504 14.0192688835058  L 35.9430742127285 14.0192688835058  C 37.8070909491301 12.4158775600088  39.5759744549658 10.4071790354547  40.5937018277912 7.23607134992293  C 41.2834177493944 8.76414886588857  42.7490640828011 11.5180576965426  45.2383836159436 14.022241796961  L 48.2400352345298 14.022241796961  Z M 60.6271746311385 12.6973133670998  L 60.1088967187844 11.6458929751156  L 57.5383175512002 11.6458929751156  L 58.0526315789474 12.6973133670998  L 60.6271746311385 12.6973133670998  Z M 63.291896058137 9.72043602730676  L 64.4582691037217 9.72043602730676  L 64.4582691037217 8.58280114512222  L 50.3626954415327 8.58280114512222  L 50.3626954415327 9.72043602730676  L 61.5765249944946 9.72043602730676  L 61.5765249944946 10.1951112089848  L 57.4600308302136 10.1951112089848  L 57.4600308302136 11.3020259854658  L 61.5765249944946 11.3020259854658  L 61.5765249944946 12.6626293767893  C 61.5765249944946 12.8697423475005  61.4090508698525 13.0540629817221  61.2158114952654 13.0540629817221  L 59.3161197974015 13.0540629817221  L 59.7907949790795 14.022241796961  L 62.057146003083 14.022241796961  C 62.8469500110108 14.022241796961  63.291896058137 13.4345959039859  63.291896058137 12.8816340013213  L 63.291896058137 11.3020259854658  L 64.4404316229905 11.3020259854658  L 64.4404316229905 10.1951112089848  L 63.291896058137 10.1951112089848  L 63.291896058137 9.72043602730676  Z M 56.3124862365118 2.51508478308743  L 51.1673640167364 2.51508478308743  L 51.1673640167364 3.64380092490641  L 63.6327901343317 3.64380092490641  L 63.6327901343317 2.51508478308743  L 58.4153270204801 2.51508478308743  L 58.4153270204801 1.99581589958159  L 64.0390883065404 1.99581589958159  L 64.0390883065404 0.876018498128166  L 58.4153270204801 0.876018498128166  L 58.4153270204801 0  L 56.3114952653601 0  L 56.3114952653601 0.877009469279894  L 50.6827791235411 0.877009469279894  L 50.6827791235411 1.99680687073332  L 56.3114952653601 1.99680687073332  L 56.3114952653601 2.51508478308743  Z M 62.4208324157674 5.1629597005065  C 62.6893855978859 5.1629597005065  62.8182118476107 5.43547676723189  62.8182118476107 5.64159876679146  L 62.8182118476107 6.27284739044263  L 64.4107024884387 6.27284739044263  L 64.4107024884387 5.38691918079718  C 64.4107024884387 4.94791896058137  64.2828672098657 4.61297071129707  64.0440431622991 4.37513763488218  C 63.7913455186082 4.1373045584673  63.41973133671 3.99559568377009  62.9430742127285 4  L 50.3319753358291 4  L 50.3319753358291 5.1629597005065  L 62.4208324157674 5.1629597005065  Z M 51.2010570358952 7.06463334067386  L 51.2010570358952 8  L 63.6159436247523 8  L 63.6159436247523 7.06463334067386  L 58.4163179916318 7.06463334067386  L 58.4163179916318 6.63653380312707  L 62.2622770314909 6.63653380312707  L 62.2622770314909 5.5603391323497  L 51.7966306980841 5.5603391323497  L 51.7966306980841 6.63554283197534  L 56.3124862365118 6.63554283197534  L 56.3124862365118 7.06364236952213  L 51.2010570358952 7.06364236952213  Z M 56.5374366879542 10.4765470160758  C 56.3303237172429 10.2704250165162  56.0469059678485 10.1475445937018  55.7387139396609 10.1475445937018  L 51.9076194670777 10.1475445937018  C 51.6063642369522 10.1475445937018  51.3358291125303 10.2545694780885  51.1455626513984 10.4131248623651  C 50.9087205461352 10.6043822946488  50.7650297291346 10.873926447919  50.7650297291346 11.1920281876239  L 50.7650297291346 12.6765029729135  C 50.7650297291346 12.9420832415767  50.8601629597005 13.211627394847  51.0187183439771 13.4028848271306  C 51.1921382955296 13.6407179035455  51.4795199295309 13.8002642589738  51.8105042942083 13.8002642589738  L 55.7842986126404 13.8002642589738  C 56.1251926888351 13.8002642589738  56.3788813036776 13.6892754899802  56.5532922263819 13.5158555384277  C 56.7752697643691 13.3087425677164  56.870402994935 13.0055053952874  56.870402994935 12.7101959920722  L 56.870402994935 11.2861704470381  C 56.870402994935 10.9551860823607  56.7435586875138 10.6678044483594  56.5374366879542 10.4765470160758  Z M 55.3433164501211 12.2830874256772  C 55.3433164501211 12.5209205020921  55.1679145562651 12.6467738383616  54.978639066285 12.6467738383616  L 52.6845408500331 12.6467738383616  C 52.4942743889011 12.6467738383616  52.2871614181899 12.4723629156573  52.2871614181899 12.2513763488218  L 52.2871614181899 11.6944505615503  C 52.2871614181899 11.443734860163  52.4457168024664 11.3178815238934  52.6359832635984 11.3178815238934  L 55.0093591719886 11.3178815238934  C 55.2164721426999 11.3178815238934  55.3423254789694 11.47643690817  55.3423254789694 11.6468839462673  L 55.3423254789694 12.2830874256772  Z " fill-rule="nonzero" fill="#ffffff" stroke="none" transform="matrix(1 0 0 1 125 32 )" />
  </g>
</svg>