<?xml version="1.0" encoding="utf-8"?>
<svg version="1.1" xmlns:xlink="http://www.w3.org/1999/xlink" width="4px" height="8px" xmlns="http://www.w3.org/2000/svg">
  <g transform="matrix(1 0 0 1 -176 -49 )">
    <path d="M 3.63179916317993 1.48557586434706  C 3.3305439330544 1.08324157674521  2.80433825148646 1.09612420171769  2.65569257872717 1.57179035454746  C 2.50803787711959 1.86610878661088  2.53182118476109 2.23871393966087  2.53182118476109 3.07112970711297  L 3.40783968288925 3.0513102840784  L 3.40783968288925 3.54085003303237  L 2.53182118476109 3.52301255230125  L 2.53182118476109 4.36831094472583  C 2.53182118476109 4.97478528958379  2.53875798282318 5.53666593261396  2.55164060779565 6.04107024884387  C 2.56452323276812 6.55241136313587  2.58236071349924 7.05780665051751  2.60614402114074 7.55923805329223  L 1.19797401453425 7.55923805329223  C 1.22473023563093 7.05780665051751  1.24454965866551 6.55241136313587  1.25545034133452 6.0420612199956  C 1.268332966307 5.53666593261396  1.2752697643691 4.97478528958379  1.2752697643691 4.36831094472583  L 1.2752697643691 3.53193129266681  L 0.624201717683349 3.54085003303237  L 0.624201717683349 3.0513102840784  L 1.2752697643691 3.0790574763268  C 1.2752697643691 1.2348601629597  1.54580488879103 0.583792116273948  2.62992732878223 0.583792116273948  C 3.06298172208766 0.583792116273948  3.36919180797183 0.688835058357189  3.67936577846291 0.824598106144016  L 3.67936577846291 1.46575644131248  L 3.63179916317993 1.48557586434706  Z " fill-rule="nonzero" fill="#ffffff" stroke="none" transform="matrix(1 0 0 1 176 49 )" />
  </g>
</svg>