<?xml version="1.0" encoding="utf-8"?>
<svg version="1.1" xmlns:xlink="http://www.w3.org/1999/xlink" width="5px" height="7px" xmlns="http://www.w3.org/2000/svg">
  <g transform="matrix(1 0 0 1 -169 -50 )">
    <path d="M 1.04712618365997 2.73805329222639  C 1.04613521250826 2.22175732217573  1.0401893855979 1.76392865007708  1.02730676062542 1.36258533362696  C 1.01442413565294 0.96025104602511  0.996586654921828 0.558907729574987  0.968839462673429 0.153600528517952  C 1.07586434706013 0.166483153490425  1.19279894296412 0.177383836159443  1.31766130808194 0.187293547676727  C 1.44252367319974 0.197203259194016  1.58522351904867 0.201167143800927  1.74179696102181 0.201167143800927  C 1.8963884606915 0.201167143800927  2.03215150847832 0.197203259194012  2.15701387359613 0.187293547676727  C 2.28088526756221 0.177383836159439  2.39881083461793 0.166483153490422  2.50286280554944 0.153600528517952  C 2.47808852675622 0.558907729574987  2.46124201717684 0.96025104602511  2.44835939220437 1.36258533362696  C 2.43745870953535 1.76491962122881  2.42853996916979 2.22274829332746  2.42853996916979 2.73904426337811  L 2.42853996916979 4.00649636643911  C 2.42853996916979 4.36027306760626  2.42953094032153 4.70414005725612  2.43349482492843 5.03314247963004  C 2.43646773838361 5.36412684430742  2.44142259414225 5.64853556485356  2.44835939220437 5.89132349702709  C 2.80411803567496 5.89132349702709  3.15888570799383 5.8814137855098  3.51761726491962 5.86159436247523  C 3.87139396608676 5.84276591059238  4.22616163840564 5.81105483373707  4.58885707993834 5.76547016075754  C 4.57597445496586 5.83483814137855  4.5670557146003 5.89826029508919  4.56110988768992 5.953754679586  C 4.55417308962782 6.00924906408281  4.55120017617264 6.08753578506937  4.55120017617264 6.18663290024224  C 4.55120017617264 6.28573001541511  4.55417308962782 6.36401673640167  4.56110988768992 6.41852014974675  C 4.5670557146003 6.47599647654702  4.5769654261176 6.52158114952654  4.58885707993834 6.55923805329223  C 4.42039198414446 6.55329222638186  4.21228804228144 6.54932834177494  3.96553622550098 6.54536445716803  C 3.72473023563091 6.54239154371284  3.3858181017397 6.54040960140939  2.95375467958598 6.54040960140939  C 2.57223078617044 6.54040960140939  2.26205681567937 6.54040960140939  2.02620568156792 6.54040960140939  C 1.80125523012551 6.54040960140939  1.61396168244879 6.54040960140939  1.47225280775159 6.54040960140939  C 1.33252587535783 6.54040960140939  1.22550099097114 6.54140057256112  1.15415106804667 6.54536445716803  C 1.08181017397048 6.54932834177495  1.02136093371503 6.55329222638186  0.969830433825138 6.55923805329223  C 0.997577626073536 6.17375027526977  1.01541510680465 5.77835278573002  1.02829773177712 5.38097335388681  C 1.04118035674961 4.97863906628496  1.04712618365997 4.52180136533804  1.04712618365997 4.00550539528739  L 1.04712618365997 2.73805329222639  Z " fill-rule="nonzero" fill="#ffffff" stroke="none" transform="matrix(1 0 0 1 169 50 )" />
  </g>
</svg>