<?xml version="1.0" encoding="utf-8"?>
<svg version="1.1" xmlns:xlink="http://www.w3.org/1999/xlink" width="2px" height="8px" xmlns="http://www.w3.org/2000/svg">
  <g transform="matrix(1 0 0 1 -174 -49 )">
    <path d="M 0.430191587756013 1.31909271085664  C 0.430191587755999 1.1139616824488  0.50055053952876 0.939550759744552  0.645232327681143 0.797841885047347  C 0.787932173530081 0.654151068046687  0.959370182779139 0.582801145122222  1.16549218233871 0.582801145122222  C 1.37161418189828 0.582801145122222  1.54701607575427 0.654151068046687  1.69070689275492 0.797841885047347  C 1.83538868090731 0.938559788592823  1.90772957498351 1.11297071129707  1.90772957498351 1.31909271085664  C 1.90772957498351 1.52422373926448  1.83538868090731 1.69962563312046  1.69070689275492 1.84133450781766  C 1.54701607575427 1.98304338251487  1.37161418189828 2.05439330543933  1.16549218233871 2.05439330543933  C 0.959370182779153 2.05439330543933  0.787932173530081 1.98304338251487  0.645232327681143 1.84133450781766  C 0.50055053952876 1.69962563312046  0.430191587756013 1.52422373926448  0.430191587756013 1.31909271085664  Z M 1.87106364236953 7.5582470821405  L 0.467848491521707 7.5582470821405  C 0.498568597225301 7.24708214049769  0.520369962563322 6.9230345738824  0.530279674080617 6.58907729574983  C 0.538207443294439 6.25412904646554  0.545144241356539 5.89539748953975  0.545144241356539 5.51882845188284  L 0.545144241356539 5.1442413565294  C 0.545144241356539 4.76469940541731  0.539198414446176 4.40993173309844  0.530279674080617 4.0769654261176  C 0.521360933715059 3.74598106144021  0.499559568377023 3.4140057256111  0.467848491521707 3.07707553402334  L 1.87106364236953 3.07707553402334  C 1.83836159436248 3.4140057256111  1.81854217132792 3.74598106144021  1.81061440211407 4.0769654261176  C 1.80070469059679 4.41092270425017  1.79475886368641 4.76469940541731  1.79475886368641 5.1442413565294  L 1.79475886368641 5.51882845188284  C 1.79475886368641 5.89539748953975  1.79971371944505 6.25412904646554  1.81061440211407 6.58907729574983  C 1.81854217132791 6.9230345738824  1.83836159436248 7.24609116934596  1.87106364236953 7.5582470821405  Z " fill-rule="nonzero" fill="#ffffff" stroke="none" transform="matrix(1 0 0 1 174 49 )" />
  </g>
</svg>