<?xml version="1.0" encoding="utf-8"?>
<svg version="1.1" xmlns:xlink="http://www.w3.org/1999/xlink" width="5px" height="6px" xmlns="http://www.w3.org/2000/svg">
  <g transform="matrix(1 0 0 1 -179 -51 )">
    <path d="M 2.77328782206561 4.96267341995156  C 2.92986126403878 5.05285179475887  3.11715481171549 5.09843646773839  3.32922263818543 5.09843646773839  C 3.77615062761507 5.09843646773839  4.20821404976878 4.95771856419291  4.56298172208766 4.67727372825369  L 4.60460251046027 4.71790354547457  L 4.38361594362476 5.28672098656684  C 4.2260515304999 5.40662849592601  4.03875798282318 5.5027526976437  3.81975335829114 5.57410262056816  C 3.60273067606256 5.6444615723409  3.32228584012334 5.68013653380313  2.96454525434928 5.68013653380313  C 2.65932613961682 5.68013653380313  2.3679806210086 5.63851574543052  2.09050869852456 5.55626513983704  C 1.81700066064745 5.4720325919401  1.57718564192909 5.33527857300155  1.3700726712178 5.14203919841445  C 1.16097775820305 4.94879982382735  0.994494604712614 4.70303897819864  0.873596124201711 4.4116934595904  C 0.752697643690809 4.11539308522352  0.690266461131898 3.76062541290465  0.690266461131898 3.35432724069589  C 0.690266461131898 2.94902003963885  0.74377890332525 2.60118916538208  0.855758643470594 2.30191587756001  C 0.964765470160756 2.00066064743449  1.11539308522352 1.75291785950232  1.30863245981061 1.55670557146004  C 1.50187183439769 1.35752036996257  1.72583131468839 1.2068927548998  1.99042061219996 1.10680466857521  C 2.2579828231667 1.00671658225061  2.54536445716802 0.958158995815907  2.85752036996256 0.958158995815907  C 3.47489539748953 0.958158995815907  3.94362475225721 1.13851574543053  4.27163620347942 1.5002202158115  C 4.59865668354988 1.85796080158556  4.76315789473684 2.36930191587756  4.76315789473684 3.02532481832196  L 4.76315789473684 3.22252807751597  C 4.76315789473684 3.27901343316451  4.75919401012992 3.31567936577848  4.75423915437128 3.33351684650959  L 2.07663510240035 3.33351684650959  C 2.07663510240035 3.58324157674522  2.0994274388901 3.81215591279455  2.15194890993172 4.02917859502313  C 2.20050649636643 4.24719224840344  2.27681127504954 4.43547676723189  2.37888130367759 4.59205020920503  C 2.48194230345737 4.74763268002643  2.61374146663729 4.87249504514425  2.77328782206561 4.96267341995156  Z M 3.50561550319313 2.9093811935697  C 3.49471482052412 2.44758863686413  3.43922043602731 2.07597445496587  3.3351684650958 1.7975115613301  C 3.23309843646776 1.52003963884607  3.06166042721868 1.38229464875578  2.81887249504516 1.38229464875578  C 2.68211847610658 1.38229464875578  2.56914776480953 1.4278793217353  2.47401453424357 1.5210306099978  C 2.37987227482934 1.61418189826029  2.30455846729795 1.73408940761947  2.25005505395288 1.87579828231667  C 2.19257872715261 2.02147104162079  2.15194890993173 2.18597225280775  2.12321074653161 2.36930191587756  C 2.0954635542832 2.55263157894737  2.07762607355208 2.73298832856199  2.07366218894518 2.9093811935697  L 3.50561550319313 2.9093811935697  Z " fill-rule="nonzero" fill="#ffffff" stroke="none" transform="matrix(1 0 0 1 179 51 )" />
  </g>
</svg>