<?xml version="1.0" encoding="utf-8"?>
<svg version="1.1" xmlns:xlink="http://www.w3.org/1999/xlink" width="42px" height="10px" xmlns="http://www.w3.org/2000/svg">
  <g transform="matrix(1 0 0 1 -125 -49 )">
    <path d="M 26.4505615503193 6.89330543933056  C 26.2305659546356 6.60096894957058  25.9828231667034 6.27989429641049  25.7112970711297 5.92314468178816  C 25.4496806870734 5.56936798062101  25.1791455626514 5.21261836599868  24.906628495926 4.83902224179696  C 24.6678044483594 4.51695661748514  24.3883505835719 4.12651398370403  24.1693459590399 3.83516846509579  C 24.4200616604272 3.53193129266681  24.6826690156353 3.22175732217573  24.7966306980841 3.09491301475446  C 25.0067165822506 2.84221537106365  25.2306760625413 2.59843646773838  25.4645452543493 2.3467297951993  C 25.6954415327021 2.07916758423255  25.9194010129928 1.84728033472803  26.1245320414006 1.62728473904427  C 26.3316450121119 1.40530720105704  26.4832635983264 1.24278793217353  26.5892975115613 1.14666373045585  L 25.3208544373486 1.14666373045585  C 25.2455406298172 1.255670557146  25.1791455626514 1.33891213389122  24.9977978418851 1.56188064303017  C 24.8174410922704 1.76899361374147  24.6212288042282 1.99691697863907  24.3992512662409 2.26249724730236  C 24.176282757102 2.51123100638626  23.9473684210526 2.76690156353227  23.7035895177274 3.04635542831976  C 23.5083682008368 3.25545034133451  23.3280114512222 3.45562651398371  23.116934595904 3.68156793657785  L 23.116934595904 3.23166703369303  C 23.116934595904 2.76789253468399  23.1208984805109 2.36456727593042  23.1298172208765 1.98502532481833  C 23.138735961242 1.61638405637525  23.1595463554283 1.32999339352566  23.1892754899802 1.14765470160758  L 21.7573221757322 1.14765470160758  C 21.7771415987668 1.55692578727153  21.7900242237393 1.95331424796301  21.8029068487117 2.35862144902005  C 21.8098436467739 2.75203699625634  21.8157894736842 3.22076635102401  21.8157894736842 3.73805329222639  L 21.8157894736842 5.00847830874257  C 21.8157894736842 5.51288262497248  21.8098436467739 5.97467518167806  21.8029068487117 6.38592820964546  C 21.7900242237393 6.77934375688175  21.7771415987668 7.18068707333187  21.7573221757322 7.56121999559569  L 23.1892754899802 7.56121999559569  C 23.1536005285179 7.26987447698746  23.1317991631799 6.88636864126845  23.1248623651178 6.40872054613522  C 23.1189165382074 5.91918079718125  23.1159436247523 5.32955296190267  23.1159436247523 4.65767452103062  L 23.1159436247523 4.51794758863688  L 23.1288262497247 4.55064963664393  C 23.4251266240916 4.95992072230787  23.7719665271967 5.42270425016517  24.2595243338472 6.11539308522353  C 24.5974454965867 6.60790574763269  24.9462673419952 7.09645452543494  25.2990530720106 7.5612199955957  L 26.9946047126184 7.5612199955957  C 26.8637965205902 7.40662849592602  26.6814578286721 7.19356969830435  26.4505615503193 6.89330543933056  Z M 10.2471922484035 6.88339572781327  C 10.2382735080379 6.65150847830875  10.2323276811275 6.4325038537767  10.2323276811275 6.23430962343097  C 10.2323276811275 5.99053072010571  10.2402554503413 5.74774278793218  10.2511561330104 5.50495485575865  C 10.2640387579828 5.26414886588858  10.2689936137415 4.98568597225281  10.2689936137415 4.6675842325479  C 10.2689936137415 4.0630918299934  10.150077075534 3.62310063862586  9.91521691257434 3.35454745650738  C 9.67936577846291 3.08698524554064  9.33450781766132 2.95023122660207  8.85487778022463 2.95023122660207  C 8.54965866549219 2.95023122660207  8.27912354107025 3.02158114952654  8.03930852235191 3.16329002422374  C 7.80048447478529 3.30598987007267  7.60129927328783 3.50517507157014  7.43679806210087 3.76778242677825  L 7.41697863906629 3.7489539748954  C 7.41697863906629 3.13950671658226  7.42292446597666 2.57762607355209  7.43679806210087 2.070248843867  C 7.44769874476989 1.56088967187845  7.46850913895618 1.04657564413125  7.4932834177494 0.520369962563318  L 6.0910592380533 0.520369962563318  C 6.11484254569479 1.04657564413125  6.13268002642591 1.56088967187845  6.14358070909492 2.07123981501872  C 6.15448139176394 2.57960801585554  6.16240916097777 3.14247963003744  6.16240916097777 3.75192688835059  L 6.16240916097777 4.35641929090509  C 6.16240916097777 4.96883946267343  6.15547236291567 5.52477427879322  6.14358070909492 6.03809733538869  C 6.1326800264259 6.54844747852897  6.11484254569478 7.05780665051751  6.0910592380533 7.56022902444396  L 7.4932834177494 7.56022902444396  C 7.48238273508039 7.40861043822947  7.46950011010792 7.23122660207004  7.46157234089409 7.0330323717243  C 7.4516626293768 6.83087425677164  7.44274388901125 6.63168905527418  7.43679806210088 6.43349482492844  C 7.4308522351905 6.23629156573443  7.42589737943186 6.05692578727153  7.42193349482494 5.89242457608457  C 7.41896058136976 5.72594142259415  7.4169786390663 5.60107905747633  7.4169786390663 5.51090068266902  L 7.4169786390663 5.14225941422595  C 7.4169786390663 4.7121779343757  7.48535564853558 4.37326580048448  7.61814578286722 4.13146883946268  C 7.74895397489541 3.88868090728915  7.95804888791017 3.76679145562652  8.24443955075976 3.76679145562652  C 8.49416428099539 3.76679145562652  8.68542171327903 3.85796080158556  8.82217573221759 4.04129046465537  C 8.95992072230788 4.22462012772518  9.02829773177716 4.51497467518169  9.02829773177716 4.90839022241798  C 9.02829773177716 5.46927989429642  9.02136093371504 5.97467518167806  9.00847830874258 6.41367540189387  C 8.99559568377011 6.85465756441313  8.96685752036998 7.2332085443735  8.92226381854218 7.55923805329223  L 10.2769213829553 7.55923805329223  C 10.267011671438 7.33825148645673  10.2541290464656 7.11726491962123  10.2471922484035 6.88339572781327  Z M 17.9975776260736 6.88537767011672  C 17.9906408280115 6.65150847830875  17.9866769434045 6.4325038537767  17.9866769434045 6.23430962343097  C 17.9866769434045 5.99053072010571  17.9926227703149 5.74774278793218  18.0045144241357 5.50495485575865  C 18.0164060779564 5.26414886588858  18.0223519048668 4.98568597225281  18.0223519048668 4.6675842325479  C 18.0223519048668 4.0630918299934  17.9024443955076 3.62310063862586  17.663620347941 3.35454745650738  C 17.4267782426778 3.08698524554064  17.0809293107245 2.95023122660207  16.6082360713499 2.95023122660207  C 16.3030169566175 2.95023122660207  16.0314908610438 3.02158114952654  15.7936577846289 3.1652719665272  C 15.5538427659106 3.30797181237613  15.3467297951993 3.50616604272187  15.1733098436468 3.77075534023343  L 15.1544813917639 3.77075534023343  L 15.1921382955296 3.07311164941643  L 13.8493723849373 3.07311164941643  C 13.8791015194891 3.40905086985246  13.8989209425237 3.7420171768333  13.9068487117375 4.07399251266241  C 13.9157674521031 4.40695881964325  13.91973133671 4.76668134772077  13.91973133671 5.14622329883286  L 13.91973133671 5.51288262497248  C 13.91973133671 5.89638846069148  13.9157674521031 6.25512001761727  13.9068487117375 6.5910592380533  C 13.8989209425237 6.92997137194451  13.8791015194891 7.24807311164942  13.8493723849373 7.56221096674742  L 15.245650737723 7.56221096674742  C 15.2149306320194 7.24906408280115  15.1961021801365 6.92898040079278  15.1881744109227 6.5910592380533  C 15.1782646994054 6.25313807531381  15.1733098436468 5.89539748953976  15.1733098436468 5.51288262497248  L 15.1733098436468 5.14424135652941  C 15.1733098436468 4.71415987667915  15.234750055054 4.37524774278794  15.3685311605373 4.13345078176614  C 15.5023122660207 3.8906628495926  15.7114071790355 3.76877339792998  15.9958158995816 3.76877339792998  C 16.2435586875138 3.76877339792998  16.4348161197974 3.85994274388902  16.5695881964325 4.04327240695883  C 16.7073331865228 4.22660207002864  16.7747192248403 4.51695661748515  16.7747192248403 4.91037216472144  C 16.7747192248403 5.47126183659988  16.7677824267782 5.97665712398151  16.7548998018058 6.41565734419732  C 16.7439991191368 6.85663950671659  16.7142699845849 7.23519048667695  16.6706672539088 7.56121999559569  L 18.0282977317772 7.56121999559569  C 18.0173970491081 7.34023342876019  18.0064963664391 7.11924686192469  17.9975776260736 6.88537767011672  Z M 12.6136313587316 0.785950231226604  C 12.4679585994274 0.639286500770758  12.2895837921163 0.566945606694564  12.0785069367981 0.566945606694564  C 11.8674300814799 0.566945606694564  11.6900462453204 0.639286500770758  11.5423915437129 0.785950231226604  C 11.3996916978639 0.929641048227264  11.3253688614843 1.10504294208324  11.3253688614843 1.30819202818763  C 11.3253688614843 1.51431402774719  11.3996916978639 1.68674300814799  11.5423915437129 1.83340673860384  C 11.6900462453204 1.97709755560449  11.8664391103281 2.04745650737723  12.0785069367981 2.04745650737723  C 12.2895837921163 2.04745650737723  12.4679585994274 1.97709755560449  12.6136313587316 1.83340673860384  C 12.7602950891874 1.68773397929972  12.8336269544153 1.51530499889892  12.8336269544153 1.30819202818763  C 12.8336269544153 1.10504294208325  12.7602950891874 0.930632019378994  12.6136313587316 0.785950231226604  Z M 12.7166923585113 5.14523232768113  C 12.7166923585114 4.76469940541731  12.72164721427 4.40695881964325  12.732547896939 4.07300154151068  C 12.7414666373046 3.74102620568157  12.7622770314909 3.40805989870073  12.7959700506496 3.0721206782647  L 11.3669896498569 3.0721206782647  C 11.3977097555605 3.40805989870073  11.4195111208985 3.7420171768333  11.428429861264 4.07300154151068  C 11.4373486016296 4.40596784849152  11.44329442854 4.76469940541731  11.44329442854 5.14523232768113  L 11.44329442854 5.51189165382075  C 11.44329442854 5.89539748953975  11.4383395727813 6.25313807531381  11.428429861264 6.59006826690157  C 11.4195111208985 6.92898040079278  11.3977097555604 7.24708214049769  11.3669896498569 7.56121999559569  L 12.7959700506496 7.56121999559569  C 12.7632680026426 7.24807311164942  12.7424576084563 6.92898040079278  12.732547896939 6.59006826690157  C 12.7226381854217 6.25313807531381  12.7166923585113 5.89539748953975  12.7166923585113 5.51189165382075  L 12.7166923585113 5.14523232768113  Z M 41.4826029508919 8.38967187844087  C 41.4865668354988 7.17077736181458  40.7354107024885 6.8467297951993  39.3222858401233 6.8467297951993  C 39.0695881964325 6.8397929971372  38.8822946487558 6.79123541070249  38.7653600528518 6.70502092050209  C 38.6474344857961 6.61781545914997  38.5899581589958 6.49592600748734  38.5899581589958 6.34529839242458  C 38.5899581589958 6.26007487337591  38.6167143800925 6.17980621008589  38.6712177934376 6.11142920061661  C 38.7247302356309 6.04404316229905  38.7871614181898 6.00341334507818  38.8644571680247 6.00341334507818  C 38.9467077736181 6.00341334507818  39.0210306099978 5.99845848931954  39.0884166483153 6.00242237392645  C 39.1538207443294 6.00638625853336  39.2231887249504 6.00836820083682  39.2925567055715 6.00836820083682  C 39.5670557146003 6.00836820083682  39.8197533582911 5.96773838361594  40.0447038097335 5.89638846069148  C 40.269654261176 5.82305659546355  40.455956837701 5.71801365338031  40.6115393085224 5.57828672098656  C 40.7641488658886 5.43955075974455  40.8820744329443 5.28000440431623  40.9672979519929 5.09072891433605  C 41.0495485575864 4.90343536665932  41.0931512882625 4.69434045364457  41.0931512882625 4.45948029068487  C 41.0931512882625 4.22660207002863  41.047566615283 4.02345298392424  40.9623430962343 3.85102400352345  C 40.8731556925787 3.68057696542611  40.7562210966747 3.53787711957718  40.6036115393085 3.4278793217353  L 40.6313587315569 3.41004184100418  L 41.4241356529399 3.44472583131468  L 41.4241356529399 2.99581589958159  C 41.2655802686633 2.99581589958159  41.1010790574763 2.9997797841885  40.9385597885928 3.00176172649196  C 40.7760405197093 3.00473463994715  40.6194670777362 3.00770755340233  40.4678484915217 3.00770755340233  C 40.371724289804 3.00770755340233  40.2815459149967 3.00473463994715  40.1943404536446 3.00176172649196  C 40.1091169345959 2.9997797841885  40.0238934155472 2.99482492842986  39.940651838802 2.98788813036776  C 39.8286720986567 2.98194230345738  39.7097555604492 2.9720325919401  39.5888570799384 2.96410482272627  C 39.4699405417309 2.95518608236071  39.3539969169786 2.94924025545034  39.2410262056816 2.94924025545034  C 38.9447258313147 2.94924025545034  38.6702268222859 2.98392424576084  38.4224840343537 3.05230125523012  C 38.1757322175732 3.11968729354767  37.9636643911033 3.21878440872054  37.7892534683991 3.34562871614181  C 37.6197974014534 3.4695001101079  37.4929530940322 3.62805549438449  37.3998018057697 3.81534904206121  C 37.3076414886589 4.00165161858621  37.2600748733759 4.21272847390442  37.2600748733759 4.44758863686412  C 37.2600748733759 4.84794098216252  37.3611539308523 5.17099757762607  37.5672759304118 5.41576745210306  C 37.7634882184541 5.6625192688835  38.0548337370623 5.82900242237393  38.44329442854 5.92215371063642  L 38.44329442854 5.94692798942964  C 38.176723188725 6.01530499889891  37.9636643911033 6.15007707553401  37.804118035675 6.34331645012111  C 37.650517507157 6.53853776701166  37.5781766130808 6.73772296850913  37.5781766130808 6.94186302576524  C 37.5781766130808 7.09645452543492  37.6098876899362 7.22131689055273  37.6802466417089 7.3204140057256  C 37.7545694780885 7.4205020920502  37.8536665932614 7.49878881303677  37.9815018718344 7.54833737062321  L 37.9854657564413 7.56617485135432  C 37.734750055054 7.67022682228583  37.5553842765911 7.80301695661748  37.4146663730456 7.98436467738383  C 37.2749394406519 8.16769434045364  37.2025985465757 8.43426558026866  37.2025985465757 8.73353886809073  C 37.2025985465757 9.1021801365338  37.3611539308523 9.430191587756  37.6733098436468 9.65910592380532  C 37.9963664391103 9.88207443294428  38.4631138515746 9.99900902884827  39.0596784849152 9.99900902884827  C 40.0694780885268 9.99900902884827  41.4826029508919 9.61054833737062  41.4826029508919 8.38967187844087  Z M 38.5612199955957 4.5605593481612  C 38.5622109667474 3.74499009028849  38.7762607355208 3.33571900462454  39.2023783307641 3.33571900462454  C 39.3728253688615 3.33571900462454  39.5145342435587 3.42193349482493  39.6255230125523 3.58841664831535  C 39.7394846950011 3.76084562871614  39.7979519929531 4.0561550319313  39.7979519929531 4.47533582911253  C 39.7979519929531 4.90839022241797  39.7454305219115 5.21162739484695  39.6463334067386 5.38802025985466  C 39.5432724069588 5.56837700946928  39.3916538207443 5.65855538427659  39.1835498788813 5.65855538427659  C 39.1092270425017 5.65855538427659  39.0339132349703 5.63972693239375  38.9625633120458 5.60306099977979  C 38.8902224179696 5.56441312486236  38.8228363796521 5.50297291345519  38.7623871393966 5.41378550979961  C 38.7039198414446 5.32757101959921  38.6543712838582 5.21856419290905  38.6157234089408 5.07784628936358  C 38.5810394186303 4.93911032812156  38.5612199955957 4.76866329002423  38.5612199955957 4.5605593481612  Z M 40.4430742127285 8.48876899361375  C 40.4440651838802 8.62354107024884  40.419290905087 8.77218674300815  40.3707333186523 8.89605813697424  C 40.3231667033693 9.01695661748514  40.2508258092931 9.12299053072011  40.152719665272 9.21713279013434  C 40.0556044924026 9.31028407839684  39.9376789253468 9.38460691477649  39.8038978198635 9.44010129927329  C 39.6671438009249 9.49361374146664  39.5135432724069 9.51937899141159  39.3470601189165 9.51937899141159  C 39.1855318211848 9.51937899141159  39.0388680907289 9.49955956837702  38.9001321294869 9.45793878000441  C 38.7623871393966 9.41532702048007  38.640497687734 9.35388680907289  38.5324818321956 9.27163620347941  C 38.4264479189606 9.19136754018939  38.3432063422154 9.09227042501652  38.2827571019599 8.97236291565735  C 38.2183439770976 8.85047346399472  38.1886148425457 8.69390002202159  38.1886148425457 8.52741686853117  C 38.1886148425457 8.29552961902665  38.2282536886149 8.08841664831535  38.3065404096014 7.93977097555605  C 38.3878000440432 7.7861704470381  38.501761726492 7.70491081259635  38.5750935917199 7.67419070689276  C 38.698964985686 7.61770535124422  38.8624752257212 7.55428319753359  39.1696762827571 7.55428319753359  C 39.3698524554063 7.55428319753359  39.5472362915658 7.56617485135433  39.7067826469941 7.58896718784409  C 39.8653380312707 7.61275049548558  40.0001101079058 7.65536225500992  40.1081259634442 7.72175732217574  C 40.2181237612861 7.78517947588637  40.3013653380313 7.8793217353006  40.3588416648316 8.00121118696323  C 40.4153270204801 8.12310063862586  40.4430742127285 8.29751156133011  40.4430742127285 8.48876899361375  Z M 30.8584012332085 3.56166042721868  C 30.4501211186963 3.15536225500991  29.8931953314248 2.95023122660207  29.1925787271526 2.95023122660207  C 28.4909711517287 2.95023122660207  27.9330543933054 3.15536225500991  27.5277471922484 3.56166042721868  C 27.1194670777362 3.976877339793  26.9153270204801 4.53182118476107  26.9153270204801 5.2373926447919  C 26.9153270204801 5.61495265360053  26.9728033472803 5.95683770094693  27.0877560008809 6.26403875798283  C 27.2027086544814 6.570248843867  27.3622550099097 6.83087425677164  27.5673860383176 7.04492402554504  C 27.7735080378771 7.25500990971152  28.0192688835058 7.41554723629157  28.303677604052 7.52158114952654  C 28.5752036996256 7.62761506276151  28.8695221316891 7.68211847610659  29.1925787271526 7.68211847610659  C 29.5146443514644 7.68211847610659  29.8079718123761 7.62761506276151  30.0794979079498 7.52158114952654  C 30.3629156573442 7.41455626513984  30.6076855318212 7.25500990971153  30.8147985025325 7.04492402554504  C 31.0219114732438 6.82988328561991  31.1834397709756 6.570248843867  31.2954195111209 6.26403875798283  C 31.4113631358732 5.95683770094693  31.4688394626734 5.61495265360053  31.4688394626734 5.2373926447919  C 31.4688394626734 4.53182118476107  31.2646994054173 3.976877339793  30.8584012332085 3.56166042721868  Z M 30.0576965426118 5.09766571239815  C 30.0576965426118 6.55736621889452  29.7663510240035 7.28473904426338  29.1925787271526 7.28473904426338  C 28.6188064303017 7.28473904426338  28.32547896939 6.55736621889452  28.32547896939 5.09766571239815  C 28.32547896939 4.54965866549218  28.3908830654041 4.12651398370403  28.522682228584 3.82426778242678  C 28.6544813917639 3.52003963884607  28.8873596124202 3.3723849372385  29.1925787271526 3.3723849372385  C 29.4938339572781 3.3723849372385  29.7296850913896 3.51904866769434  29.8614842545695 3.82426778242678  C 29.9922924465977 4.12651398370403  30.0576965426118 4.54965866549218  30.0576965426118 5.09766571239815  Z M 36.4395507597445 6.88537767011672  C 36.4286500770755 6.65150847830875  36.4246861924686 6.4325038537767  36.4246861924686 6.23430962343097  C 36.4246861924686 5.99053072010571  36.430632019379 5.74774278793218  36.4445056155032 5.50495485575865  C 36.4554062981722 5.26414886588858  36.463334067386 4.98568597225281  36.463334067386 4.6675842325479  C 36.463334067386 4.0630918299934  36.335498788813 3.62310063862586  36.0758643470601 3.35454745650738  C 35.8201937899141 3.08698524554064  35.4555164060779 2.95023122660207  34.9818321955516 2.95023122660207  C 34.6756221096675 2.95023122660207  34.4060779563973 3.02158114952654  34.1672539088307 3.1652719665272  C 33.9314027747192 3.30797181237613  33.7381634001321 3.50616604272187  33.5696983043383 3.77075534023343  L 33.5518608236071 3.77075534023343  L 33.5895177273728 3.07311164941643  L 32.2695441532702 3.07311164941643  C 32.3002642589738 3.40905086985246  32.3220656243118 3.7420171768333  32.3319753358291 4.07399251266241  C 32.3408940761947 4.40695881964325  32.3478308742568 4.76668134772077  32.3478308742568 5.14622329883286  L 32.3478308742568 5.51288262497248  C 32.3478308742568 5.89638846069148  32.3418850473464 6.25512001761727  32.3319753358291 6.5910592380533  C 32.3230565954636 6.92997137194451  32.3012552301255 7.24807311164942  32.2695441532702 7.56221096674742  L 33.6430301695662 7.56221096674742  C 33.6133010350143 7.24906408280115  33.592490640828 6.92898040079278  33.5845628716142 6.5910592380533  C 33.5756441312486 6.25313807531381  33.57068927549 5.89539748953976  33.57068927549 5.51288262497248  L 33.57068927549 5.14424135652941  C 33.57068927549 4.71415987667915  33.6341114292006 4.37524774278794  33.7589737943184 4.13345078176614  C 33.8828451882845 3.8906628495926  34.0879762166924 3.76877339792998  34.3723849372385 3.76877339792998  C 34.6201277251707 3.76877339792998  34.8103941863026 3.85994274388902  34.9471482052411 4.04327240695883  C 35.0819202818762 4.22660207002864  35.1493063201938 4.51695661748515  35.1493063201938 4.91037216472144  C 35.1493063201938 5.47126183659988  35.1433604932834 5.97665712398151  35.1324598106144 6.41565734419732  C 35.1166042721867 6.85663950671659  35.0898480510901 7.23519048667695  35.046245320414 7.56121999559569  L 36.4722528077516 7.56121999559569  C 36.4613521250826 7.34023342876019  36.4494604712618 7.11924686192469  36.4395507597445 6.88537767011672  Z M 5.32008368200837 5.58324157674521  C 5.29828231667034 5.22649196212288  5.19522131689055 4.93911032812156  5.02279233648976 4.69929530940322  C 4.85531821184762 4.4812816560229  4.6442413565294 4.28804228143581  4.39550759744549 4.1185862144902  C 4.1467738383616 3.96498568597225  3.89011231006386 3.83516846509579  3.61065844527636 3.72715260955737  C 3.33417749394406 3.62012772517067  3.07355208103942 3.49130147544594  2.82680026425897 3.3793217353006  C 2.58500330323717 3.26932393745871  2.37888130367761 3.13554283197534  2.21239815018718 2.99086104382295  C 2.04789693900022 2.83230565954636  1.95672759304118 2.64996696762828  1.9398810834618 2.42204360273068  C 1.92402554503414 2.19907509359172  2.01321294868972 1.9979079497908  2.20149746751817 1.83439770975556  C 2.39374587095354 1.66593261396168  2.64545254349263 1.5836820083682  2.96850913895619 1.5836820083682  C 3.71272847390443 1.5836820083682  4.23497027086545 1.84728033472803  4.54316229905308 2.38735961242017  L 4.62937678925348 2.38735961242017  L 4.94153270204801 1.45287381634001  C 4.70865448139177 1.31314688394627  4.42226381854218 1.20513102840784  4.09524333847171 1.12585333626955  C 3.7771415987668 1.04558467297952  3.39859061880644 1.00594582691038  2.97544593701829 1.00594582691038  C 2.6583351684651 1.00594582691038  2.36302576524995 1.04855758643471  2.0885267562211 1.13477207663511  C 1.80709094913015 1.2209865668355  1.57123981501872 1.34783087425678  1.36412684430742 1.50935917198855  C 1.1560229024444 1.68674300814799  0.999449460471261 1.8908830654041  0.886478749174195 2.13367099757763  C 0.772517066725392 2.39132349702709  0.725941422594147 2.67375027526977  0.749724730235634 3.00572561109888  C 0.774499009028851 3.35454745650738  0.872605153049996 3.65183880202599  1.04404316229905 3.87381634001321  C 1.20953534463775 4.09579387800044  1.41466637304558 4.29696102180137  1.65646333406739 4.45056155031931  C 1.90024223739265 4.60416207883727  2.15393085223519 4.73100638625854  2.43140277471922 4.84001321294869  C 2.71184761065845 4.96091169345959  2.96850913895618 5.07090949130148  3.20832415767452 5.18586214490201  C 3.44714820524113 5.29585994274389  3.64534243558688 5.42072230786171  3.80984364677384 5.58225060559348  C 3.97632680026425 5.72990530720106  4.06353226161638 5.9211627394847  4.07938780004404 6.1490861043823  C 4.09722528077516 6.42358511341115  4.01398370402994 6.639616824488  3.82768112750495 6.82393745870954  C 3.64236952213169 7.02411363135874  3.34309623430963 7.15492182338692  2.92292446597666 7.12717463113852  C 2.68509138956177 7.10735520810395  2.46707773618146 7.0746531600969  2.26690156353227 7.01222197753799  C 2.07168024664171 6.94186302576525  1.90519709315129 6.84573882404757  1.75853336269545 6.74069588196433  C 1.61087866108787 6.63862585333627  1.47313367099758 6.48799823827351  1.37502752697644 6.3631358731557  C 1.27295749834838 6.23430962343097  1.21250825809293 6.06584452763709  1.16692358511342 5.92710856639507  L 1.06683549878882 5.91818982602951  L 0.728914336049328 6.94087205461352  C 0.905307201057035 7.05879762166924  1.28782206562431 7.32140497687734  1.60592380532923 7.43437568817441  C 1.9299713719445 7.55428319753358  2.29365778462894 7.69103721647215  2.70193789914116 7.70788372605153  C 3.13598326359833 7.72770314908611  3.49372384937239 7.65932613961683  3.82173530059459 7.55626513983704  C 4.15172869412024 7.45518608236072  4.42920061660428 7.27383836159436  4.66306980841225 7.10140938119357  C 4.89396608676503 6.91708874697204  5.06342215371064 6.68817441092271  5.17936577846289 6.43646773838362  C 5.29530940321515 6.16890552741687  5.3418850473464 5.89143360493284  5.32008368200837 5.58324157674521  Z " fill-rule="nonzero" fill="#ffffff" stroke="none" transform="matrix(1 0 0 1 125 49 )" />
  </g>
</svg>