<?xml version="1.0" encoding="utf-8"?>
<svg version="1.1" xmlns:xlink="http://www.w3.org/1999/xlink" width="12px" height="14px" xmlns="http://www.w3.org/2000/svg">
  <g transform="matrix(1 0 0 1 -1175 -483 )">
    <path d="M 4.28620774734764 7.53589933382679  C 4.28522082408093 7.71255859856896  4.14113002714039 7.8566493955095  3.96447076239822 7.8566493955095  L 2.89267209474463 7.8566493955095  C 2.71601283000247 7.8566493955095  2.57093510979521 7.71157167530224  2.57093510979521 7.53491241056008  L 2.57093510979521 6.4641006661732  C 2.57093510979521 6.28744140143104  2.71601283000247 6.14236368122378  2.89267209474463 6.14236368122378  L 3.96447076239822 6.14236368122378  C 4.14113002714039 6.14236368122378  4.28620774734764 6.28744140143104  4.28620774734764 6.4641006661732  L 4.28620774734764 7.53589933382679  Z M 6.53639279546015 7.85763631877621  C 6.7120651369356 7.8566493955095  6.85714285714286 7.71255859856896  6.85714285714286 7.53589933382679  L 6.85714285714286 6.4641006661732  C 6.85714285714286 6.28744140143104  6.7120651369356 6.14236368122378  6.53540587219344 6.14236368122378  L 5.46459412780656 6.14236368122378  C 5.2879348630644 6.14236368122378  5.14285714285714 6.28744140143104  5.14285714285714 6.4641006661732  L 5.14285714285714 7.53589933382679  C 5.14285714285714 7.71255859856896  5.2879348630644 7.85763631877621  5.46459412780656 7.85763631877621  L 6.53639279546015 7.85763631877621  Z M 9.10732790525537 7.85763631877621  C 9.28398716999753 7.8566493955095  9.42807796693807 7.71255859856896  9.42807796693807 7.53589933382679  L 9.42807796693807 6.4641006661732  C 9.42807796693807 6.28744140143104  9.28300024673082 6.14236368122378  9.10634098198865 6.14236368122378  L 8.03552923760178 6.14236368122378  C 7.85886997285961 6.14236368122378  7.71379225265236 6.28744140143104  7.71379225265236 6.4641006661732  L 7.71379225265236 7.53589933382679  C 7.71379225265236 7.71255859856896  7.85886997285961 7.85763631877621  8.03552923760178 7.85763631877621  L 9.10732790525537 7.85763631877621  Z M 6.53639279546015 10.4295583518381  C 6.7120651369356 10.4285714285714  6.85714285714286 10.2834937083642  6.85714285714286 10.106834443622  L 6.85714285714286 9.03602269923513  C 6.85714285714286 8.85936343449297  6.7120651369356 8.71428571428571  6.53540587219344 8.71428571428571  L 5.46459412780656 8.71428571428571  C 5.2879348630644 8.71428571428571  5.14285714285714 8.85936343449297  5.14285714285714 9.03602269923513  L 5.14285714285714 10.1078213668887  C 5.14285714285714 10.2844806316309  5.2879348630644 10.4295583518381  5.46459412780656 10.4295583518381  L 6.53639279546015 10.4295583518381  Z M 3.96447076239822 10.4295583518381  C 4.14113002714039 10.4285714285714  4.28522082408093 10.2834937083642  4.28522082408093 10.106834443622  L 4.28522082408093 9.03602269923513  C 4.28522082408093 8.85936343449297  4.14014310387367 8.71428571428571  3.96348383913151 8.71428571428571  L 2.89267209474463 8.71428571428571  C 2.71601283000247 8.71428571428571  2.57093510979521 8.85936343449297  2.57093510979521 9.03602269923513  L 2.57093510979521 10.1078213668887  C 2.57093510979521 10.2844806316309  2.71601283000247 10.4295583518381  2.89267209474463 10.4295583518381  L 3.96447076239822 10.4295583518381  Z M 9.10732790525537 10.4295583518381  C 9.28398716999753 10.4285714285714  9.42807796693807 10.2834937083642  9.42807796693807 10.106834443622  L 9.42807796693807 9.03602269923513  C 9.42807796693807 8.85936343449297  9.28300024673082 8.71428571428571  9.10634098198865 8.71428571428571  L 8.03552923760178 8.71428571428571  C 7.85886997285961 8.71428571428571  7.71379225265236 8.85936343449297  7.71379225265236 9.03602269923513  L 7.71379225265236 10.1078213668887  C 7.71379225265236 10.2844806316309  7.85886997285961 10.4295583518381  8.03552923760178 10.4295583518381  L 9.10732790525537 10.4295583518381  Z M 10.7150259067358 1.85714285714286  C 11.4236368122378 1.85714285714286  12 2.43350604490501  12 3.14310387367382  L 12 12.5711818406119  C 12 13.2807796693807  11.4236368122378 13.8571428571429  10.714038983469 13.8571428571429  L 1.28596101653096 13.8571428571429  C 0.576363187762151 13.8571428571429  0 13.2807796693807  0 12.5711818406119  L 0 3.14310387367382  C 0 2.43350604490501  0.576363187762151 1.85714285714286  1.28596101653096 1.85714285714286  L 2.57192203306193 1.85714285714286  L 2.57192203306193 0.464594127806562  C 2.57093510979521 0.287934863064396  2.71601283000247 0.142857142857142  2.89267209474463 0.142857142857142  L 3.96447076239822 0.142857142857142  C 4.14113002714039 0.142857142857142  4.28620774734764 0.287934863064396  4.28620774734764 0.464594127806562  L 4.28620774734764 1.85714285714286  L 7.71477917591907 1.85714285714286  L 7.71477917591907 0.464594127806562  C 7.71379225265236 0.287934863064396  7.85886997285961 0.142857142857142  8.03552923760178 0.142857142857142  L 9.10732790525537 0.142857142857142  C 9.28398716999753 0.142857142857142  9.42906489020479 0.287934863064396  9.42906489020479 0.464594127806562  L 9.42906489020479 1.85714285714286  L 10.7150259067358 1.85714285714286  Z M 10.554157414261 12.5711818406119  C 10.6419935849988 12.5711818406119  10.714038983469 12.4991364421416  10.714038983469 12.4103133481372  L 10.714038983469 4.42807796693807  L 1.28596101653096 4.42807796693807  L 1.28596101653096 12.4103133481372  C 1.28596101653096 12.4991364421416  1.35800641500123 12.5711818406119  1.44682950900567 12.5711818406119  L 10.554157414261 12.5711818406119  Z " fill-rule="nonzero" fill="#aaaaaa" stroke="none" transform="matrix(1 0 0 1 1175 483 )" />
  </g>
</svg>