<?xml version="1.0" encoding="utf-8"?>
<svg version="1.1" xmlns:xlink="http://www.w3.org/1999/xlink" width="20px" height="20px" xmlns="http://www.w3.org/2000/svg">
  <g transform="matrix(1 0 0 1 -304 -406 )">
    <path d="M 7.5141334276781 17.4831190796609  C 4.58016058016058 17.4831190796609  1.63416773215044 16.9524178457896  0.0227591812606223 15.8170741628955  L 0.0227591812606223 17.4831190796609  C 0.0227591812606223 18.8603197421641  3.37852477333745 19.9803652426131  7.5141334276781 19.9803652426131  C 11.6497420820187 19.9803652426131  15.0055076740956 18.8606839846033  15.0055076740956 17.4831190796609  L 15.0055076740956 15.8170741628955  C 13.3940991232058 16.9524178457896  10.4481062751956 17.4831190796609  7.5141334276781 17.4831190796609  Z M 5.01688726472588 2.50000634438675  C 5.01688726472588 3.87757124932917  8.37265285680271 4.99725250733896  12.5086257535825 4.99725250733896  C 16.6445986503623 4.99725250733896  20 3.87757124932917  20 2.50000634438675  C 20 1.12244143944432  16.6445986503623 0.00276018143453239  12.5086257535825 0.00276018143453239  C 8.37265285680271 0.00276018143453239  5.01688726472588 1.12244143944432  5.01688726472588 2.50000634438675  Z M 7.5141334276781 13.7372498352325  C 4.58416724699145 13.7372498352325  1.63416773215044 13.0506528373964  0.0227591812606223 11.7237176314986  L 0.0227591812606223 13.7372498352325  C 0.0227591812606223 15.1144504977358  3.37852477333745 16.2344959981848  7.5141334276781 16.2344959981848  C 11.6497420820187 16.2344959981848  15.0055076740956 15.114814740175  15.0055076740956 13.7372498352325  L 15.0055076740956 11.7237176314986  C 13.3940991232058 13.0502885949572  10.4440996083647 13.7372498352325  7.5141334276781 13.7372498352325  Z M 16.2541307555717 9.67157572921262  L 16.2541307555717 12.1531594672805  C 18.4898508471996 11.7200752071069  20 10.9161921438579  20 9.99138059080422  L 20 8.32533567403884  C 19.0948575386616 8.96530963966122  17.7642799083721 9.4024005666657  16.2541307555717 9.67157572921262  Z M 15.0055076740956 9.36743329250534  C 15.0055076740956 7.64274534303353  11.6501063244579 6.24587558881507  7.5141334276781 6.24587558881507  C 3.37816053089828 6.24587558881507  0.0227591812606223 7.64274534303353  0.0227591812606223 9.36743329250534  C 0.0227591812606223 11.0921212419771  3.37852477333745 12.4889909961956  7.5141334276781 12.4889909961956  C 11.6497420820187 12.4889909961956  15.0055076740956 11.0921212419771  15.0055076740956 9.36743329250534  Z M 13.7295664096817 6.21090831465471  C 14.8809367598993 6.76856348902458  15.7274361885313 7.51781018639808  16.070916808669 8.44262173945171  C 18.4119029652171 8.02119323733157  20 7.1939986579756  20 6.24587558881507  L 20 4.57983067204969  C 18.614786003835 5.55927859097888  16.2348259062956 6.08597315801927  13.7295664096817 6.21090831465471  Z " fill-rule="nonzero" fill="#ff9f1c" stroke="none" transform="matrix(1 0 0 1 304 406 )" />
  </g>
</svg>