<?xml version="1.0" encoding="utf-8"?>
<svg version="1.1" xmlns:xlink="http://www.w3.org/1999/xlink" width="20px" height="18px" xmlns="http://www.w3.org/2000/svg">
  <g transform="matrix(1 0 0 1 -485 -407 )">
    <path d="M 14.0427210056289 0.0176712816482261  L 16.8047361725897 0.0176712816482264  L 19.9373680214063 5.63647514829071  L 16.4379969102475 5.63647514829071  L 14.0427210056289 0.0176712816482261  Z M 7.5629067615681 0.0176712816482261  L 12.3741381415454 0.0176712816482264  L 14.7694140461641 5.63647514829071  L 5.16763085694944 5.63647514829071  L 7.5629067615681 0.0176712816482261  Z M 0 5.63647514829071  L 3.13263184881666 0.0176712816482264  L 5.89464701577744 0.0176712816482264  L 3.49937111115878 5.63647514829071  L 0 5.63647514829071  Z M 7.56969224571716 15.7152455613551  L 0 6.76023592161921  L 3.48547702456785 6.76023592161921  L 7.74288365066463 15.5991979202354  C 7.79490569580744 15.7080335610595  7.64950246404183 15.8063790196355  7.56969224571716 15.7152455613551  Z M 9.87514126493396 17.934246925025  L 5.12950289839757 6.76023592161921  L 14.8072188864231 6.76023592161921  L 10.0654579394005 17.934246925025  C 10.0308842820696 18.0184962012051  9.90971492226489 18.0184962012051  9.87514126493396 17.934246925025  Z M 12.1941612524489 15.5988701020401  L 16.4515678785457 6.75990810342395  L 19.9370449031135 6.75990810342395  L 12.3673526573963 15.711311743012  C 12.2875424390717 15.8060512014403  12.1421392073061 15.7077057428642  12.1941612524489 15.5988701020401  Z " fill-rule="nonzero" fill="#80ffff" stroke="none" transform="matrix(1 0 0 1 485 407 )" />
  </g>
</svg>