<?xml version="1.0" encoding="utf-8"?>
<svg version="1.1" xmlns:xlink="http://www.w3.org/1999/xlink" width="10px" height="10px" xmlns="http://www.w3.org/2000/svg">
  <g transform="matrix(1 0 0 1 -706 -391 )">
    <path d="M 4.375 8.37239583333333  C 4.48784722222222 8.37239583333333  4.58550347222222 8.33116319444444  4.66796875 8.24869791666667  L 7.62369791666667 5.29296875  C 7.70616319444445 5.21050347222222  7.74739583333333 5.11284722222222  7.74739583333333 5  C 7.74739583333333 4.88715277777778  7.70616319444445 4.78949652777778  7.62369791666667 4.70703125  L 4.66796875 1.75130208333333  C 4.58550347222222 1.66883680555555  4.48784722222222 1.62760416666667  4.375 1.62760416666667  C 4.26215277777778 1.62760416666667  4.16449652777778 1.66883680555555  4.08203125 1.75130208333333  L 3.41796875 2.41536458333333  C 3.33550347222222 2.49782986111111  3.29427083333333 2.59548611111111  3.29427083333333 2.70833333333333  C 3.29427083333333 2.82118055555555  3.33550347222222 2.91883680555555  3.41796875 3.00130208333333  L 5.41666666666667 5  L 3.41796875 6.99869791666667  C 3.33550347222222 7.08116319444444  3.29427083333333 7.17881944444444  3.29427083333333 7.29166666666667  C 3.29427083333333 7.40451388888889  3.33550347222222 7.50217013888889  3.41796875 7.58463541666667  L 4.08203125 8.24869791666667  C 4.16449652777778 8.33116319444444  4.26215277777778 8.37239583333333  4.375 8.37239583333333  Z M 9.32942708333333 2.490234375  C 9.77647569444444 3.25629340277778  10 4.09288194444444  10 5  C 10 5.90711805555556  9.77647569444444 6.74370659722222  9.32942708333333 7.509765625  C 8.88237847222222 8.27582465277778  8.27582465277778 8.88237847222222  7.509765625 9.32942708333333  C 6.74370659722222 9.77647569444444  5.90711805555556 10  5 10  C 4.09288194444444 10  3.25629340277778 9.77647569444444  2.490234375 9.32942708333333  C 1.72417534722222 8.88237847222222  1.11762152777778 8.27582465277778  0.670572916666667 7.509765625  C 0.223524305555556 6.74370659722222  0 5.90711805555556  0 5  C 0 4.09288194444444  0.223524305555556 3.25629340277778  0.670572916666667 2.490234375  C 1.11762152777778 1.72417534722222  1.72417534722222 1.11762152777778  2.490234375 0.670572916666666  C 3.25629340277778 0.223524305555555  4.09288194444444 0  5 0  C 5.90711805555556 0  6.74370659722222 0.223524305555555  7.509765625 0.670572916666666  C 8.27582465277778 1.11762152777778  8.88237847222222 1.72417534722222  9.32942708333333 2.490234375  Z " fill-rule="nonzero" fill="#ffffff" stroke="none" transform="matrix(1 0 0 1 706 391 )" />
  </g>
</svg>