<?xml version="1.0" encoding="utf-8"?>
<svg version="1.1" xmlns:xlink="http://www.w3.org/1999/xlink" width="10px" height="15px" xmlns="http://www.w3.org/2000/svg">
  <g transform="matrix(1 0 0 1 0 -27 )">
    <path d="M 5.92132505175984 13.4068136272545  C 5.99033816425121 13.5070140280561  6.02484472049689 13.622244488978  6.02484472049689 13.75250501002  C 6.02484472049689 13.8827655310621  5.99033816425121 13.997995991984  5.92132505175984 14.0981963927856  L 5.40372670807453 14.8496993987976  C 5.33471359558316 14.9498997995992  5.25534851621808 15  5.1656314699793 15  C 5.07591442374051 15  4.99654934437543 14.9498997995992  4.92753623188406 14.8496993987976  L 0.10351966873706 7.84569138276553  C 0.0345065562456867 7.74549098196393  0 7.63026052104208  0 7.5  C 0 7.36973947895792  0.0345065562456867 7.25450901803607  0.10351966873706 7.15430861723447  L 4.92753623188406 0.150300601202405  C 4.99654934437543 0.0501002004008011  5.07591442374051 0  5.1656314699793 0  C 5.25534851621808 0  5.33471359558316 0.0501002004008011  5.40372670807453 0.150300601202405  L 5.92132505175984 0.901803607214428  C 5.99033816425121 1.00200400801603  6.02484472049689 1.11723446893787  6.02484472049689 1.24749498997996  C 6.02484472049689 1.37775551102204  5.99033816425121 1.49298597194389  5.92132505175984 1.59318637274549  L 1.85300207039337 7.5  L 5.92132505175984 13.4068136272545  Z M 9.89648033126294 13.4068136272545  C 9.96549344375431 13.5070140280561  10 13.622244488978  10 13.75250501002  C 10 13.8827655310621  9.96549344375431 13.997995991984  9.89648033126294 14.0981963927856  L 9.37888198757764 14.8496993987976  C 9.30986887508627 14.9498997995992  9.23050379572119 15  9.1407867494824 15  C 9.05106970324362 15  8.97170462387854 14.9498997995992  8.90269151138716 14.8496993987976  L 4.07867494824017 7.84569138276553  C 4.00966183574879 7.74549098196393  3.97515527950311 7.63026052104208  3.97515527950311 7.5  C 3.97515527950311 7.36973947895792  4.00966183574879 7.25450901803607  4.07867494824017 7.15430861723447  L 8.90269151138716 0.150300601202405  C 8.97170462387854 0.0501002004008011  9.05106970324362 0  9.1407867494824 0  C 9.23050379572119 0  9.30986887508627 0.0501002004008011  9.37888198757764 0.150300601202405  L 9.89648033126294 0.901803607214428  C 9.96549344375431 1.00200400801603  10 1.11723446893787  10 1.24749498997996  C 10 1.37775551102204  9.96549344375431 1.49298597194389  9.89648033126294 1.59318637274549  L 5.82815734989648 7.5  L 9.89648033126294 13.4068136272545  Z " fill-rule="nonzero" fill="#000000" stroke="none" transform="matrix(1 0 0 1 0 27 )" />
  </g>
</svg>