<?xml version="1.0" encoding="utf-8"?>
<svg version="1.1" xmlns:xlink="http://www.w3.org/1999/xlink" width="7px" height="12px" xmlns="http://www.w3.org/2000/svg">
  <g transform="matrix(1 0 0 1 -56 -960 )">
    <path d="M 0.0525128865979312 9.68492268041237  L 0.0724871134020617 9.68492268041237  C 0.791559278350519 10.2541881443299  1.61050257731959 10.5438144329897  2.51932989690722 10.5438144329897  C 3.24838917525773 10.5438144329897  3.83762886597939 10.3640463917526  4.29703608247424 9.99452319587629  C 4.75644329896908 9.625  4.9861469072165 9.11565721649484  4.9861469072165 8.47648195876289  C 4.9861469072165 7.06829896907216  3.98743556701032 6.35921391752577  2 6.35921391752577  L 1.12113402061856 6.35921391752577  L 1.12113402061856 5.37048969072165  L 1.95006443298969 5.37048969072165  C 3.71778350515464 5.37048969072165  4.59664948453608 4.71134020618557  4.59664948453608 3.3930412371134  C 4.59664948453608 2.16462628865979  3.92751288659793 1.55541237113402  2.57925257731958 1.55541237113402  C 1.83021907216494 1.55541237113402  1.13112113402061 1.81507731958763  0.47197164948453 2.32442010309278  L 0.47197164948453 1.18588917525773  C 1.14110824742268 0.776417525773196  1.94007731958762 0.576675257731959  2.85889175257731 0.576675257731959  C 3.69780927835051 0.576675257731959  4.38692010309278 0.806378865979382  4.93621134020618 1.26578608247423  C 5.48550257731958 1.72519329896907  5.75515463917525 2.33440721649484  5.75515463917525 3.09342783505155  C 5.75515463917525 4.48163659793814  5.04606958762886 5.37048969072165  3.62789948453607 5.77996134020619  L 3.62789948453607 5.80992268041237  C 4.37693298969072 5.86984536082474  4.98614690721649 6.13949742268041  5.43556701030927 6.59890463917526  C 5.89497422680412 7.0583118556701  6.12467783505154 7.63756443298969  6.12467783505154 8.33666237113402  C 6.12467783505154 9.30541237113402  5.77512886597937 10.0744201030928  5.0860180412371 10.6436855670103  C 4.39690721649484 11.2129510309278  3.50805412371133 11.5025773195876  2.42944587628865 11.5025773195876  C 1.44072164948453 11.5025773195876  0.641752577319586 11.3128221649485  0.0525128865979312 10.9333118556701  L 0.0525128865979312 9.68492268041237  Z " fill-rule="nonzero" fill="#ffffff" stroke="none" transform="matrix(1 0 0 1 56 960 )" />
  </g>
</svg>