<?xml version="1.0" encoding="utf-8"?>
<svg version="1.1" xmlns:xlink="http://www.w3.org/1999/xlink" width="17px" height="17px" xmlns="http://www.w3.org/2000/svg">
  <g transform="matrix(1 0 0 1 -302 -828 )">
    <path d="M 4.28455284552845 4.28455284552845  C 4.28455284552845 6.61358739837398  6.17096544715447 8.5  8.5 8.5  C 10.8290345528455 8.5  12.7154471544715 6.61358739837398  12.7154471544715 4.28455284552845  C 12.7154471544715 1.95551829268293  10.8290345528455 0.0691056910569103  8.5 0.0691056910569103  C 6.17096544715447 0.0691056910569103  4.28455284552845 1.95551829268293  4.28455284552845 4.28455284552845  Z M 16.9308943089431 14.8231707317073  C 16.9308943089431 12.0198983739837  11.3138109756098 10.6077235772358  8.5 10.6077235772358  C 5.68618902439024 10.6077235772358  0.0691056910569103 12.0198983739837  0.0691056910569103 14.8231707317073  L 0.0691056910569103 17  L 16.9308943089431 17  L 16.9308943089431 14.8231707317073  Z " fill-rule="nonzero" fill="#2e3d47" stroke="none" transform="matrix(1 0 0 1 302 828 )" />
  </g>
</svg>