<?xml version="1.0" encoding="utf-8"?>
<svg version="1.1" xmlns:xlink="http://www.w3.org/1999/xlink" width="24px" height="16px" xmlns="http://www.w3.org/2000/svg">
  <g transform="matrix(1 0 0 1 -402 -828 )">
    <path d="M 13.0701754385965 3.6036036036036  C 13.0701754385965 5.42810810810811  14.5042105263158 6.9009009009009  16.280701754386 6.9009009009009  C 18.0571929824561 6.9009009009009  19.4805263157895 5.42810810810811  19.4805263157895 3.6036036036036  C 19.4805263157895 1.7790990990991  18.0571929824561 0.306306306306306  16.280701754386 0.306306306306306  C 14.5042105263158 0.306306306306306  13.0701754385965 1.7790990990991  13.0701754385965 3.6036036036036  Z M 4.50877192982456 3.6036036036036  C 4.50877192982456 5.42810810810811  5.94280701754386 6.9009009009009  7.71929824561403 6.9009009009009  C 9.49578947368421 6.9009009009009  10.9191228070175 5.42810810810811  10.9191228070175 3.6036036036036  C 10.9191228070175 1.7790990990991  9.49578947368421 0.306306306306306  7.71929824561403 0.306306306306306  C 5.94280701754386 0.306306306306306  4.50877192982456 1.7790990990991  4.50877192982456 3.6036036036036  Z M 15.2105263157895 12.9459459459459  C 15.2105263157895 10.385045045045  10.2128070175439 9.0990990990991  7.71929824561403 9.0990990990991  C 5.22578947368421 9.0990990990991  0.228070175438596 10.385045045045  0.228070175438596 12.9459459459459  L 0.228070175438596 15.6936936936937  L 15.2105263157895 15.6936936936937  L 15.2105263157895 12.9459459459459  Z M 23.7719298245614 12.9459459459459  C 23.7719298245614 10.385045045045  18.7742105263158 9.0990990990991  16.280701754386 9.0990990990991  C 15.970350877193 9.0990990990991  15.6171929824561 9.12108108108108  15.2426315789474 9.15405405405406  C 16.4840350877193 10.0772972972973  17.3508771929825 11.3192792792793  17.3508771929825 12.9459459459459  L 17.3508771929825 15.6936936936937  L 23.7719298245614 15.6936936936937  L 23.7719298245614 12.9459459459459  Z " fill-rule="nonzero" fill="#2e3d47" stroke="none" transform="matrix(1 0 0 1 402 828 )" />
  </g>
</svg>