<?xml version="1.0" encoding="utf-8"?>
<svg version="1.1" xmlns:xlink="http://www.w3.org/1999/xlink" width="20px" height="14px" xmlns="http://www.w3.org/2000/svg">
  <defs>
    <mask fill="white" id="clip4">
      <path d="M 19.0796042421107 13.1473745473357  C 19.078634247284 13.6168520434558  18.6954862907398 14  18.2260087946198 14  C 18.2260087946198 14  1.32481893429902 14  1.32481893429902 14  C 0.856311433005691 14  0.472193481634765 13.6158820486291  0.472193481634765 13.1473745473357  C 0.472193481634765 13.1473745473357  0.472193481634765 1.34156751163994  0.472193481634765 1.34156751163994  C 0.472193481634765 0.873060010346613  0.856311433005691 0.488942058975687  1.32481893429902 0.488942058975687  C 1.32481893429902 0.488942058975687  18.2269787894465 0.488942058975687  18.2269787894465 0.488942058975687  C 18.6954862907398 0.488942058975687  19.0796042421107 0.873060010346613  19.0796042421107 1.34156751163994  C 19.0796042421107 1.34156751163994  19.0796042421107 13.1473745473357  19.0796042421107 13.1473745473357  Z " fill-rule="evenodd" />
    </mask>
  </defs>
  <g transform="matrix(1 0 0 1 -22 -46 )">
    <path d="M 19.0796042421107 13.1473745473357  C 19.078634247284 13.6168520434558  18.6954862907398 14  18.2260087946198 14  C 18.2260087946198 14  1.32481893429902 14  1.32481893429902 14  C 0.856311433005691 14  0.472193481634765 13.6158820486291  0.472193481634765 13.1473745473357  C 0.472193481634765 13.1473745473357  0.472193481634765 1.34156751163994  0.472193481634765 1.34156751163994  C 0.472193481634765 0.873060010346613  0.856311433005691 0.488942058975687  1.32481893429902 0.488942058975687  C 1.32481893429902 0.488942058975687  18.2269787894465 0.488942058975687  18.2269787894465 0.488942058975687  C 18.6954862907398 0.488942058975687  19.0796042421107 0.873060010346613  19.0796042421107 1.34156751163994  C 19.0796042421107 1.34156751163994  19.0796042421107 13.1473745473357  19.0796042421107 13.1473745473357  Z " fill-rule="nonzero" fill="#ffffff" stroke="none" fill-opacity="0" transform="matrix(1 0 0 1 22 46 )" />
    <path d="M 19.0796042421107 13.1473745473357  C 19.078634247284 13.6168520434558  18.6954862907398 14  18.2260087946198 14  C 18.2260087946198 14  1.32481893429902 14  1.32481893429902 14  C 0.856311433005691 14  0.472193481634765 13.6158820486291  0.472193481634765 13.1473745473357  C 0.472193481634765 13.1473745473357  0.472193481634765 1.34156751163994  0.472193481634765 1.34156751163994  C 0.472193481634765 0.873060010346613  0.856311433005691 0.488942058975687  1.32481893429902 0.488942058975687  C 1.32481893429902 0.488942058975687  18.2269787894465 0.488942058975687  18.2269787894465 0.488942058975687  C 18.6954862907398 0.488942058975687  19.0796042421107 0.873060010346613  19.0796042421107 1.34156751163994  C 19.0796042421107 1.34156751163994  19.0796042421107 13.1473745473357  19.0796042421107 13.1473745473357  Z " stroke-width="0.969994826694258" stroke="#ff9f1c" fill="none" transform="matrix(1 0 0 1 22 46 )" mask="url(#clip4)" />
  </g>
</svg>