<?xml version="1.0" encoding="utf-8"?>
<svg version="1.1" xmlns:xlink="http://www.w3.org/1999/xlink" width="3px" height="3px" xmlns="http://www.w3.org/2000/svg">
  <defs>
    <mask fill="white" id="clip5">
      <path d="M 0.103109825395185 0  C 0.103109825395185 0  0.103109825395185 2.72368013224507  0.103109825395185 2.72368013224507  C 0.103109825395185 2.72368013224507  2.82678995764025 2.72368013224507  2.82678995764025 2.72368013224507  C 2.82678995764025 2.72368013224507  0.103109825395185 0  0.103109825395185 0  Z " fill-rule="evenodd" />
    </mask>
  </defs>
  <g transform="matrix(1 0 0 1 -37 -242 )">
    <path d="M 0.103109825395185 0  C 0.103109825395185 0  0.103109825395185 2.72368013224507  0.103109825395185 2.72368013224507  C 0.103109825395185 2.72368013224507  2.82678995764025 2.72368013224507  2.82678995764025 2.72368013224507  C 2.82678995764025 2.72368013224507  0.103109825395185 0  0.103109825395185 0  Z " fill-rule="nonzero" fill="#ffffff" stroke="none" fill-opacity="0" transform="matrix(1 0 0 1 37 242 )" />
    <path d="M 0.103109825395185 0  C 0.103109825395185 0  0.103109825395185 2.72368013224507  0.103109825395185 2.72368013224507  C 0.103109825395185 2.72368013224507  2.82678995764025 2.72368013224507  2.82678995764025 2.72368013224507  C 2.82678995764025 2.72368013224507  0.103109825395185 0  0.103109825395185 0  Z " stroke-width="0.981506353962186" stroke="#ff9f1c" fill="none" transform="matrix(1 0 0 1 37 242 )" mask="url(#clip5)" />
  </g>
</svg>