<?xml version="1.0" encoding="utf-8"?>
<svg version="1.1" xmlns:xlink="http://www.w3.org/1999/xlink" width="7px" height="7px" xmlns="http://www.w3.org/2000/svg">
  <g transform="matrix(1 0 0 1 -33 -248 )">
    <path d="M 36.5 248  C 38.46 248  40 249.54  40 251.5  C 40 253.46  38.46 255  36.5 255  C 34.54 255  33 253.46  33 251.5  C 33 249.54  34.54 248  36.5 248  Z " fill-rule="nonzero" fill="#ffffff" stroke="none" fill-opacity="0" />
    <path d="M 36.5 248.245376588491  C 38.3225891104453 248.245376588491  39.7546234115094 249.677410889555  39.7546234115094 251.5  C 39.7546234115094 253.322589110445  38.3225891104453 254.754623411509  36.5 254.754623411509  C 34.6774108895547 254.754623411509  33.2453765884905 253.322589110445  33.2453765884905 251.5  C 33.2453765884905 249.677410889555  34.6774108895547 248.245376588491  36.5 248.245376588491  Z " stroke-width="0.490753176981093" stroke="#ff9f1c" fill="none" />
  </g>
</svg>