<?xml version="1.0" encoding="utf-8"?>
<svg version="1.1" xmlns:xlink="http://www.w3.org/1999/xlink" width="32px" height="25px" xmlns="http://www.w3.org/2000/svg">
  <g transform="matrix(1 0 0 1 -180 -27 )">
    <path d="M 31 2.85545490350532  C 31.2906656163844 1.44742024419063  30.1484836549823 0.305238282788499  28.7404489956676 0.305238282788499  L 3.25797558093738 0.305238282788499  C 1.84994092162269 0.305238282788499  0.707758960220564 1.44742024419063  1 2.85545490350532  L 1 21.5439149271367  C 0.707758960220564 22.9519495864514  1.84994092162269 24.0941315478535  3.25797558093738 24  L 28.7404489956676 24  C 30.1484836549823 24.0941315478535  31.2906656163844 22.9519495864514  31 21.5439149271367  L 31 2.85545490350532  Z M 28.7404489956676 3  L 28.7404489956676 21.5439149271367  L 3.25797558093738 21.5439149271367  L 3.25797558093738 3  L 28.7404489956676 3  Z M 8.35840882237101 8.80267821977156  C 8.35840882237101 10.6833398975975  9.87475384009453 12.199684915321  11.7554155179204 12.199684915321  C 13.6262307995274 12.199684915321  15.1524222134699 10.6734935013785  15.1524222134699 8.80267821977156  C 15.1524222134699 6.93186293816463  13.6262307995274 5.40567152422214  11.7554155179204 5.40567152422214  C 9.88460023631352 5.40567152422214  8.35840882237101 6.92201654194565  8.35840882237101 8.80267821977156  Z M 5.79834580543521 17.9696730996455  C 5.8081922016542 18.5407640803466  6.33989759747933 18.9936983064198  6.98975974793226 18.9936983064198  L 16.5013784954707 18.9936983064198  C 17.1610870421426 18.9936983064198  17.6927924379677 18.5407640803466  17.6927924379677 17.9696730996455  L 17.6927924379677 16.9456478928712  C 17.6927924379677 15.261914139425  16.0976762504923 13.8834186687672  14.1283970066956 13.8834186687672  C 13.5573060259945 13.8834186687672  13.1339109885782 14.3068137061835  11.7455691217015 14.3068137061835  C 10.3178416699488 14.3068137061835  9.97321780228437 13.8834186687672  9.36274123670737 13.8834186687672  C 7.3934619929106 13.8834186687672  5.79834580543521 15.252067743206  5.79834580543521 16.9456478928712  L 5.79834580543521 17.9696730996455  Z M 19.3962189838519 15.1732965734541  C 19.3962189838519 15.3997636864907  19.5931469082316 15.5966916108704  19.8196140212682 15.5966916108704  L 25.7668373375345 15.5966916108704  C 26.0031508467901 15.5966916108704  26.1902323749508 15.4096100827097  26.1902323749508 15.1732965734541  L 26.1902323749508 14.3265064986215  C 26.1902323749508 14.0901929893659  26.0031508467901 13.9031114612052  25.7668373375345 13.9031114612052  L 19.8196140212682 13.9031114612052  C 19.5833005120126 13.9031114612052  19.3962189838519 14.0901929893659  19.3962189838519 14.3265064986215  L 19.3962189838519 15.1732965734541  Z M 19.3962189838519 11.7762898779047  C 19.3962189838519 12.0027569909413  19.5931469082316 12.199684915321  19.8196140212682 12.199684915321  L 25.7668373375345 12.199684915321  C 26.0031508467901 12.199684915321  26.1902323749508 12.0126033871603  26.1902323749508 11.7762898779047  L 26.1902323749508 10.9294998030721  C 26.1902323749508 10.6931862938165  26.0031508467901 10.5061047656558  25.7668373375345 10.5061047656558  L 19.8196140212682 10.5061047656558  C 19.5833005120126 10.5061047656558  19.3962189838519 10.6931862938165  19.3962189838519 10.9294998030721  L 19.3962189838519 11.7762898779047  Z M 19.3962189838519 8.36943678613627  C 19.3962189838519 8.60575029539189  19.5931469082316 8.80267821977156  19.8196140212682 8.80267821977156  L 25.7668373375345 8.80267821977156  C 26.0031508467901 8.80267821977156  26.1902323749508 8.61559669161087  26.1902323749508 8.37928318235526  L 26.1902323749508 7.52264671130366  C 26.1902323749508 7.28633320204805  26.0031508467901 7.09925167388736  25.7668373375345 7.09925167388736  L 19.8196140212682 7.09925167388736  C 19.5833005120126 7.09925167388736  19.3962189838519 7.28633320204805  19.3962189838519 7.52264671130366  L 19.3962189838519 8.36943678613627  Z " fill-rule="nonzero" fill="#c4b09d" stroke="none" transform="matrix(1 0 0 1 180 27 )" />
  </g>
</svg>