<?xml version="1.0" encoding="utf-8"?>
<svg version="1.1" xmlns:xlink="http://www.w3.org/1999/xlink" width="13px" height="13px" xmlns="http://www.w3.org/2000/svg">
  <g transform="matrix(1 0 0 1 -480 -362 )">
    <path d="M 6.25565186980091 0.901326471984206  L 4.79678249356749 4.13881741650221  L 1.52931478104469 4.65841472858535  C 0.939771676950357 4.74834503259974  0.709949788913605 5.53773325672604  1.12962454098073 5.99737703279958  L 3.48779695735806 8.51542554520248  L 2.92823062126854 12.0726686817716  C 2.82830806125256 12.712173065874  3.44782793335168 13.2017936099523  3.96742524543478 12.8920336739027  L 6.88516399790163 11.2133346656341  L 9.80290275036845 12.8920336739027  C 10.3225000624516 13.1918013539507  10.9420199345507 12.712173065874  10.8420973745347 12.0726686817716  L 10.2825310384452 8.51542554520248  L 12.6407034548225 5.99737703279958  C 13.0603782068896 5.54772551272764  12.8305563188529 4.75833728860133  12.2410132147585 4.65841472858535  L 8.97354550223574 4.13881741650221  L 7.51467612600231 0.901326471984206  C 7.27486198196399 0.321775623891483  6.51545052584248 0.321775623891483  6.25565186980091 0.901326471984206  Z " fill-rule="nonzero" fill="#ff9f1c" stroke="none" transform="matrix(1 0 0 1 480 362 )" />
  </g>
</svg>