<?xml version="1.0" encoding="utf-8"?>
<svg version="1.1" xmlns:xlink="http://www.w3.org/1999/xlink" width="14px" height="13px" xmlns="http://www.w3.org/2000/svg">
  <g transform="matrix(1 0 0 1 -496 -362 )">
    <path d="M 6.19330019235093 0.901326471984206  L 4.59453923209514 4.13881741650221  L 1.02730383952439 4.65841472858535  C 0.387799455422083 4.74834503259974  0.128000799380487 5.53773325672604  0.597636831455645 5.99737703279958  L 3.18563113586973 8.51542554520248  L 2.57610351977218 12.0726686817716  C 2.46618870375457 12.712173065874  3.14566211186332 13.2017936099523  3.70522844795283 12.8920336739027  L 6.90275036846444 11.2133346656341  L 10.100272288976 12.8920336739027  C 10.6698308810672 13.1918013539507  11.3393120331743 12.712173065874  11.2293972171567 12.0726686817716  L 10.6198696010592 8.51542554520248  L 13.2078639054732 5.99737703279958  C 13.6675076815468 5.54772551272764  13.4177012815068 4.75833728860133  12.7781968974045 4.65841472858535  L 9.2109615048337 4.13881741650221  L 7.61220054457792 0.901326471984206  C 7.31243286453 0.321775623891483  6.48307561639729 0.321775623891483  6.19330019235093 0.901326471984206  Z " fill-rule="nonzero" fill="#ff9f1c" stroke="none" transform="matrix(1 0 0 1 496 362 )" />
  </g>
</svg>