<?xml version="1.0" encoding="utf-8"?>
<svg version="1.1" xmlns:xlink="http://www.w3.org/1999/xlink" width="10px" height="16px" xmlns="http://www.w3.org/2000/svg">
  <g transform="matrix(1 0 0 1 -644 -501 )">
    <path d="M 9.85576178461696 1.89283305438283  C 9.84576952861534 1.11343708625813  9.21625740051456 0.473932702155821  8.43686143238989 0.473932702155821  L 1.82198795933152 0.473932702155821  C 1.04259199120685 0.473932702155821  0.40308760710451 1.11343708625813  0.40308760710451 1.89283305438283  L 0.40308760710451 14.1733156803477  C 0.40308760710451 14.9527116484724  1.04259199120679 15.5922160325747  1.82198795933152 15.5922160325747  L 8.43686143238989 15.5922160325747  C 9.21625740051456 15.5922160325747  9.85576178461696 14.9527116484724  9.85576178461696 14.1733156803477  L 9.85576178461696 1.89283305438283  Z M 6.07868901601262 13.7036796482726  C 6.07868901601262 14.2332692163573  5.64902200794381 14.6529439684245  5.12942469586073 14.6529439684245  C 4.6098273837776 14.6529439684245  4.18016037570885 14.2332692163573  4.18016037570885 13.7036796482726  C 4.18016037570885 13.1740900801879  4.59983512777603 12.7544153281207  5.12942469586073 12.7544153281207  C 5.64902200794381 12.7544153281207  6.07868901601262 13.1740900801879  6.07868901601262 13.7036796482726  Z M 8.43686143238989 2.24256201443882  L 8.43686143238989 11.4554220479129  C 8.43686143238989 11.6552671679448  8.27698533636431 11.8051510079688  8.08713247233396 11.8051510079688  L 2.18170917538902 11.8051510079688  C 1.98186405535705 11.8051510079688  1.83198021533309 11.6452749119432  1.83198021533309 11.4554220479129  L 1.83198021533309 2.24256201443882  C 1.83198021533309 2.04271689440685  1.99185631135867 1.89283305438286  2.18170917538902 1.89283305438286  L 8.08713247233396 1.89283305438286  C 8.28697759236587 1.89283305438286  8.43686143238989 2.05270915040845  8.43686143238989 2.24256201443882  Z " fill-rule="nonzero" fill="#726254" stroke="none" transform="matrix(1 0 0 1 644 501 )" />
  </g>
</svg>