<?xml version="1.0" encoding="utf-8"?>
<svg version="1.1" xmlns:xlink="http://www.w3.org/1999/xlink" width="8px" height="9px" xmlns="http://www.w3.org/2000/svg">
  <g transform="matrix(1 0 0 1 -758 -505 )">
    <path d="M 2.73293197771733 8.98501161599759  L 0.464689865354387 8.98501161599759  L 0.464689865354387 0.271764382603465  L 2.82286228173172 0.271764382603465  C 5.89048487422252 0.271764382603465  7.41930004246717 1.69066473483048  7.41930004246717 4.51847318328294  C 7.41930004246717 5.87741999950038  7.00961754640156 6.95658364767303  6.18026029826888 7.76595638380252  C 5.3509030501362 8.57532911993204  4.20179360995235 8.98501161599759  2.73293197771733 8.98501161599759  Z M 2.81287002573004 1.15108291074418  L 1.42394644150784 1.15108291074418  L 1.42394644150784 8.10569308785693  L 2.75291648972046 8.10569308785693  C 3.91201818590594 8.10569308785693  4.81132122604981 7.79593315180736  5.46081786615372 7.17641327970824  C 6.11031450625762 6.5568934076091  6.43006669830879 5.67757487946841  6.43006669830879 4.54844995128775  C 6.43006669830879 2.28020783892484  5.22100372211537 1.15108291074418  2.81287002573004 1.15108291074418  Z " fill-rule="nonzero" fill="#38b2c6" stroke="none" transform="matrix(1 0 0 1 758 505 )" />
  </g>
</svg>