<?xml version="1.0" encoding="utf-8"?>
<svg version="1.1" xmlns:xlink="http://www.w3.org/1999/xlink" width="16px" height="16px" xmlns="http://www.w3.org/2000/svg">
  <g transform="matrix(1 0 0 1 -1093 -441 )">
    <path d="M 6.74020134395835 4.24673378131948  L 4.71177337563381 0.869351252779097  C 4.54190502360666 0.58956808473431  4.23214508755711 0.409707476705535  3.90240063950444 0.409707476705535  L 0.644925182983229 0.409707476705535  C 0.26521945492243 0.409707476705535  0.0453898228872731 0.839374484774282  0.26521945492243 1.14913442082386  L 3.53268716744526 5.81551797357045  C 4.39202118358264 4.99615298143937  5.50116159976005 4.43658664534985  6.74020134395835 4.24673378131948  Z M 15.1137118732983 1.14913442082386  C 15.3235492493317 0.839374484774282  15.1037196172965 0.409707476705535  14.7240138892357 0.409707476705535  L 11.4665384327146 0.409707476705535  C 11.1367939846618 0.409707476705535  10.8270340486123 0.579575828732715  10.6571656965851 0.869351252779097  L 8.6287377282606 4.24673378131948  C 9.85778521645727 4.43658664534985  10.9669256326348 4.99615298143937  11.8462441607754 5.81551797357045  L 15.1137118732983 1.14913442082386  Z M 12.8454697609352 10.2720641502835  C 12.8454697609352 7.4142789338263  10.537258624566 5.10606779745697  7.67947340810872 5.10606779745697  C 4.83168044765307 5.10606779745697  2.51347705528212 7.4142789338263  2.51347705528212 10.2720641502835  C 2.51347705528212 13.1298493667408  4.82168819165145 15.4380605031101  7.67947340810872 15.4380605031101  C 10.5272663685644 15.4380605031101  12.8454697609352 13.1298493667408  12.8454697609352 10.2720641502835  Z M 10.2075141765131 9.13294696610126  C 10.4872973445579 9.18290824610926  10.5972121605755 9.52264495016362  10.3973670405435 9.71249781419399  L 9.28822662436596 10.7916614623667  L 9.5480252804075 12.3204766306113  C 9.59798656041551 12.5902675426545  9.30821113636921 12.800104918688  9.05840473632918 12.6702055906672  L 7.67947340810861 11.9507631585521  L 6.30054207988792 12.6702055906672  C 6.050735679848 12.800104918688  5.76096025580171 12.5902675426544  5.8109215358096 12.3204766306113  L 6.07072019185114 10.7916614623667  L 4.96157977567373 9.71249781419399  C 4.7617346556417 9.52264495016362  4.87164947165923 9.17291599010767  5.15143263970413 9.13294696610126  L 6.69024006395034 8.91311733406607  L 7.37970572806069 7.52419374984385  C 7.4396592640702 7.39429442182308  7.55956633608935 7.33434088581348  7.67947340810861 7.33434088581348  C 7.79938048012775 7.33434088581348  7.9192875521469 7.39429442182308  7.97924108815653 7.52419374984385  L 8.66870675226687 8.91311733406607  L 10.2075141765131 9.13294696610126  Z " fill-rule="nonzero" fill="#726254" stroke="none" transform="matrix(1 0 0 1 1093 441 )" />
  </g>
</svg>