<?xml version="1.0" encoding="utf-8"?>
<svg version="1.1" xmlns:xlink="http://www.w3.org/1999/xlink" width="17px" height="12px" xmlns="http://www.w3.org/2000/svg">
  <g transform="matrix(1 0 0 1 -1092 -589 )">
    <path d="M 16.5533711373683 1.20516599635283  C 16.5433788813669 0.775498988284085  16.1936499213109 0.415777772226534  15.7639829132421 0.415777772226534  L 1.60495615897673 0.415777772226534  C 1.17528915090804 0.415777772226534  0.815567934850492 0.765506732282461  0.815567934850492 1.20516599635283  L 0.815567934850492 10.6478479178637  C 0.815567934850492 11.0775149259324  1.16529689490642 11.43723614199  1.60495615897673 11.43723614199  L 15.7639829132421 11.43723614199  C 16.1936499213108 11.43723614199  16.5533711373683 11.087507181934  16.5533711373683 10.6478479178637  L 16.5533711373683 1.20516599635283  Z M 5.14221478354261 7.69014014139043  L 5.14221478354261 8.08983038145436  C 5.14221478354261 8.19974519747194  5.05228447952823 8.28967550148633  4.94236966351059 8.28967550148633  L 4.55267167944828 8.28967550148633  C 4.44275686343065 8.28967550148633  4.35282655941626 8.19974519747194  4.35282655941626 8.08983038145436  L 4.35282655941626 7.69014014139043  C 4.07304339137158 7.68014788538886  3.80325247932842 7.58022532537285  3.58342284729315 7.4103569733457  C 3.48350028727714 7.3404111813345  3.48350028727714 7.19052734131049  3.57343059129164 7.11058929329772  L 3.86320601533794 6.83080612525299  C 3.93315180734919 6.77085258924336  4.03307436736509 6.76086033324179  4.11301241537785 6.8108216132498  C 4.21293497539386 6.87077514925937  4.31285753540988 6.90075191726419  4.43276460742914 6.90075191726419  L 5.12223027153948 6.90075191726419  C 5.28210636756501 6.90075191726419  5.41200569558578 6.75086807724023  5.41200569558578 6.58099972521302  C 5.41200569558578 6.43111588518906  5.32207539157139 6.30121655716829  5.19217606355062 6.27123978916347  L 4.08303564737309 5.94149534111068  C 3.62339187129953 5.80160375708834  3.30363967924848 5.36194449301797  3.30363967924848 4.87232394893965  C 3.30363967924848 4.2727885888437  3.77327571132366 3.78316804476543  4.35282655941626 3.76318353276218  L 4.35282655941626 3.36349329269825  C 4.35282655941626 3.25357847668062  4.44275686343065 3.16364817266629  4.55267167944828 3.16364817266629  L 4.94236966351059 3.16364817266629  C 5.05228447952823 3.16364817266629  5.14221478354261 3.25357847668062  5.14221478354261 3.36349329269825  L 5.14221478354261 3.76318353276218  C 5.4219979515874 3.77317578876375  5.69178886363056 3.87309834877976  5.91161849566572 4.04296670080691  C 6.01154105568173 4.11291249281811  6.01154105568173 4.26279633284213  5.92161075166734 4.34273438085489  L 5.63183532762105 4.62251754889962  C 5.56188953560979 4.6824710849092  5.4619669755939 4.69246334091082  5.38202892758102 4.64250206090281  C 5.28210636756501 4.58254852489318  5.18218380754899 4.55257175688843  5.06227673552985 4.55257175688843  L 4.37281107141939 4.55257175688843  C 4.21293497539386 4.55257175688843  4.08303564737309 4.70245559691239  4.08303564737309 4.8723239489396  C 4.08303564737309 5.02220778896356  4.1729659513876 5.15210711698433  4.30286527940837 5.18208388498914  L 5.41200569558578 5.51182833304188  C 5.87164947165934 5.65171991706427  6.19140166371051 6.09137918113458  6.19140166371051 6.58099972521296  C 6.19140166371062 7.19052734131049  5.72176563163544 7.68014788538881  5.14221478354261 7.69014014139043  Z M 11.037645824486 6.9107441732657  L 11.037645824486 7.30044215732806  C 11.037645824486 7.41035697334564  10.9477155204715 7.50028727736003  10.837800704454 7.50028727736003  L 8.07993804801276 7.50028727736003  C 7.97002323199513 7.50028727736003  7.88009292798074 7.41035697334564  7.88009292798074 7.30044215732806  L 7.88009292798074 6.9107441732657  C 7.88009292798074 6.80082935724812  7.97002323199513 6.71089905323373  8.07993804801276 6.71089905323373  L 10.837800704454 6.71089905323373  C 10.9477155204715 6.71089905323373  11.037645824486 6.80082935724812  11.037645824486 6.9107441732657  Z M 14.9745946891159 6.9107441732657  L 14.9745946891159 7.30044215732806  C 14.9745946891159 7.41035697334564  14.8846643851015 7.50028727736003  14.7747495690838 7.50028727736003  L 12.8062751367688 7.50028727736003  C 12.6963603207513 7.50028727736003  12.6064300167368 7.41035697334564  12.6064300167368 7.30044215732806  L 12.6064300167368 6.9107441732657  C 12.6064300167368 6.80082935724812  12.6963603207513 6.71089905323373  12.8062751367688 6.71089905323373  L 14.7747495690838 6.71089905323373  C 14.8846643851015 6.71089905323373  14.9745946891159 6.80082935724812  14.9745946891159 6.9107441732657  Z M 14.9745946891159 4.55257175688843  L 14.9745946891159 4.94226974095079  C 14.9745946891159 5.05218455696837  14.8846643851015 5.14211486098276  14.7747495690838 5.14211486098276  L 8.08993030401416 5.14211486098276  C 7.98001548799664 5.14211486098276  7.89008518398214 5.05218455696837  7.89008518398214 4.94226974095079  L 7.89008518398214 4.55257175688843  C 7.89008518398214 4.44265694087085  7.98001548799664 4.35272663685646  8.08993030401416 4.35272663685646  L 14.7747495690838 4.35272663685646  C 14.8846643851015 4.35272663685646  14.9745946891159 4.44265694087085  14.9745946891159 4.55257175688843  Z " fill-rule="nonzero" fill="#726254" stroke="none" transform="matrix(1 0 0 1 1092 589 )" />
  </g>
</svg>