<?xml version="1.0" encoding="utf-8"?>
<svg version="1.1" xmlns:xlink="http://www.w3.org/1999/xlink" width="17px" height="13px" xmlns="http://www.w3.org/2000/svg">
  <g transform="matrix(1 0 0 1 -1070 -617 )">
    <path d="M 16.0002290127473 11.8319799912043  C 16.0002290127473 11.7180096180647  15.9483987753912 11.6102243814303  15.859375 11.5390625  L 1.84375 0.582265625  C 1.77723916807955 0.529014337132829  1.69457704504555 0.49999989704897  1.60937498860169 0.49999989704897  C 1.49550740371459 0.49999989704897  1.38780783429367 0.551737120008575  1.316640625 0.640625  L 1.082265625 0.933359375  C 1.02887087215458 0.999916135163886  0.999770987252749 1.08269239336587  0.999770987252749 1.16802000879568  C 0.999770987252749 1.28199038193533  1.05160122460883 1.38977561856974  1.140625 1.4609375  L 15.15625 12.417734375  C 15.2227608319204 12.4709856628672  15.3054229549545 12.500000102951  15.3906250113983 12.500000102951  C 15.5044925962854 12.500000102951  15.6121921657063 12.4482628799914  15.683359375 12.359375  L 15.917734375 12.066640625  C 15.9711291278454 12.0000838648361  16.0002290127473 11.9173076066341  16.0002290127473 11.8319799912043  Z M 8.5 3.875  C 8.31715292357091 3.87534240370461  8.13483960263475 3.89474412290807  7.956015625 3.932890625  L 11.11515625 6.402734375  C 11.063125 4.997890625  9.9175 3.875  8.5 3.875  Z M 8.5 9.125  C 8.68283216095422 9.12460951389925  8.86513246308781 9.10528772401349  9.043984375 9.06734375  L 5.88484375 6.5975  C 5.937109375 8.002109375  7.082734375 9.125  8.5 9.125  Z M 7.13546875 3.29140625  C 7.579375 3.190625  8.0340625 3.125  8.5 3.125  C 10.812109375 3.125  12.931796875 4.4140625  14.076484375 6.5  C 13.7958868697665 7.01336839618725  13.4491812176319 7.48772476569866  13.045234375 7.9109375  L 13.929765625 8.60234375  C 14.4222305309156 8.07551432345986  14.8394647718552 7.48310479913134  15.169609375 6.841953125  C 15.2783422861638 6.62686723222147  15.2783422861638 6.37289839277853  15.169609375 6.1578125  C 13.897421875 3.677890625  11.381171875 2  8.5 2  C 7.63984375 2  6.819296875 2.1640625  6.047734375 2.440859375  L 7.13546875 3.29140625  Z M 9.86453125 9.708828125  C 9.420625 9.809375  8.966171875 9.875  8.5 9.875  C 6.187890625 9.875  4.0684375 8.5859375  2.923515625 6.5  C 3.20447987027514 5.98663753767301  3.55158247854401 5.51235590335512  3.9559375 5.089296875  L 3.07140625 4.397890625  C 2.57901836264807 4.9246437247811  2.1618618124237 5.51697605455706  1.831796875 6.158046875  C 1.72306396383625 6.37313276777853  1.72306396383625 6.62710160722147  1.831796875 6.8421875  C 3.1028125 9.322109375  5.6190625 11  8.5 11  C 9.36015625 11  10.180703125 10.834765625  10.952265625 10.559140625  L 9.86453125 9.708828125  Z " fill-rule="nonzero" fill="#7f7f7f" stroke="none" transform="matrix(1 0 0 1 1070 617 )" />
  </g>
</svg>