<?xml version="1.0" encoding="utf-8"?>
<svg version="1.1" xmlns:xlink="http://www.w3.org/1999/xlink" width="20px" height="20px" xmlns="http://www.w3.org/2000/svg">
  <g transform="matrix(1 0 0 1 -821 -10 )">
    <path d="M 19.7144263909404 18.6115214180207  C 20.0886262924668 18.2570162481536  20.0886262924668 17.6563269325455  19.7242737567701 17.2919743968488  L 15.834564254062 13.4022648941408  C 15.6573116691285 13.2250123092073  15.4209748892171 13.1265386509109  15.1747907434761 13.1265386509109  L 14.5347119645495 13.1265386509109  C 15.6080748399803 11.7479074347612  16.2580009847366 10.0147710487445  16.2580009847366 8.12407680945347  C 16.2481536189069 3.63367799113737  12.6144756277696 0  8.12407680945347 0  C 3.63367799113737 0  0 3.63367799113737  0 8.12407680945347  C 0 12.6144756277696  3.63367799113737 16.2481536189069  8.12407680945347 16.2481536189069  C 10.0147710487445 16.2481536189069  11.7479074347612 15.6080748399803  13.1265386509109 14.5248645987198  L 13.1265386509109 15.1649433776465  C 13.1265386509109 15.4111275233875  13.2250123092073 15.6573116691285  13.4022648941408 15.8247168882324  L 17.2919743968488 19.7144263909404  C 17.6563269325455 20.0787789266371  18.2570162481536 20.0787789266371  18.6115214180207 19.7144263909404  L 19.7144263909404 18.6115214180207  Z M 13.1265386509109 8.12407680945347  C 13.1265386509109 10.8813392417528  10.8911866075825 13.1265386509109  8.12407680945347 13.1265386509109  C 5.36681437715411 13.1265386509109  3.12161496799606 10.8911866075825  3.12161496799606 8.12407680945347  C 3.12161496799606 5.36681437715411  5.35696701132447 3.12161496799606  8.12407680945347 3.12161496799606  C 10.8813392417528 3.12161496799606  13.1265386509109 5.35696701132447  13.1265386509109 8.12407680945347  Z " fill-rule="nonzero" fill="#ffffff" stroke="none" transform="matrix(1 0 0 1 821 10 )" />
  </g>
</svg>