<svg id="圖層_1" data-name="圖層 1" xmlns="http://www.w3.org/2000/svg" viewBox="0 0 210 210"><defs><style>.cls-1{fill:#ff9f1c;}</style></defs><title>bra310_coins</title><path class="cls-1" d="M87,63.9c0,15,29.7,22.8,59.1,22.8s59.1-7.8,59.1-22.8C205.2,34,87,34,87,63.9Z"/><path class="cls-1" d="M205,90a5.4,5.4,0,0,0-.8-2.8,4.7,4.7,0,0,0-5.9-1.4c-12.2,6.5-30.8,10-52.3,10s-40.2-3.5-52.4-10A4.5,4.5,0,0,0,87,90v1.2c0,15,29.7,22.8,59,22.8s59-7.8,59-22.8Z"/><path class="cls-1" d="M32.5,155c0,14.9,29.7,22.7,59.1,22.7s59-7.8,59-22.7C150.6,125.1,32.5,125.1,32.5,155Z"/><path class="cls-1" d="M148.3,177a4.8,4.8,0,0,0-4.5-.1c-12.2,6.4-30.8,9.9-52.4,9.9s-40.1-3.5-52.3-9.9a4.5,4.5,0,0,0-6.7,4v1.4c0,14.9,29.7,22.7,59,22.7s59.1-7.8,59.1-22.7v-1.4A4.8,4.8,0,0,0,148.3,177Z"/><path class="cls-1" d="M64.3,50.3a156,156,0,0,0,18.2-1.1A4.2,4.2,0,0,0,85.1,48c6.9-6.5,18.7-11.3,34-13.8a4.6,4.6,0,0,0,3.6-3,12.7,12.7,0,0,0,.7-3.7c0-29.9-118.2-29.9-118.2,0C5.2,42.4,34.9,50.3,64.3,50.3Z"/><path class="cls-1" d="M64.3,77.6c3.7,0,7.4-.1,10.9-.4a4.4,4.4,0,0,0,3.6-2.1,4.7,4.7,0,0,0,.4-4,20.2,20.2,0,0,1-1.3-7.4,4.4,4.4,0,0,0-1.4-3.3,4.4,4.4,0,0,0-3.4-1.3c-2.9.2-5.9.3-8.8.3-21.6,0-40.2-3.6-52.5-10a4.6,4.6,0,0,0-6,1.7,5,5,0,0,0-.6,2.4v1.3C5.2,69.8,34.9,77.6,64.3,77.6Z"/><path class="cls-1" d="M64.3,104.9c3.7,0,7.4-.1,10.9-.4a4.6,4.6,0,0,0,3.6-2,4.9,4.9,0,0,0,.4-4.1A20.2,20.2,0,0,1,77.9,91a4.5,4.5,0,0,0-1.4-3.3,4.8,4.8,0,0,0-3.4-1.3c-2.9.2-5.9.3-8.8.3-21.6,0-40.2-3.6-52.5-10a4.7,4.7,0,0,0-6,1.7,5,5,0,0,0-.6,2.4v1.3C5.2,97.1,34.9,104.9,64.3,104.9Z"/><path class="cls-1" d="M202.8,140.6a4.5,4.5,0,0,0-4.5-.1c-8.5,4.4-20.5,7.6-34.8,9-2.3.3-4.1,3.1-4,5.5a19.2,19.2,0,0,1-1.1,6.7,4.7,4.7,0,0,0,.7,4.3,4.6,4.6,0,0,0,3.6,1.7h.5c26.2-2.8,41.8-11,41.8-21.8v-1.4A4.4,4.4,0,0,0,202.8,140.6Z"/><path class="cls-1" d="M91.5,123.3h3.1a4.6,4.6,0,0,0,1.9-8.7l-1-.4-1.9-.9a4.5,4.5,0,0,0-6.6,4v1.4A4.6,4.6,0,0,0,91.5,123.3Z"/><path class="cls-1" d="M205,117.3a4.3,4.3,0,0,0-.7-2.5,4.7,4.7,0,0,0-6-1.7c-12.2,6.5-30.8,10-52.4,10h-3a4.8,4.8,0,0,0-4.5,3.6,4.4,4.4,0,0,0,2.6,5.1,39.9,39.9,0,0,1,11.9,8,4.8,4.8,0,0,0,3.2,1.3h.3c22.4-1.4,48.6-8.2,48.6-22.4Z"/><path class="cls-1" d="M43.2,130.8l1.7-.3c8-3.2,17.7-5.4,29-6.5,2.4-.2,4.1-3.3,4-5.7a4.5,4.5,0,0,0-4.8-4.5l-8.8.2c-21.6,0-40.2-3.5-52.5-10a4.5,4.5,0,0,0-6.6,4.2v1.2c0,10.1,13.9,18.1,37.3,21.4Z"/></svg>