<svg id="圖層_1" data-name="圖層 1" xmlns="http://www.w3.org/2000/svg" viewBox="0 0 210 210"><defs><style>.cls-1{fill:#80ffff;}</style></defs><title>bra310_diamond</title><polygon class="cls-1" points="152.6 71.8 115.4 189.9 205.4 71.8 152.6 71.8"/><polygon class="cls-1" points="34.5 30.1 5.9 64.4 54.5 64.4 34.5 30.1"/><polygon class="cls-1" points="176.4 30.1 156.4 64.4 205 64.4 176.4 30.1"/><polygon class="cls-1" points="58.2 71.8 5.4 71.8 95.5 189.9 58.2 71.8"/><polygon class="cls-1" points="114.4 27.3 149.1 62.1 169.4 27.3 114.4 27.3"/><polygon class="cls-1" points="41.5 27.3 61.7 62.1 96.5 27.3 41.5 27.3"/><polygon class="cls-1" points="66 71.8 105.4 196.7 144.9 71.8 66 71.8"/><polygon class="cls-1" points="105.4 28.9 69.9 64.4 141 64.4 105.4 28.9"/></svg>