<?xml version="1.0" encoding="utf-8"?>
<!-- Generator: Adobe Illustrator 24.0.3, SVG Export Plug-In . SVG Version: 6.00 Build 0)  -->
<svg version="1.1" id="圖層_1" xmlns="http://www.w3.org/2000/svg" xmlns:xlink="http://www.w3.org/1999/xlink" x="0px" y="0px"
	 viewBox="0 0 18 18" style="enable-background:new 0 0 18 18;" xml:space="preserve">
<style type="text/css">
	.st0{fill:none;}
	.st1{fill:#AAAAAA;}
</style>
<path class="st0" d="M0,0h18v18H0V0z"/>
<path class="st1" d="M6.8,8.2H5.2v1.5h1.5V8.2z M9.8,8.2H8.2v1.5h1.5V8.2z M12.8,8.2h-1.5v1.5h1.5V8.2z M14.2,3h-0.8V1.5H12V3H6V1.5
	H4.5V3H3.8C2.9,3,2.3,3.7,2.3,4.5l0,10.5c0,0.8,0.7,1.5,1.5,1.5h10.5c0.8,0,1.5-0.7,1.5-1.5V4.5C15.8,3.7,15.1,3,14.2,3z M14.2,15
	H3.8V6.8h10.5V15z"/>
</svg>
