<svg id="圖層_1" data-name="圖層 1" xmlns="http://www.w3.org/2000/svg" viewBox="0 0 200 55"><defs><style>.cls-1,.cls-2{fill:#fff;}.cls-2{fill-rule:evenodd;}</style></defs><title>logo_w</title><path class="cls-1" d="M64.6,12.4c-3.9-3.1-13-5.4-23.1-6a51.2,51.2,0,0,0-5.6-.3l-5,.2h0c-10.3.6-19.6,3-23.6,6.1A5.7,5.7,0,0,0,5,17.1a5.1,5.1,0,0,0,1.6,4.1c3.7,3.4,14.3,6.6,24.3,7.6l5,.3,5.6-.3c9.8-1,20.2-4.3,23.7-7.6a4.9,4.9,0,0,0,1.7-4.1A5.7,5.7,0,0,0,64.6,12.4Zm-9,8.9c-2.3,2.7-7.5,5-14.1,5.8a49.2,49.2,0,0,1-5.6.4c-1.7,0-3.4-.2-5-.3C24,26.3,18.6,24,16.2,21.3a6.5,6.5,0,0,1-1.3-3.8,5.8,5.8,0,0,1,2.4-4.6C19.8,11,24.8,9,30.9,8.1a40.7,40.7,0,0,1,5-.3,50.9,50.9,0,0,1,5.6.4c5.9.9,10.6,2.8,13.1,4.7A5.8,5.8,0,0,1,57,17.5,6,6,0,0,1,55.6,21.3Z"/><path class="cls-2" d="M40.6,14.4a3.2,3.2,0,0,0,.9-.3l1.2-.6.9-.9a4.3,4.3,0,0,0,0-1.6l-1-.7a2.1,2.1,0,0,0-1.1,0,1.8,1.8,0,0,0-.7.5,5.2,5.2,0,0,0-1.6,3.7Zm-9.7-.7,1,.5c.3.1.9.2,1,0a1.9,1.9,0,0,0,0-1.5,4.8,4.8,0,0,0-.9-1.9,1.9,1.9,0,0,0-1.1-.9h-.1a1.9,1.9,0,0,0-1.3.1,2,2,0,0,0-.7,2A3,3,0,0,0,30.9,13.7Zm10.6,8.7h-.1c-.3-.1-.4-.3-.5-.7V18.6h2.8V15.4H37.9V9.6H34.3v5.8h-6v3.2h2.8a14.1,14.1,0,0,0-.1,2,1.1,1.1,0,0,0-.1.5,5.8,5.8,0,0,1-.6,1.7L28.8,25c0,.4.4.4.6.3l1.5-.9,1.4-1a7.7,7.7,0,0,0,1.9-2.2,6.7,6.7,0,0,0,1-1.9l.2-.6h1.4l.4.3v5a1.9,1.9,0,0,0,1.1,1.3h3.9a3.2,3.2,0,0,0,1.7-2.8Z"/><path class="cls-1" d="M58.2,35.4c0-.2.1-.4.2-.4h4.8c.2,0,.3.2.3.4v1.5H65V35.1a1.2,1.2,0,0,0-1.3-1.2h-2a6.9,6.9,0,0,1-.5-1.3H59.4a6.9,6.9,0,0,0,.5,1.3H58a1.1,1.1,0,0,0-1.3,1.2v1.8h1.5Zm-1.3,4.1h2a5.1,5.1,0,0,0,1.6-3.6H58.9A5,5,0,0,1,56.9,39.5Zm4.3-3.6v2.2c0,.9.7,1.3,1.5,1.3h1.9l.4-1.1H63.1a.3.3,0,0,1-.3-.3V35.9ZM56.5,38l-1.1.5V36.3h.8V35h-.8V32.6H53.7V35H52.4v1.3h1.3v2.9l-1.4.5v1.4l1.4-.6v3.2a.3.3,0,0,1-.3.3h-1l.4,1.2h1.3a1.3,1.3,0,0,0,1.3-1.3V39.8l1.1-.5Zm5.1,6V41.3h3.1V40.1H56.9v1.2h2.8V44H56.3v1.2H65V44Z"/><path class="cls-1" d="M47.1,43.4a14.3,14.3,0,0,0,.9-2.7H46.3a6.4,6.4,0,0,1-1.1,2.7Zm-6.4-2.7H39c.3.9.6,1.8,1,2.7h1.9A13.1,13.1,0,0,1,40.7,40.7Zm3.8-.6h4.9V38.9H44.5V37.2h2.2V36.1a8.8,8.8,0,0,0,1.1,1.3h2.3a22.3,22.3,0,0,1-3.2-3.8,1.9,1.9,0,0,0-1.4-.8h-4a1.9,1.9,0,0,0-1.4.8A27.2,27.2,0,0,1,37,37.4h2.3l1.1-1.3v1.1h2.1v1.7H37.7v1.2h4.8v3.8H37.2v1.3H49.8V43.9H44.5Zm-4-4.2,1.4-1.6a.5.5,0,0,1,.5-.3h2.3c.2,0,.3.1.5.3l1.3,1.6Z"/><path class="cls-1" d="M6.9,44.8H8.4a31.5,31.5,0,0,0,.9-4.2H7.9C7.7,41.7,7.2,43.8,6.9,44.8Zm6.8-6H11.4v-.9h2.3V36.7H12.5c.2-.6.3-1.2.5-1.8h.5V33.7H11.3l-.4-1.1H9.2l.4,1.1H7.4v1.2H8c.1.6.3,1.2.4,1.8H7.3v1.2H9.7v.9H7.3v1.3H9.7v5.1h1.7V40.1h2.3Zm-2.6-2.1H9.8a13.5,13.5,0,0,1-.3-1.8h2A14.9,14.9,0,0,1,11.1,36.7Zm4.9,0V34.9a.3.3,0,0,1,.3-.3l3.3-.7V32.7l-4.4.8a.9.9,0,0,0-.6.3,1.1,1.1,0,0,0-.3.7v5.9a9.2,9.2,0,0,1-1.1,4.8H15a13.2,13.2,0,0,0,1-5.7V37.9h1.3v7.3h1.6V37.9h.8V36.7Zm-2.9,3.9H11.8a17.5,17.5,0,0,0,.4,3.2h1.4A30.6,30.6,0,0,1,13.1,40.6Z"/><path class="cls-1" d="M33.9,33.3H32.2A12.7,12.7,0,0,1,30.4,37h2A14.4,14.4,0,0,0,33.9,33.3ZM26.5,37a20.3,20.3,0,0,1-1.7-3.7H23A29.5,29.5,0,0,0,24.6,37Zm5.4,6.9a.5.5,0,0,1-.5-.5V39h3.3V37.8H29.4V32.5H27.5v5.3H22.1V39h3.3a6.3,6.3,0,0,1-3.6,6.2h2.8c1-.7,2.8-2.1,2.7-6.2h2.2v4.6a1.4,1.4,0,0,0,1.4,1.6h3.7l.5-1.3Z"/><rect class="cls-1" x="78.4" y="6.1" width="3.4" height="39.04"/><path class="cls-1" d="M103.6,20.3h-2.5a55.8,55.8,0,0,0,.8,5.7h2.5A35.6,35.6,0,0,1,103.6,20.3Zm5-10.1a.5.5,0,0,1,.5-.5,37.3,37.3,0,0,0,5.8-1.2V6.4l-7.7,1.4a1.6,1.6,0,0,0-1.1.5,2,2,0,0,0-.4,1.3V19.9c0,3-.6,6.3-2,8.4h3.2c1.4-2.6,1.7-6.5,1.7-9.9V15.6h2.3V28.3h2.9V15.6h1.4V13.4h-6.6Zm-4.1,7h-4.1V15.5h4.1V13.4h-2c.3-1,.5-2.1.7-3.1h1.1V8.2h-3.9a18,18,0,0,1-.8-2.1H96.7a12.9,12.9,0,0,0,.6,2.1H93.5v2.1h1.1c.2,1,.4,2.1.7,3.1h-2v2.1h4.2v1.7H93.3v2.1h4.2v9h2.9v-9h4.1ZM100,13.4H97.8a19.5,19.5,0,0,1-.7-3.1h3.6A19.5,19.5,0,0,1,100,13.4Zm40.2-6.1h-3.1a25.4,25.4,0,0,1-3,6.7h3.4A27.7,27.7,0,0,0,140.2,7.3Zm-13,6.7a29,29,0,0,1-3.1-6.7h-3.2a39.9,39.9,0,0,0,2.9,6.7ZM92.5,27.6h2.7a43,43,0,0,0,1.6-7.3H94.3A70.8,70.8,0,0,1,92.5,27.6Zm43.3-2.3V17.5h5.8V15.3h-9.4V6.1h-3.4v9.2h-9.4v2.2h5.8c.4,6.9-4,9.5-6.3,10.8h4.9c1.7-1.1,4.9-3.6,4.7-10.8h4v8.1c0,2,1.1,2.7,2.3,2.7h6.5l1-2.2h-5.7A.8.8,0,0,1,135.8,25.3Zm24.1-9.7h-2.5a38.7,38.7,0,0,0,.9-9.6h-3.4c.4,12.7-4.8,17.7-9.8,22.3h4.3a22.9,22.9,0,0,0,7.5-10.8,37.6,37.6,0,0,0,7.4,10.8h4.8A32.6,32.6,0,0,1,159.9,15.6Zm28.2,8.9h-4.2l.9,1.7h4.1Zm6.9-3V19.6H172.5v1.9h17.9v.7h-6.6V24h6.6v2.2a.6.6,0,0,1-.6.6h-3l.7,1.5h3.7a1.8,1.8,0,0,0,1.9-1.8V24H195V22.2h-1.9v-.7ZM182,9.9h-8.2v1.9h19.9V9.9h-8.4V9.1h9V7.3h-9V5.9H182V7.3h-9V9.1h9Zm10.4,5V16h2.5V14.5a2.1,2.1,0,0,0-.6-1.6,2.4,2.4,0,0,0-1.7-.6H172.4v1.9h19.3A.7.7,0,0,1,192.4,14.9Zm-18.6,2.3V19h19.9V17.2h-8.4v-.7h6.2V14.8H174.8v1.7H182v.7Zm7.3,4.9h-6.2a1.8,1.8,0,0,0-1.2.5,1.7,1.7,0,0,0-.6,1.2v2.4a2.1,2.1,0,0,0,.4,1.1,1.7,1.7,0,0,0,1.3.7h6.3a1.7,1.7,0,0,0,1.3-.5,1.9,1.9,0,0,0,.5-1.3V24a1.5,1.5,0,0,0-.6-1.3A1.4,1.4,0,0,0,181.1,22.1Zm-.7,3.5a.5.5,0,0,1-.5.5h-3.7a.6.6,0,0,1-.6-.6v-.9c0-.4.2-.6.5-.6h3.8a.5.5,0,0,1,.5.5Z"/><path class="cls-1" d="M177.7,35.6a6.9,6.9,0,0,0-.2,2.4h1.4v.7h-1.4v1.4c0,.9.1,1.8.1,2.6a20.1,20.1,0,0,0,.1,2.5h-2.3a20.1,20.1,0,0,0,.1-2.5v-4h-1V38h1c0-2.9.5-4,2.2-4a4.3,4.3,0,0,1,1.7.4v1h-.1C178.8,34.8,178,34.8,177.7,35.6Z"/><path class="cls-1" d="M164,36.9a13.4,13.4,0,0,1-.1-2h2.4c0,.7-.1,1.3-.1,2v7.2h1.7l1.7-.2v1.3h-5.7a12.1,12.1,0,0,1,.1-1.9V36.9Z"/><path class="cls-1" d="M171.3,34.4a1.1,1.1,0,0,1,.9-.4.9.9,0,0,1,.8.4,1.2,1.2,0,0,1,0,1.6.9.9,0,0,1-.8.4,1.1,1.1,0,0,1-.9-.4,1.2,1.2,0,0,1,0-1.6ZM171,45.2a8.1,8.1,0,0,0,.1-1.6,9.1,9.1,0,0,0,.1-1.7v-.6a9.1,9.1,0,0,0-.1-1.7A8.6,8.6,0,0,0,171,38h2.3a8.6,8.6,0,0,0-.1,1.6v4a8.1,8.1,0,0,0,.1,1.6Z"/><path class="cls-1" d="M183.6,44.4a3.6,3.6,0,0,0,2-.6h0l-.3.9-.9.5-1.4.2-1.4-.2a4.1,4.1,0,0,1-1.1-.7,2.5,2.5,0,0,1-.8-1.2,4,4,0,0,1-.3-1.7,3.8,3.8,0,0,1,.3-1.6,2.4,2.4,0,0,1,.7-1.2,2.1,2.1,0,0,1,1.1-.7,3.2,3.2,0,0,1,1.4-.3,2.8,2.8,0,0,1,2.2.9,3.6,3.6,0,0,1,.8,2.4v.5h-4.3a3.7,3.7,0,0,0,.1,1.1,1.9,1.9,0,0,0,.4.9l.6.6a1.5,1.5,0,0,0,.9.2m0-5.2a.8.8,0,0,0-.8-.7l-.6.2-.3.6a1.9,1.9,0,0,0-.2.8,2.5,2.5,0,0,0-.1.8h2.3A4,4,0,0,0,183.6,39.2Z"/><path class="cls-1" d="M133.1,42.6l-1.3-1.8-1.2-1.6,1-1.2,1.1-1.2a11.4,11.4,0,0,1,1.1-1.1l.7-.8h-2l-.6.7-.9,1.1L129.9,38l-1,1v-.7c0-.8.1-1.4.1-2a5.3,5.3,0,0,1,.1-1.4h-2.3v2a14.1,14.1,0,0,1,.1,2.2v2a15.5,15.5,0,0,1-.1,2.2v1.9h2.3a10.3,10.3,0,0,1-.1-1.9,23.5,23.5,0,0,1-.1-2.8v-.2h.1l1.8,2.5,1.6,2.3h2.7l-.8-1.1Zm-24.7.5V40.6a3.6,3.6,0,0,0-.5-2.1,2.1,2.1,0,0,0-1.7-.7,2.5,2.5,0,0,0-1.3.3,4.7,4.7,0,0,0-1,1h0V36.4a21.8,21.8,0,0,1,.1-2.5h-2.3a21.8,21.8,0,0,1,.1,2.5c0,.8.1,1.7.1,2.7v1c0,.9-.1,1.8-.1,2.6a20.1,20.1,0,0,1-.1,2.5H104c0-.3-.1-.6-.1-.9v-3a3.5,3.5,0,0,1,.3-1.6,1,1,0,0,1,1-.6,1.1,1.1,0,0,1,.9.5,2.1,2.1,0,0,1,.3,1.3v2.4c0,.7-.1,1.4-.1,1.9h2.1V43.1Zm12.3,0c0-.4.1-.8.1-1.2V40.6a2.9,2.9,0,0,0-.6-2.1,1.8,1.8,0,0,0-1.7-.7,3.1,3.1,0,0,0-1.3.3,4.3,4.3,0,0,0-.9,1h-.1V38h-2.2a8.6,8.6,0,0,1,.1,1.6c0,.5.1,1.1.1,1.7v.6c0,.6-.1,1.2-.1,1.7a8.1,8.1,0,0,1-.1,1.6h2.3a8.1,8.1,0,0,1-.1-1.6V41.3a3.5,3.5,0,0,1,.3-1.6,1,1,0,0,1,1-.6,1.1,1.1,0,0,1,.9.5,2.1,2.1,0,0,1,.3,1.3v2.4a10.1,10.1,0,0,1-.2,1.9h2.2V44.1C120.8,43.7,120.7,43.4,120.7,43.1ZM111.3,34a1.1,1.1,0,0,0-.8.3,1.2,1.2,0,0,0-.4.9.9.9,0,0,0,.4.8,1.2,1.2,0,0,0,.8.4,1.8,1.8,0,0,0,.9-.4,1.1,1.1,0,0,0,.3-.8,1.6,1.6,0,0,0-.3-.9A1.6,1.6,0,0,0,111.3,34Zm1.1,5.6a8.6,8.6,0,0,1,.1-1.6h-2.3c0,.5.1,1.1.1,1.6v4c0,.6-.1,1.1-.1,1.6h2.3a8.1,8.1,0,0,1-.1-1.6,9.1,9.1,0,0,1-.1-1.7v-.6A9.1,9.1,0,0,1,112.4,39.6ZM154.8,44l-.9-.2a.8.8,0,0,1-.2-.6.4.4,0,0,1,.1-.3c.1-.2.2-.2.3-.2h.7l1.2-.2a2.6,2.6,0,0,0,.9-.5l.6-.8a2.6,2.6,0,0,0,0-2l-.6-.6h1.3v-.7h-3.5l-1.3.2-1,.4a1.6,1.6,0,0,0-.6.8,1.7,1.7,0,0,0-.3,1,2.3,2.3,0,0,0,.5,1.5,3.4,3.4,0,0,0,1.4.9h0a2.1,2.1,0,0,0-1,.6,1.9,1.9,0,0,0-.3,1,1.3,1.3,0,0,0,.1.6l.5.4h0a1.6,1.6,0,0,0-.9.7,1.8,1.8,0,0,0-.3,1.1,1.7,1.7,0,0,0,.7,1.5,3.6,3.6,0,0,0,2.2.6c1.6,0,3.9-.7,3.9-2.6S157.1,44,154.8,44Zm-.2-5.6a1,1,0,0,1,.7.4,2.6,2.6,0,0,1,.3,1.4,4.9,4.9,0,0,1-.2,1.5.9.9,0,0,1-.8.4h-.3c-.2,0-.3-.1-.4-.3a1.7,1.7,0,0,0-.2-.5c0-.2-.1-.5-.1-.8S154,38.4,154.6,38.4Zm1.9,8.9-.3.5-.6.4h-1.4l-.6-.3a1,1,0,0,1-.4-.5,1.4,1.4,0,0,1-.2-.7,2,2,0,0,1,.2-.9c.1-.3.3-.4.4-.4l1-.2h.9l.6.2a1,1,0,0,1,.4.5,1.7,1.7,0,0,1,.1.8A1.3,1.3,0,0,1,156.5,47.3Zm-17.8-9.5a3.4,3.4,0,0,0-3.7,3.7,4.1,4.1,0,0,0,.3,1.6,2.5,2.5,0,0,0,.8,1.2,2.8,2.8,0,0,0,1.1.8,3.7,3.7,0,0,0,1.5.3,3.5,3.5,0,0,0,1.4-.3,2.8,2.8,0,0,0,1.1-.8,2.5,2.5,0,0,0,.8-1.2,4.1,4.1,0,0,0,.3-1.6,3.3,3.3,0,0,0-1-2.7A3.3,3.3,0,0,0,138.7,37.8Zm0,6.9c-1,0-1.4-1.1-1.4-3.5a5.6,5.6,0,0,1,.3-2,1.1,1.1,0,0,1,1.1-.7,1,1,0,0,1,1,.7,5.6,5.6,0,0,1,.3,2C140,43.6,139.6,44.7,138.7,44.7Zm11.5-1.6V41.9a5.3,5.3,0,0,0,.1-1.3,2.9,2.9,0,0,0-.6-2.1,2.3,2.3,0,0,0-1.8-.7,2.8,2.8,0,0,0-1.3.3,4.7,4.7,0,0,0-1,1h0V38h-2.1c0,.5.1,1.1.1,1.6v4c0,.6-.1,1.1-.1,1.6h2.2a8.1,8.1,0,0,1-.1-1.6c0-.5-.1-1.1-.1-1.7v-.6a3.5,3.5,0,0,1,.3-1.6,1.1,1.1,0,0,1,1-.6,1.1,1.1,0,0,1,.9.5c.3.2.4.7.4,1.3a17.7,17.7,0,0,1-.1,2.4,10.9,10.9,0,0,1-.1,1.9h2.3c0-.4-.1-.7-.1-1.1ZM100,40.6a2.9,2.9,0,0,0-1-.9L97.8,39l-1.3-.5-1-.6a1.8,1.8,0,0,1-.4-.9,1.3,1.3,0,0,1,.4-1,2.2,2.2,0,0,1,1.3-.4,2.7,2.7,0,0,1,2.5,1.3h.1l.5-1.5-1.3-.5-1.8-.2-1.5.2a2.4,2.4,0,0,0-1.1.6,3.9,3.9,0,0,0-.8,1,3.2,3.2,0,0,0-.2,1.4,2.2,2.2,0,0,0,.5,1.4,2.9,2.9,0,0,0,1,.9,4.5,4.5,0,0,0,1.2.6l1.2.6,1,.6a1.1,1.1,0,0,1,.4.9,1.1,1.1,0,0,1-.4,1.1,1.8,1.8,0,0,1-1.4.5l-1.1-.2-.8-.4-.6-.6c-.2-.2-.2-.5-.3-.7h-.2l-.5,1.7,1.4.8a4.7,4.7,0,0,0,1.7.4l1.8-.2,1.4-.8a3.9,3.9,0,0,0,.8-1,3.4,3.4,0,0,0,.2-1.4A2.2,2.2,0,0,0,100,40.6Z"/></svg>