<svg id="圖層_1" data-name="圖層 1" xmlns="http://www.w3.org/2000/svg" viewBox="0 0 450 120"><defs><style>.cls-1,.cls-2{fill:#e62310;}.cls-2{fill-rule:evenodd;}.cls-3{fill:#fff;}</style></defs><title>logo</title><path class="cls-1" d="M143,25c-9.1-7.1-30.1-12.4-53.6-13.9-4.2-.4-8.4-.6-12.7-.6s-7.9.2-11.7.4h0C41,12.4,19.5,17.8,10.3,25A13.8,13.8,0,0,0,5,36c0,3.5.6,6.7,3.8,9.5C17.2,53.3,41.9,60.7,65,63.1a116.1,116.1,0,0,0,11.7.6c4,0,8.4-.3,12.7-.7,22.8-2.3,46.8-9.9,55.1-17.5,3.1-2.8,3.8-6,3.8-9.5A13.5,13.5,0,0,0,143,25ZM122.2,45.6c-5.3,6.2-17.3,11.5-32.8,13.5a100.6,100.6,0,0,1-12.7.8A106.7,106.7,0,0,1,65,59.2C49,57.3,36.6,52,31,45.6a14.4,14.4,0,0,1-3-8.8,13.3,13.3,0,0,1,5.5-10.6c5.9-4.5,17.3-9.1,31.5-11.1a105.8,105.8,0,0,1,11.7-.8,103.7,103.7,0,0,1,12.7,1c13.7,2,24.7,6.5,30.4,10.9a13.5,13.5,0,0,1,5.6,10.6A14.1,14.1,0,0,1,122.2,45.6Z"/><path class="cls-2" d="M87.4,29.6a5.9,5.9,0,0,0,2-.5,13.4,13.4,0,0,0,2.9-1.5,10,10,0,0,0,2-2.1,8.1,8.1,0,0,0,0-3.8,7.1,7.1,0,0,0-2.2-1.5,5,5,0,0,0-2.7,0,4,4,0,0,0-1.5,1.2c-2.2,2.7-3.6,4.7-3.6,8.4A10.6,10.6,0,0,0,87.4,29.6ZM65,28.1l2.4,1.1c.6.2,2,.5,2.3,0a6.3,6.3,0,0,0,0-3.6,13.2,13.2,0,0,0-2.1-4.3A8,8,0,0,0,65,19.1h-.3a3.5,3.5,0,0,0-3,.3c-1.1,1.1-2.3,2.9-1.6,4.6S63,27.3,65,28.1ZM89.4,48.2h-.2a1.9,1.9,0,0,1-1-1.7v-7h6.4V32H81.2V18.6H72.8V31.9H58.9v7.5h6.5c-.1,1.5-.2,3.1-.2,4.5s-.1.8-.2,1.3A18.6,18.6,0,0,1,63.6,49c-1.1,1.8-2.3,3.4-3.4,5.1s.8,1,1.2.9L65,52.9l3.3-2.4a19.8,19.8,0,0,0,4.3-5A18.9,18.9,0,0,0,75,41l.3-1.4h3.4l.8.5V51.6a4.2,4.2,0,0,0,2.4,3.1l5.1.2h4c2.7-1.7,3.4-3.3,4-6.6Z"/><path class="cls-3" d="M128.1,78.2a.8.8,0,0,1,.7-.7h11a.8.8,0,0,1,.7.7v3.6h3.4V77.6a2.8,2.8,0,0,0-3-2.9h-4.6a14.8,14.8,0,0,1-1.2-2.9H131c.3.8.8,2,1.1,2.9h-4.4a2.8,2.8,0,0,0-3,2.9v4.2h3.4Zm-2.9,9.5h4.7c2-1.5,3.5-4.8,3.6-8.2h-3.7A10.7,10.7,0,0,1,125.2,87.7Zm9.9-8.2v4.9c0,2.3,1.6,3.2,3.5,3.2H143l.9-2.7h-4.3a.7.7,0,0,1-.8-.7V79.5Zm-10.9,4.8-2.5,1.2V80.3h2V77.5h-2V71.8h-3.8v5.7h-3.1v2.8h3.1v6.8l-3.5,1.2v3.1l3.5-1.2v7.3c0,.5-.4.7-.9.7h-2.2l.9,2.8h3a3,3,0,0,0,3-2.9V88.5l2.5-1.1ZM136,98.2V92h7.2V89.2h-18V92h6.6v6.2h-7.9V101H144V98.2Z"/><path class="cls-3" d="M102.5,96.9a60.1,60.1,0,0,0,2.2-6.4h-3.9a27.7,27.7,0,0,1-2.6,6.4ZM87.7,90.5h-4a44.4,44.4,0,0,0,2.4,6.4h4.3A36.1,36.1,0,0,1,87.7,90.5Zm8.8-1.3h11.2V86.3H96.5V82.4h5V80a32.1,32.1,0,0,0,2.5,2.8h5.4a49.6,49.6,0,0,1-7.4-8.6,3.9,3.9,0,0,0-3.2-1.9H89.5a3.7,3.7,0,0,0-3.1,1.9A54.4,54.4,0,0,1,79,82.8h5.3A27.9,27.9,0,0,0,86.9,80v2.4h4.9v3.9H80.6v2.9H91.8v8.9H79.7V101h29V98.1H96.5Zm-9.3-9.6c.8-1,1.9-2.2,3.2-3.9a1.1,1.1,0,0,1,1.1-.6h5.4a1.1,1.1,0,0,1,1.1.6c1.3,1.7,2.4,2.9,3.1,3.9Z"/><path class="cls-3" d="M9.3,100h3.6a63,63,0,0,0,2-9.6H11.6A70.9,70.9,0,0,1,9.3,100ZM25.1,86.3H19.7V84.1h5.4V81.3H22.4a30.6,30.6,0,0,0,1-4.1h1.4V74.5H19.6c-.3-.9-.7-2-.9-2.8H14.8c.2.9.6,1.9.9,2.8H10.6v2.7H12c.3,1.3.6,2.8,1,4.1H10.4v2.8h5.5v2.2H10.4v2.8h5.5v11.8h3.8V89.1h5.4Zm-5.9-5h-3c-.3-1.3-.7-2.9-.9-4.1h4.8C19.9,78.4,19.5,80,19.2,81.3Zm11.3,0V77.1c0-.4.2-.7.6-.7a46.6,46.6,0,0,0,7.6-1.6V72.1L28.6,73.9a2.3,2.3,0,0,0-1.4.7,2.7,2.7,0,0,0-.6,1.7V89.9c0,3.9-.7,8.3-2.5,11h4.2c1.8-3.5,2.2-8.6,2.2-13.1V84.1h2.9v16.8h3.9V84.1h1.8V81.3Zm-6.6,9.1H20.7a46.7,46.7,0,0,0,.9,7.4h3.3A45.4,45.4,0,0,1,23.9,90.4Z"/><path class="cls-3" d="M72,73.3H67.9a29.2,29.2,0,0,1-4,8.8h4.5A33.3,33.3,0,0,0,72,73.3ZM54.9,82.1a39,39,0,0,1-4.1-8.8H46.7a42.6,42.6,0,0,0,3.8,8.8ZM67.3,97.9a1,1,0,0,1-1.1-1V86.7h7.6V83.8H61.5V71.7H57.1V83.8H44.7v2.9h7.6c.5,9-5.3,12.5-8.3,14.2h6.5c2.2-1.5,6.3-4.8,6.1-14.2h5.2V97.3c0,2.6,1.5,3.6,3.1,3.6h8.6l1.2-3Z"/><rect class="cls-1" x="174.9" y="10.5" width="8" height="90.4"/><path class="cls-3" d="M233.3,43.4h-5.7a117.4,117.4,0,0,0,1.7,13.1h5.9A82.7,82.7,0,0,1,233.3,43.4ZM245,20a1.3,1.3,0,0,1,1.1-1.3A88.4,88.4,0,0,0,259.5,16V11.1c-5.6,1.2-12.1,2.4-17.9,3.2a3.6,3.6,0,0,0-2.4,1.3,4.6,4.6,0,0,0-1.1,3V42.5c0,6.9-1.2,14.6-4.5,19.5H241c3.3-6.2,4-15.2,4-23.1V32.4h5.1V62h6.8V32.4h3.3V27.5H245Zm-9.6,16.2H226V32.3h9.4v-5h-4.7c.7-2.2,1.3-4.8,1.8-7.1h2.4V15.3h-9.1a33.8,33.8,0,0,1-1.6-4.8h-6.9c.4,1.5,1,3.4,1.5,4.8H210v4.9h2.4c.5,2.3,1.1,4.9,1.7,7.1h-4.6v5h9.7v3.9h-9.7v4.9h9.7V62H226V41.1h9.4ZM225,27.3h-5.2c-.6-2.2-1.2-5-1.6-7.1h8.5C226.3,22.3,225.6,25.1,225,27.3Zm93.1-14h-7.3c-1.7,5.4-3.5,10.7-6.9,15.4h7.9A62.4,62.4,0,0,0,318.1,13.3ZM287.9,28.7a74.4,74.4,0,0,1-7.2-15.4h-7.2a80.7,80.7,0,0,0,6.7,15.4ZM207.6,60.3H214a117.9,117.9,0,0,0,3.6-16.9h-5.9C210.9,47.7,209,56.6,207.6,60.3Zm100.3-5.5V36.9h13.3V31.7H299.6V10.4h-7.8V31.7H269.9v5.2h13.4c.9,15.9-9.2,22-14.6,25h11.5c3.9-2.7,11.2-8.4,10.8-25h9.2V55.6c0,4.6,2.5,6.3,5.4,6.3h15.1l2.2-5.2H309.8A1.8,1.8,0,0,1,307.9,54.8Zm55.7-22.4h-5.7a81.2,81.2,0,0,0,2-22.1h-7.7c.8,29.3-11.2,41-22.8,51.6h10.1c6.9-5.9,13.4-13.3,17.2-25.1a85.3,85.3,0,0,0,17.2,25.1H385C375,53.1,367.8,43.3,363.6,32.4Zm65.3,20.7h-9.5l1.9,3.9h9.5ZM445,46V41.8H392.8V46h41.5v1.8H419.1v4.1h15.2v5a1.4,1.4,0,0,1-1.3,1.5h-7l1.7,3.5h8.4a4.3,4.3,0,0,0,4.6-4.2V51.9h4.2V47.8h-4.2V46ZM414.9,19.4H395.8v4.1h46.1V19.4H422.6v-2h20.9V13.3H422.6V10h-7.7v3.3H394v4.1h20.9Zm24,11.5v2.4h5.9V30a5.2,5.2,0,0,0-1.3-3.8,6.3,6.3,0,0,0-4.1-1.4H392.7v4.4h44.8C438.5,29.2,438.9,30.2,438.9,30.9Zm-43,5.3v4.2h46V36.2H422.6V34.6h14.3v-4H398.2v4h16.7v1.6Zm16.8,11.4H398.6a4.4,4.4,0,0,0-2.9,1,3.9,3.9,0,0,0-1.4,2.9V57a4.2,4.2,0,0,0,1,2.6,3.5,3.5,0,0,0,2.9,1.5h14.7a4.2,4.2,0,0,0,2.9-1,4.1,4.1,0,0,0,1.1-3V51.8a3.9,3.9,0,0,0-1.2-3A4.5,4.5,0,0,0,412.7,47.6Zm-1.4,7.9a1.3,1.3,0,0,1-1.4,1.3h-8.5a1.4,1.4,0,0,1-1.4-1.4V53.3a1.3,1.3,0,0,1,1.3-1.4H410a1.2,1.2,0,0,1,1.3,1.2Z"/><path class="cls-3" d="M405,78.8c-.5,1.1-.4,2.4-.4,5.5h3.2v1.9h-3.2v9.3c.1,1.9.2,3.8.2,5.6h-5.2l.3-5.6V86h-2.4V84.2h2.4c0-6.8,1-9.2,5-9.2a9,9,0,0,1,3.9.9v2.4h-.2C407.5,77,405.6,77,405,78.8Z"/><path class="cls-3" d="M373.1,81.7c0-1.5-.1-3-.2-4.5h5.7c-.1,1.5-.2,3-.2,4.5s-.1,3.2-.1,5.1v8.5a28.2,28.2,0,0,0,.1,3.1h3.9l4-.3a1.7,1.7,0,0,0-.1.7c0,.2-.1.5-.1.8s.1.7.1.9a.7.7,0,0,0,.1.5H372.9c.1-1.4.2-2.9.2-4.3s.1-3.2.1-5.1V86.8C373.2,84.9,373.2,83.2,373.1,81.7Z"/><path class="cls-3" d="M390.2,75.9a2.7,2.7,0,0,1,1.9-.8,3,3,0,0,1,2,.8,2.7,2.7,0,0,1,.8,1.9,2.7,2.7,0,0,1-2.8,2.8,2.7,2.7,0,0,1-1.9-.8,3,3,0,0,1-.8-2A2.7,2.7,0,0,1,390.2,75.9Zm-.7,25q.2-1.7.3-3.6V88l-.3-3.7h5.2c-.1,1.3-.2,2.5-.2,3.7s-.1,2.6-.1,4v1.4c0,1.4.1,2.7.1,3.9s.1,2.5.2,3.6Z"/><path class="cls-3" d="M418.6,99.2a7.5,7.5,0,0,0,4.6-1.5h.1l-.8,2.1a7,7,0,0,1-2.1,1.1,12.3,12.3,0,0,1-3.1.4,12,12,0,0,1-3.3-.5,6.1,6.1,0,0,1-2.6-1.5,8.8,8.8,0,0,1-1.9-2.7,13,13,0,0,1,0-7.8,6.9,6.9,0,0,1,1.6-2.8,9,9,0,0,1,2.6-1.7,10.7,10.7,0,0,1,3.2-.5,6.7,6.7,0,0,1,5.2,2,8,8,0,0,1,1.8,5.6v1.2H414a10.9,10.9,0,0,0,.3,2.6,4.8,4.8,0,0,0,2.3,3.4,3.9,3.9,0,0,0,2,.5m0-12.2a1.9,1.9,0,0,0-1.9-1.5,1.3,1.3,0,0,0-1.2.5,3,3,0,0,0-.9,1.3,8,8,0,0,0-.4,1.8,15,15,0,0,0-.2,2h5.3A13.8,13.8,0,0,0,418.6,87Z"/><path class="cls-3" d="M301.6,94.9l-2.9-4-2.8-3.8,2.3-2.7c.8-.9,1.7-1.8,2.5-2.8l2.5-2.6a10.2,10.2,0,0,1,1.7-1.8h-4.7L299,78.7l-2.2,2.6c-.9.9-1.7,1.9-2.6,2.9L292,86.6V84.9c0-1.7,0-3.2.1-4.6a21.6,21.6,0,0,1,.2-3.1H287c.1,1.5.1,3,.2,4.5V96.6c-.1,1.4-.1,2.9-.2,4.3h5.3c-.1-1.1-.2-2.5-.2-4.2s-.1-4-.1-6.5v-.5h.1c1.1,1.5,2.4,3.2,4.2,5.8s2.5,3.6,3.8,5.3h6.3a20.7,20.7,0,0,1-2-2.4ZM244.4,96V93.3a29.1,29.1,0,0,0,.1-3.1c0-2.2-.4-3.8-1.3-4.8a5,5,0,0,0-3.9-1.5,5.3,5.3,0,0,0-3.1.8,6.6,6.6,0,0,0-2.2,2.2h-.1c0-2.2.1-4.3.1-6.2s.1-3.8.2-5.7H229c.1,1.9.2,3.8.2,5.7s.1,4,.1,6.2v2.3c0,2.2,0,4.3-.1,6.2s-.1,3.8-.2,5.6h5.2c0-.5-.1-1.2-.1-1.9s-.1-1.5-.1-2.2v-2a9.2,9.2,0,0,1-.1-1.5V92a8,8,0,0,1,.8-3.8,2.4,2.4,0,0,1,2.3-1.3,2.4,2.4,0,0,1,2.1,1,4.9,4.9,0,0,1,.8,3.2c0,2.1,0,4-.1,5.6a25.8,25.8,0,0,1-.3,4.2h5c0-.8-.1-1.6-.1-2.5Zm28.7,0V93.3a29.1,29.1,0,0,0,.1-3.1,7.6,7.6,0,0,0-1.3-4.8,5,5,0,0,0-3.9-1.5,5.3,5.3,0,0,0-3.1.8,7.9,7.9,0,0,0-2.3,2.2h0V84.3h-5c.2,1.3.2,2.5.3,3.7v9.3c-.1,1.3-.1,2.5-.3,3.6h5.2c-.1-1.1-.2-2.3-.2-3.6s-.1-2.5-.1-4V92a8,8,0,0,1,.8-3.8,2.4,2.4,0,0,1,2.3-1.3,2.4,2.4,0,0,1,2.1,1,5.6,5.6,0,0,1,.8,3.2c0,2.1-.1,4-.1,5.6s-.2,3-.3,4.2h5c0-.8-.1-1.6-.1-2.5ZM251.2,75a2.7,2.7,0,0,0-2,.9,2.8,2.8,0,1,0,4,0A2.7,2.7,0,0,0,251.2,75Zm2.4,13c0-1.2.1-2.4.2-3.7h-5.2c.1,1.3.2,2.5.2,3.7v9.3c0,1.3-.1,2.5-.2,3.6h5.2c-.1-1.1-.2-2.3-.2-3.6V88ZM352,98.3a4.1,4.1,0,0,1-2.1-.5,1.8,1.8,0,0,1-.6-1.4,1.1,1.1,0,0,1,.3-.8.8.8,0,0,1,.7-.4c.3,0,.6-.1.8,0h.8a12.6,12.6,0,0,0,2.8-.4,7.2,7.2,0,0,0,2.1-1.2,5.9,5.9,0,0,0,1.3-1.8,6.1,6.1,0,0,0,.4-2.4,5.1,5.1,0,0,0-.4-2.2,5.4,5.4,0,0,0-1.4-1.6h3.1V84h-8.1a13.9,13.9,0,0,0-3,.3,13.3,13.3,0,0,0-2.4,1.1,4.9,4.9,0,0,0-1.4,1.8,4.3,4.3,0,0,0-.5,2.3,5.2,5.2,0,0,0,1.1,3.6,5.9,5.9,0,0,0,3.3,1.9h0a4.2,4.2,0,0,0-2.4,1.4,3.3,3.3,0,0,0-.8,2.2,2.6,2.6,0,0,0,.3,1.4,3.1,3.1,0,0,0,1.1.9h.1a5.2,5.2,0,0,0-2.2,1.6,4.9,4.9,0,0,0-.7,2.8,4.4,4.4,0,0,0,1.7,3.4A9.1,9.1,0,0,0,351,110c3.8,0,9-1.5,9-6S357.2,98.3,352,98.3Zm-.4-13a1.8,1.8,0,0,1,1.5.9,6.8,6.8,0,0,1,.7,3.3,7.1,7.1,0,0,1-.6,3.4,1.8,1.8,0,0,1-1.7,1l-.8-.2-.8-.7a3.2,3.2,0,0,1-.5-1.3,9.2,9.2,0,0,1-.2-1.9Q349.2,85.3,351.6,85.3Zm4.3,20.6-.8,1.2a5.7,5.7,0,0,1-1.3.8,5,5,0,0,1-3.4,0,3.1,3.1,0,0,1-1.3-.6,4,4,0,0,1-1-1.2,3.8,3.8,0,0,1-.3-1.6,4.8,4.8,0,0,1,.4-2.2,4.6,4.6,0,0,1,1-1,5.4,5.4,0,0,1,2.2-.4h2a5.3,5.3,0,0,1,1.5.5,2.4,2.4,0,0,1,.9,1.1,4.5,4.5,0,0,1,.3,1.8A3.9,3.9,0,0,1,355.9,105.9Zm-41.4-22a7.8,7.8,0,0,0-8.4,8.4,11.2,11.2,0,0,0,.6,3.8,8.4,8.4,0,0,0,1.8,2.9,8,8,0,0,0,2.7,1.8,9.4,9.4,0,0,0,6.6,0,7.9,7.9,0,0,0,4.5-4.7,11.2,11.2,0,0,0,.6-3.8,8.6,8.6,0,0,0-2.2-6.2A8.4,8.4,0,0,0,314.5,83.9Zm0,16c-2.1,0-3.2-2.7-3.2-8.1a11.9,11.9,0,0,1,.7-4.7,2.7,2.7,0,0,1,5,0,11.9,11.9,0,0,1,.7,4.7C317.7,97.2,316.6,99.9,314.5,99.9ZM341.3,96V93.3a29.1,29.1,0,0,0,.1-3.1,7.1,7.1,0,0,0-1.4-4.8,5.4,5.4,0,0,0-4.1-1.5,5.2,5.2,0,0,0-3,.8,5.8,5.8,0,0,0-2.2,2.2h-.1l.2-2.6h-4.9c.1,1.3.2,2.5.2,3.7s.1,2.6.1,4v1.3c0,1.5,0,2.8-.1,4s-.1,2.5-.2,3.6H331c-.1-1.1-.2-2.3-.2-3.6s-.1-2.5-.1-4V92a8.1,8.1,0,0,1,.7-3.8,2.4,2.4,0,0,1,2.3-1.3,2.4,2.4,0,0,1,2.1,1,5.6,5.6,0,0,1,.7,3.2v5.6q-.2,2.4-.3,4.2h5.2a21.8,21.8,0,0,0-.1-2.5ZM225.1,90.3a9.3,9.3,0,0,0-2.3-2.1,20,20,0,0,0-2.9-1.5L217,85.5a10.2,10.2,0,0,1-2.3-1.5,2.8,2.8,0,0,1-1-2.1,2.5,2.5,0,0,1,.9-2.2,4.6,4.6,0,0,1,2.9-.9c2.7,0,4.7,1,5.8,3h.3l1.2-3.5a11.9,11.9,0,0,0-3.2-1.2,16.2,16.2,0,0,0-4.1-.4,8.9,8.9,0,0,0-6,1.8,7.6,7.6,0,0,0-1.7,2.3,7,7,0,0,0-.5,3.3,5.3,5.3,0,0,0,1.1,3.2,8.8,8.8,0,0,0,2.2,2.1,15.9,15.9,0,0,0,2.9,1.5l2.9,1.2a7.1,7.1,0,0,1,2.2,1.5,3.5,3.5,0,0,1,1,2.1,2.9,2.9,0,0,1-.9,2.5,4.2,4.2,0,0,1-3.4,1.1l-2.4-.4-1.9-1-1.4-1.4a6,6,0,0,1-.8-1.6h-.4l-1.2,3.8a18,18,0,0,0,3.2,1.9,16.4,16.4,0,0,0,4.1,1,12.7,12.7,0,0,0,4.1-.6,9.7,9.7,0,0,0,3.2-1.7,8.8,8.8,0,0,0,1.9-2.4,7,7,0,0,0,.5-3.2A6.8,6.8,0,0,0,225.1,90.3Z"/></svg>