<svg id="圖層_4" data-name="圖層 4" xmlns="http://www.w3.org/2000/svg" viewBox="0 0 25 25"><defs><style>.cls-1,.cls-2,.cls-3,.cls-4{fill:none;stroke:#ff9f1c;stroke-miterlimit:10;}.cls-1,.cls-4{stroke-width:0.5px;}.cls-2{stroke-width:0.26px;}.cls-3{stroke-linecap:round;stroke-width:0.44px;}.cls-4{stroke-linecap:square;}</style></defs><title>nav1</title><rect class="cls-1" x="2.4" y="6.6" width="18.7" height="13.43" rx="0.9"/><ellipse class="cls-2" cx="7.4" cy="11.6" rx="1.5" ry="1.8"/><path class="cls-2" d="M7.8,16.1h2.4V13.7a.9.9,0,0,0-.8-.9H9.1a1.8,1.8,0,0,1-1.7,1.1,1.7,1.7,0,0,1-1.6-1.1H5.5a.8.8,0,0,0-.8.9v2.4H7.1"/><line class="cls-3" x1="13.1" y1="11.4" x2="18.8" y2="11.4"/><line class="cls-3" x1="13.1" y1="13.6" x2="18.8" y2="13.6"/><line class="cls-3" x1="13.1" y1="15.7" x2="18.8" y2="15.7"/><path class="cls-4" d="M7.4,5H21.7a.9.9,0,0,1,.9.9V15"/></svg>