<svg id="圖層_4" data-name="圖層 4" xmlns="http://www.w3.org/2000/svg" viewBox="0 0 25 25"><defs><style>.cls-1,.cls-3,.cls-4,.cls-5{fill:none;stroke:#ff9f1c;}.cls-1{stroke-linejoin:round;}.cls-1,.cls-4,.cls-5{stroke-width:0.5px;}.cls-2{fill:#ff9f1c;}.cls-3,.cls-4,.cls-5{stroke-miterlimit:10;}.cls-4{stroke-linecap:round;}</style></defs><title>nav2</title><polygon class="cls-1" points="16.3 5.3 18.6 5.3 16.3 3.1 16.3 5.3"/><ellipse class="cls-2" cx="5.9" cy="7.4" rx="0.7" ry="0.7"/><line class="cls-3" x1="7.7" y1="7.4" x2="16" y2="7.4"/><ellipse class="cls-2" cx="5.9" cy="10.8" rx="0.7" ry="0.7"/><line class="cls-3" x1="7.7" y1="10.8" x2="11.2" y2="10.8"/><ellipse class="cls-2" cx="5.9" cy="14.2" rx="0.7" ry="0.7"/><line class="cls-3" x1="7.7" y1="14.2" x2="11.8" y2="14.2"/><ellipse class="cls-2" cx="5.9" cy="17.6" rx="0.7" ry="0.7"/><line class="cls-3" x1="7.7" y1="17.6" x2="15.6" y2="17.6"/><path class="cls-4" d="M18.6,9.6V5.2l-2-2c0-.1-.1-.1-.2-.1H3.3a.3.3,0,0,0-.3.3V21.6a.3.3,0,0,0,.3.3h15a.3.3,0,0,0,.3-.3v-4"/><path class="cls-2" d="M21,18.5a.4.4,0,0,0,.5,0l.4-.4a.4.4,0,0,0,0-.5l-3.5-3.5-.9.9Z"/><circle class="cls-5" cx="15.3" cy="11.9" r="3.1"/></svg>