<svg id="圖層_4" data-name="圖層 4" xmlns="http://www.w3.org/2000/svg" viewBox="0 0 25 25"><defs><style>.cls-1,.cls-3,.cls-4{fill:none;}.cls-1,.cls-2,.cls-3,.cls-4{stroke:#ff9f1c;stroke-miterlimit:10;}.cls-1{stroke-width:0.5px;}.cls-2{fill:#ff9f1c;stroke-width:0.27px;}.cls-3{stroke-width:0.71px;}.cls-4{stroke-width:0.21px;}</style></defs><title>nav3</title><line class="cls-1" x1="11.9" y1="6.2" x2="15.8" y2="6.2"/><line class="cls-1" x1="11.9" y1="10.3" x2="20.4" y2="10.3"/><line class="cls-1" x1="11.9" y1="14.4" x2="15.8" y2="14.4"/><line class="cls-1" x1="11.9" y1="18.4" x2="14.1" y2="18.4"/><circle class="cls-2" cx="3.9" cy="5.1" r="1.3"/><line class="cls-3" x1="3.9" y1="6.4" x2="3.9" y2="11.2"/><circle class="cls-4" cx="3.9" cy="12.5" r="1.3"/><circle class="cls-4" cx="3.9" cy="19.9" r="1.3"/><line class="cls-3" x1="3.9" y1="13.8" x2="3.9" y2="18.6"/><path class="cls-1" d="M21.9,3.7H10.2a.6.6,0,0,0-.5.6v.8H7L9.7,6.7v14a.6.6,0,0,0,.5.6H21.9a.6.6,0,0,0,.5-.6V4.3A.6.6,0,0,0,21.9,3.7Z"/></svg>