<svg id="圖層_4" data-name="圖層 4" xmlns="http://www.w3.org/2000/svg" viewBox="0 0 106 106"><defs><style>.cls-1{fill:#c4b09d;}</style></defs><title>birthday</title><path class="cls-1" d="M96,77.6c-5.4,0-6-6.2-14.3-6.2s-9,6.2-14.4,6.2-6-6.2-14.3-6.2-9.1,6.2-14.3,6.2-6-6.2-14.3-6.2-9,6.2-14.4,6.2V62.2A9.2,9.2,0,0,1,19.2,53h3.1V25.4H34.6V53H46.9V25.4H59.1V53H71.4V25.4H83.7V53h3.1A9.2,9.2,0,0,1,96,62.2Zm0,24.5H10V83.7c8.3,0,9-6.1,14.4-6.1s6,6.1,14.3,6.1,9.1-6.1,14.3-6.1,6,6.1,14.3,6.1,9-6.1,14.4-6.1,6,6.1,14.3,6.1ZM28.4,22.3a6.1,6.1,0,0,1-6.1-6.1c0-6,6.1-4.5,6.1-12.3,2.3,0,6.2,5.6,6.2,10.7S31.8,22.3,28.4,22.3Zm24.6,0a6.1,6.1,0,0,1-6.1-6.1c0-6,6.1-4.5,6.1-12.3,2.3,0,6.1,5.6,6.1,10.7S56.4,22.3,53,22.3Zm24.6,0a6.1,6.1,0,0,1-6.2-6.1c0-6,6.2-4.5,6.2-12.3,2.3,0,6.1,5.6,6.1,10.7S81,22.3,77.6,22.3Z"/></svg>