<svg id="圖層_4" data-name="圖層 4" xmlns="http://www.w3.org/2000/svg" xmlns:xlink="http://www.w3.org/1999/xlink" viewBox="0 0 500 500"><defs><style>.cls-1,.cls-2{fill:none;}.cls-2{stroke:#fff;stroke-miterlimit:10;stroke-width:2.22px;}.cls-3{clip-path:url(#clip-path);}.cls-4{fill:#ddd;}.cls-5,.cls-6{fill:#878787;}.cls-6{opacity:0.29;}</style><clipPath id="clip-path"><circle class="cls-1" cx="250" cy="250" r="220.2"/></clipPath></defs><title>p_company</title><circle class="cls-2" cx="250" cy="250" r="237.6"/><g class="cls-3"><rect class="cls-4" x="-101.6" y="-2.7" width="655.8" height="594.09"/><rect class="cls-5" x="184.9" y="226.4" width="130" height="517.44"/><rect class="cls-5" x="206.1" y="189.3" width="87.5" height="217.45"/><rect class="cls-5" x="225.6" y="165.8" width="48.5" height="120.61"/><polygon class="cls-5" points="266.4 227.8 233.3 227.8 233.3 145.6 245.3 145.6 257.1 145.6 266.4 145.6 266.4 227.8"/><polygon class="cls-5" points="247.7 192 244.1 192 244.1 109.8 245.4 109.8 246.7 109.8 247.7 109.8 247.7 192"/><polygon class="cls-5" points="255.6 163.6 252 163.6 252 81.4 253.3 81.4 254.6 81.4 255.6 81.4 255.6 163.6"/><rect class="cls-5" x="181.4" y="225.1" width="136.9" height="5.51"/><rect class="cls-5" x="202.9" y="186.7" width="93.9" height="5.3"/><rect class="cls-5" x="222.1" y="163.6" width="54.1" height="4.07"/><rect class="cls-6" x="214.2" y="198.1" width="4.1" height="22.79"/><rect class="cls-6" x="225.4" y="198.1" width="4.1" height="22.79"/><rect class="cls-6" x="236.7" y="198.1" width="4.1" height="22.79"/><rect class="cls-6" x="247.9" y="198.1" width="4.1" height="22.79"/><rect class="cls-6" x="259.2" y="198.1" width="4.1" height="22.79"/><rect class="cls-6" x="270.4" y="198.1" width="4.1" height="22.79"/><rect class="cls-6" x="281.7" y="198.1" width="4.1" height="22.79"/><rect class="cls-5" x="196.3" y="247" width="9.8" height="27.03"/><rect class="cls-6" x="215.7" y="247" width="9.8" height="27.03"/><rect class="cls-5" x="235.2" y="247" width="9.8" height="27.03"/><rect class="cls-5" x="254.7" y="247" width="9.8" height="27.03"/><rect class="cls-5" x="274.1" y="247" width="9.8" height="27.03"/><rect class="cls-5" x="293.6" y="247" width="9.8" height="27.03"/><rect class="cls-5" x="196.3" y="289.2" width="9.8" height="27.03"/><rect class="cls-5" x="215.7" y="289.2" width="9.8" height="27.03"/><rect class="cls-5" x="235.2" y="289.2" width="9.8" height="27.03"/><rect class="cls-6" x="254.7" y="289.2" width="9.8" height="27.03"/><rect class="cls-5" x="274.1" y="289.2" width="9.8" height="27.03"/><rect class="cls-5" x="293.6" y="289.2" width="9.8" height="27.03"/><rect class="cls-5" x="196.3" y="331.3" width="9.8" height="27.03"/><rect class="cls-5" x="215.7" y="331.3" width="9.8" height="27.03"/><rect class="cls-5" x="235.2" y="331.3" width="9.8" height="27.03"/><rect class="cls-5" x="254.7" y="331.3" width="9.8" height="27.03"/><rect class="cls-6" x="274.1" y="331.3" width="9.8" height="27.03"/><rect class="cls-6" x="293.6" y="331.3" width="9.8" height="27.03"/><rect class="cls-6" x="196.3" y="373.5" width="9.8" height="27.03"/><rect class="cls-5" x="215.7" y="373.5" width="9.8" height="27.03"/><rect class="cls-5" x="235.2" y="373.5" width="9.8" height="27.03"/><rect class="cls-5" x="254.7" y="373.5" width="9.8" height="27.03"/><rect class="cls-5" x="274.1" y="373.5" width="9.8" height="27.03"/><rect class="cls-5" x="293.6" y="373.5" width="9.8" height="27.03"/><rect class="cls-5" x="196.3" y="415.6" width="9.8" height="27.03"/><rect class="cls-6" x="215.7" y="415.6" width="9.8" height="27.03"/><rect class="cls-5" x="235.2" y="415.6" width="9.8" height="27.03"/><rect class="cls-6" x="254.7" y="415.6" width="9.8" height="27.03"/><rect class="cls-5" x="274.1" y="415.6" width="9.8" height="27.03"/><rect class="cls-5" x="293.6" y="415.6" width="9.8" height="27.03"/><rect class="cls-5" x="196.3" y="457.7" width="9.8" height="27.03"/><rect class="cls-5" x="215.7" y="457.7" width="9.8" height="27.03"/><rect class="cls-5" x="235.2" y="457.7" width="9.8" height="27.03"/><rect class="cls-5" x="254.7" y="457.7" width="9.8" height="27.03"/><rect class="cls-5" x="274.1" y="457.7" width="9.8" height="27.03"/><rect class="cls-6" x="293.6" y="457.7" width="9.8" height="27.03"/><rect class="cls-5" x="196.3" y="499.9" width="9.8" height="27.03"/><rect class="cls-6" x="215.7" y="499.9" width="9.8" height="27.03"/><rect class="cls-6" x="235.2" y="499.9" width="9.8" height="27.03"/><rect class="cls-5" x="254.7" y="499.9" width="9.8" height="27.03"/><rect class="cls-5" x="274.1" y="499.9" width="9.8" height="27.03"/><rect class="cls-5" x="293.6" y="499.9" width="9.8" height="27.03"/></g></svg>