<svg id="圖層_4" data-name="圖層 4" xmlns="http://www.w3.org/2000/svg" xmlns:xlink="http://www.w3.org/1999/xlink" viewBox="0 0 500 500"><defs><style>.cls-1,.cls-6{fill:none;}.cls-2{clip-path:url(#clip-path);}.cls-3{fill:#fcf0fc;}.cls-4{clip-path:url(#clip-path-2);}.cls-5{fill:#f9c7f8;}.cls-6{stroke:#fff;stroke-miterlimit:10;stroke-width:2.22px;}</style><clipPath id="clip-path"><circle class="cls-1" cx="250" cy="250" r="220.2"/></clipPath><clipPath id="clip-path-2"><rect class="cls-1" x="49" y="75.6" width="400" height="400.33"/></clipPath></defs><title>p_female</title><g class="cls-2"><rect class="cls-3" x="-78.4" y="3.1" width="655.8" height="594.09"/><g class="cls-4"><path class="cls-5" d="M378,376.7l-74.2-16,.5-14.7c23.6-3.2,52.7-10.4,73.9-21.2a8,8,0,0,0,4-6.7,8.4,8.4,0,0,0-3.1-7.1c-.3-.2-30.1-24.8-30.1-110,0-71.9-16.8-108.4-50-108.4h-5A53.4,53.4,0,0,0,249,76c-31.3,0-100,31.4-100,125,0,85.2-29.8,109.8-30,110a8.2,8.2,0,0,0-1.7,11.6,8.4,8.4,0,0,0,2.4,2.2c21.2,10.9,50.3,18.1,74,21.2l.4,14.8-74.2,15.9A93.5,93.5,0,0,0,49,467.6a8.4,8.4,0,0,0,8.3,8.4H440.6a8.5,8.5,0,0,0,8.4-8.4,93.6,93.6,0,0,0-71-90.9Z"/></g></g><circle class="cls-6" cx="250" cy="250" r="237.6"/></svg>