<svg id="圖層_4" data-name="圖層 4" xmlns="http://www.w3.org/2000/svg" xmlns:xlink="http://www.w3.org/1999/xlink" viewBox="0 0 500 500"><defs><style>.cls-1,.cls-6{fill:none;}.cls-2{clip-path:url(#clip-path);}.cls-3{fill:#727272;}.cls-4{clip-path:url(#clip-path-2);}.cls-5{fill:#cecece;}.cls-6{stroke:#fff;stroke-miterlimit:10;stroke-width:2.22px;}</style><clipPath id="clip-path"><circle class="cls-1" cx="250" cy="250" r="220.2"/></clipPath><clipPath id="clip-path-2"><polygon class="cls-1" points="46.7 70.1 46.7 489.1 446.7 470.1 446.7 70.1 46.7 70.1"/></clipPath></defs><title>p_unknown</title><g class="cls-2"><rect class="cls-3" x="-101.6" y="-2.7" width="655.8" height="594.09"/><g class="cls-4"><path class="cls-5" d="M446.5,459.7l-10-40a58.3,58.3,0,0,0-38.1-41.3L325.1,354c-17.9-7.5-26.1-36.3-27.9-47.2a69.7,69.7,0,0,0,24.5-45.1,13.8,13.8,0,0,1,2-8.6,8.3,8.3,0,0,0,5.8-5,126.8,126.8,0,0,0,8.9-36.4,6.9,6.9,0,0,0-.3-2,21.4,21.4,0,0,0-8-12.1V153.4c0-26.9-8.2-37.9-16.9-44.3-1.6-12.9-15.5-39-66.5-39a86.8,86.8,0,0,0-83.3,83.3v44.2a21.5,21.5,0,0,0-8.1,12.1,4.6,4.6,0,0,0-.2,2,124.3,124.3,0,0,0,8.9,36.5,7,7,0,0,0,5,4.7c.9.5,2.7,2.9,2.7,8.8a69.3,69.3,0,0,0,24.6,45.2c-1.7,10.9-9.9,39.7-27.3,46.9L95.1,378.4A57.9,57.9,0,0,0,57,419.7l-10,40a8.4,8.4,0,0,0,6,10.1,7.6,7.6,0,0,0,2.1.3H438.4a8.4,8.4,0,0,0,8.3-8.4,13.6,13.6,0,0,0-.2-2Z"/></g><rect class="cls-5" x="33.7" y="456.7" width="434.8" height="91.9"/></g><circle class="cls-6" cx="250" cy="250" r="237.6"/><path class="cls-3" d="M282.5,173.3c0,22.5-13.4,34.1-40.4,34.9v27.1h-7.9V194.7c10,0,17.5-1.4,22.5-4.1,8.8-4.8,13.2-12.9,13.2-24.4,0-6.8-1.8-12.2-5.5-16.2a15.8,15.8,0,0,0-12-5.1c-3.6,0-7.6,1.8-12,5.3s-7.8,5.4-10.7,5.4a11.2,11.2,0,0,1-7.5-2.6,8.7,8.7,0,0,1-2.7-6.6q0-12.6,22.2-12.6a40.1,40.1,0,0,1,28,10.9A36.7,36.7,0,0,1,282.5,173.3Zm-32.7,93.4a9.9,9.9,0,0,1-3.6,7.7,12.5,12.5,0,0,1-8.6,3,11.5,11.5,0,0,1-8.3-3.2,9.5,9.5,0,0,1-3.4-7.5,10.2,10.2,0,0,1,3.4-7.7,12.3,12.3,0,0,1,8.3-3,12.9,12.9,0,0,1,8.8,3.2A10.1,10.1,0,0,1,249.8,266.7Z"/></svg>