<?xml version="1.0" encoding="utf-8"?>
<svg version="1.1" xmlns:xlink="http://www.w3.org/1999/xlink" width="17px" height="11px" xmlns="http://www.w3.org/2000/svg">
  <g transform="matrix(1 0 0 1 -1070 -618 )">
    <path d="M 8.50994913842931 2.29165209670285  C 8.50663275329072 2.29165209670285  8.50331637003884 2.29165695336299  8.5 2.29166666666667  C 8.1871903537917 2.29641209463042  7.87669589012508 2.34464549308733  7.57798611111111 2.43489583333333  C 7.71615852465746 2.67074173156465  7.78972734525967 2.93703121465111  7.79166666666667 3.20833333333333  C 7.79166666666667 4.09429011952023  7.05169285041478 4.8125  6.13888888888889 4.8125  C 5.85936549388296 4.81061771745791  5.58500663252115 4.73921268569695  5.34201388888889 4.60510416666667  C 5.25639821773409 4.89329796470762  5.21295261065153 5.19174336173356  5.21295261065153 5.49167813836952  C 5.21295261065153 7.25900372024342  6.68906823589256 8.69170418003619  8.50994913842931 8.69170418003619  C 10.3308300409661 8.69170418003619  11.8069456662071 7.25900372024342  11.8069456662071 5.49167813836952  C 11.8069456662071 3.72435255649562  10.3308300409661 2.29165209670285  8.50994913842931 2.29165209670285  Z M 16.8972916666667 5.91794270833334  C 17.0342145918358 5.6550599504929  17.0342145918358 5.34465359117377  16.8972916666667 5.08177083333333  C 15.2967534722222 2.05075520833333  12.1281423611111 0  8.5 0  C 4.87185763888889 0  1.70236111111111 2.0521875  0.102708333333333 5.08205729166667  C -0.0342145918358333 5.3449400495071  -0.0342145918358331 5.65534640882624  0.102708333333333 5.91822916666667  C 1.70324652777778 8.94924479166667  4.87185763888889 11  8.5 11  C 12.1281423611111 11  15.2976388888889 8.9478125  16.8972916666667 5.91794270833334  Z M 15.5222395833333 5.5  C 14.0810763888889 8.04947916666667  11.4118402777778 9.625  8.5 9.625  C 5.58845486111111 9.625  2.91921875 8.04947916666667  1.47776041666667 5.5  C 2.91921875 2.95052083333333  5.58815972222222 1.375  8.5 1.375  C 11.4118402777778 1.375  14.08078125 2.95052083333333  15.5222395833333 5.5  Z " fill-rule="nonzero" fill="#aaaaaa" stroke="none" transform="matrix(1 0 0 1 1070 618 )" />
  </g>
</svg>