<?xml version="1.0" encoding="utf-8"?>
<svg version="1.1" xmlns:xlink="http://www.w3.org/1999/xlink" width="19px" height="19px" xmlns="http://www.w3.org/2000/svg">
  <g transform="matrix(1 0 0 1 -461 -341 )">
    <path d="M 1.74265625 5.260625  L 5.830625 1.83171875  L 4.690625 0.4690625  L 0.59375 3.89796875  L 1.74265625 5.260625  Z M 17.25734375 5.26953125  L 18.40625 3.906875  L 14.309375 0.4690625  L 13.16046875 1.83171875  L 17.25734375 5.26953125  Z M 17.515625 10.390625  C 17.515625 5.96421875  13.92640625 2.375  9.5 2.375  C 5.07359375 2.375  1.484375 5.96421875  1.484375 10.390625  C 1.484375 14.81703125  5.0646875 18.40625  9.5 18.40625  C 13.92640625 18.40625  17.515625 14.81703125  17.515625 10.390625  Z M 15.734375 10.390625  C 15.734375 13.83734375  12.94671875 16.625  9.5 16.625  C 6.05328125 16.625  3.265625 13.83734375  3.265625 10.390625  C 3.265625 6.94390625  6.05328125 4.15625  9.5 4.15625  C 12.94671875 4.15625  15.734375 6.94390625  15.734375 10.390625  Z M 10.390625 9.5  L 10.390625 6.828125  L 8.609375 6.828125  L 8.609375 9.5  L 5.9375 9.5  L 5.9375 11.28125  L 8.609375 11.28125  L 8.609375 13.953125  L 10.390625 13.953125  L 10.390625 11.28125  L 13.0625 11.28125  L 13.0625 9.5  L 10.390625 9.5  Z " fill-rule="nonzero" fill="#2e3d47" stroke="none" transform="matrix(1 0 0 1 461 341 )" />
  </g>
</svg>