<?xml version="1.0" encoding="utf-8"?>
<svg version="1.1" xmlns:xlink="http://www.w3.org/1999/xlink" width="19px" height="14px" xmlns="http://www.w3.org/2000/svg">
  <g transform="matrix(1 0 0 1 -302 -344 )">
    <path d="M 9.08656872603602 3.68059336652523  L 3.42744790261529 8.33986952149707  L 3.42744790261529 13.369088203795  C 3.42744790261529 13.6390462642762  3.64741372967405 13.859012091335  3.91737179015525 13.859012091335  L 7.35683744961943 13.8490136446505  C 7.62679551010064 13.8490136446505  7.84676133715939 13.6290478175917  7.84676133715939 13.3590897571105  L 7.84676133715939 10.4195464318708  C 7.84676133715939 10.1495883713896  8.06672716421815 9.92962254433081  8.33668522469934 9.92962254433081  L 10.2963807748592 9.92962254433081  C 10.5663388353404 9.92962254433081  10.7863046623991 10.1495883713896  10.7863046623991 10.4195464318708  L 10.7863046623991 13.3590897571105  C 10.7863046623991 13.6290478175917  11.0062704894579 13.8490136446505  11.2762285499391 13.8490136446505  L 14.7156942094033 13.859012091335  C 14.9856522698845 13.859012091335  15.2056180969432 13.6390462642762  15.2056180969432 13.369088203795  L 15.2056180969432 8.33986952149707  L 9.5464972735225 3.68059336652523  C 9.42651591330864 3.56061200631137  9.22654697961886 3.56061200631137  9.08656872603602 3.68059336652523  Z M 18.0251800619691 6.84010251882373  L 15.4555792640555 4.73043026839657  L 15.4555792640555 0.48109042748878  C 15.4555792640555 0.281121493799004  15.2956041171036 0.111147900162692  15.0856367367294 0.111147900162692  L 13.3659039069973 0.111147900162692  C 13.1659349733075 0.111147900162692  12.9959613796712 0.271123047114514  12.9959613796712 0.48109042748878  L 12.9959613796712 2.71074403812981  L 10.2463885414367 0.451095087435315  C 9.70647242047433 0.00116498663331477  8.91659513239971 0.00116498663331477  8.3766790114373 0.451095087435315  L 0.607885937589415 6.85010096550822  C 0.447910790637593 6.98008077240658  0.427913897268615 7.21004504614982  0.55789370416697 7.37002019310164  L 1.33777254555711 8.31987262812809  C 1.46775235245546 8.47984777507991  1.69771662619871 8.49984466844889  1.85769177315053 8.36986486155054  L 9.07657027935153 2.42078908427963  C 9.21654853293438 2.31080617075025  9.40651901993966 2.31080617075025  9.5464972735225 2.42078908427963  L 16.7653757797235 8.36986486155054  C 16.9253509266753 8.49984466844889  17.1553152004186 8.47984777507991  17.2852950073169 8.31987262812809  L 18.0651738487071 7.37002019310164  C 18.2051521022899 7.21004504614982  18.1851552089209 6.97008232572209  18.0251800619691 6.84010251882373  Z " fill-rule="nonzero" fill="#1d3557" stroke="none" fill-opacity="0.501960784313725" transform="matrix(1 0 0 1 302 344 )" />
  </g>
</svg>